SplineFontDB: 3.0
FontName: Dhyana-Bold
FullName: Dhyana Bold
FamilyName: Dhyana
Weight: Bold
Copyright: Copyright (c) 2010 by Vernon Adams. All rights reserved.
Version: 1.00, 2005
ItalicAngle: 0
UnderlinePosition: -188
UnderlineWidth: 48
Ascent: 1638
Descent: 410
sfntRevision: 0x00010000
LayerCount: 2
Layer: 0 0 "Back"  1
Layer: 1 0 "Fore"  0
XUID: [1021 332 469972825 9070266]
FSType: 0
OS2Version: 2
OS2_WeightWidthSlopeOnly: 0
OS2_UseTypoMetrics: 1
CreationTime: 1283209859
ModificationTime: 1345637440
PfmFamily: 17
TTFWeight: 700
TTFWidth: 5
LineGap: 0
VLineGap: 0
Panose: 2 0 8 3 5 0 0 2 0 4
OS2TypoAscent: 2537
OS2TypoAOffset: 0
OS2TypoDescent: -766
OS2TypoDOffset: 0
OS2TypoLinegap: 0
OS2WinAscent: 2537
OS2WinAOffset: 0
OS2WinDescent: 766
OS2WinDOffset: 0
HheadAscent: 2537
HheadAOffset: 0
HheadDescent: -766
HheadDOffset: 0
OS2SubXSize: 1331
OS2SubYSize: 1433
OS2SubXOff: 0
OS2SubYOff: 286
OS2SupXSize: 1331
OS2SupYSize: 1433
OS2SupXOff: 0
OS2SupYOff: 983
OS2StrikeYSize: 102
OS2StrikeYPos: 512
OS2Vendor: 'PfEd'
OS2CodePages: 00000001.00000000
OS2UnicodeRanges: 8200006f.1000200a.00000000.00000000
Lookup: 1 0 0 "'liga' Standard Ligatures lookup 0"  {"'liga' Standard Ligatures lookup 0 subtable"  } ['liga' ('lao ' <'dflt' > 'latn' <'dflt' > ) ]
Lookup: 4 0 1 "'liga' Standard Ligatures lookup 1"  {"'liga' Standard Ligatures lookup 1 subtable"  } ['liga' ('lao ' <'dflt' > 'latn' <'dflt' > ) ]
Lookup: 2 0 0 "ccmpGlyphCompositionDecompositi"  {"ccmpGlyphCompositionDecompositi subtable"  } ['ccmp' ('lao ' <'dflt' > ) ]
Lookup: 258 0 0 "'kern' Horizontal Kerning in Latin lookup 0"  {"'kern' Horizontal Kerning in Latin lookup 0 subtable"  } ['kern' ('latn' <'dflt' > ) ]
MarkAttachClasses: 1
DEI: 91125
TtTable: prep
PUSHW_1
 511
SCANCTRL
PUSHB_1
 1
SCANTYPE
SVTCA[y-axis]
MPPEM
PUSHB_1
 8
LT
IF
PUSHB_2
 1
 1
INSTCTRL
EIF
PUSHB_2
 70
 6
CALL
IF
POP
PUSHB_1
 16
EIF
MPPEM
PUSHB_1
 20
GT
IF
POP
PUSHB_1
 128
EIF
SCVTCI
PUSHB_1
 6
CALL
NOT
IF
SVTCA[y-axis]
PUSHB_1
 6
DUP
RCVT

StartChar: .notdef
Encoding: 65536 -1 0
Width: 761
Flags: HW
HStem: 0 69<138 554> 1320 70<138 554>
VStem: 69 69<69 1320> 554 69<69 1320>
LayerCount: 2
Fore
SplineSet
554 69 m 1
 554 1320 l 1
 138 1320 l 1
 138 69 l 1
 554 69 l 1
69 1390 m 1
 623 1390 l 1
 623 0 l 1
 69 0 l 1
 69 1390 l 1
EndSplineSet
EndChar

StartChar: exclam
Encoding: 33 33 6
Width: 768
GlyphClass: 2
Flags: HW
HStem: -7 320<277.786 520.803> 1587 20G<228 557>
VStem: 243 317<27.8171 262.468> 297 194<464 701.479>
LayerCount: 2
Fore
SplineSet
560 161 m 0
 560 54 517 -7 409 -7 c 0
 358 -7 314 4 276 26 c 1
 254 65 243 110 243 161 c 0
 243 267 302 313 409 313 c 0
 511 313 560 264 560 161 c 0
491 464 m 1
 297 464 l 1
 228 1607 l 1
 557 1607 l 1
 491 464 l 1
EndSplineSet
EndChar

StartChar: quotedbl
Encoding: 34 34 7
Width: 897
GlyphClass: 2
Flags: HW
HStem: 1587 20G<62 416 520 874>
VStem: 139 178<920 1016.35> 597 178<920 1016.09>
LayerCount: 2
Fore
SplineSet
874 1607 m 1
 846 1373 808 1149 775 920 c 1
 597 920 l 1
 531 1483 l 1
 520 1607 l 1
 874 1607 l 1
416 1607 m 1
 388 1373 350 1149 317 920 c 1
 139 920 l 1
 71 1498 l 1
 62 1607 l 1
 416 1607 l 1
EndSplineSet
EndChar

StartChar: numbersign
Encoding: 35 35 8
Width: 1278
GlyphClass: 2
Flags: HW
HStem: 490 143<174 340 553 736 948 1146> 874 145<185 384 599 778 996 1155>
VStem: 287 197<118 315> 452 194<1201 1395> 684 197<118 315> 845 198<1197 1395>
DStem2: 287 118 484 118 0.128144 0.991756<25.2443 375.725 544.84 762.197 933.553 1287.62> 684 118 881 118 0.125851 0.992049<24.7927 375.587 544.13 761.819 933.102 1287.11>
LayerCount: 2
Fore
SplineSet
749 633 m 1
 778 874 l 1
 584 874 l 1
 553 633 l 1
 749 633 l 1
537 490 m 1
 484 118 l 1
 287 118 l 1
 340 490 l 1
 174 490 l 1
 174 633 l 1
 354 633 l 1
 384 874 l 1
 185 874 l 1
 185 1019 l 1
 403 1019 l 1
 452 1395 l 1
 646 1395 l 1
 599 1019 l 1
 801 1019 l 1
 845 1395 l 1
 1043 1395 l 1
 996 1019 l 1
 1155 1019 l 1
 1155 874 l 1
 979 874 l 1
 948 633 l 1
 1146 633 l 1
 1146 490 l 1
 931 490 l 1
 881 118 l 1
 684 118 l 1
 736 490 l 1
 537 490 l 1
EndSplineSet
EndChar

StartChar: dollar
Encoding: 36 36 9
Width: 1306
GlyphClass: 2
Flags: HW
HStem: -30 230<369.746 604 713 819.694> 1256 228<422.098 604 713 941.219> 1594 20G<604 713>
VStem: 100 272<1008.07 1206.07> 604 109<-162 -30 209 609 921 1253 1484 1614> 908 275<280.721 523.904>
DStem2: 345 253 304 28 0.954248 -0.299017<-136.38 261.176> 604 921 342 751 0.936431 -0.350853<-254.622 0 211.537 408.055> 843.5 1464 822.5 1240.5 0.967856 -0.251505<-71.6927 270.598>
LayerCount: 2
Fore
SplineSet
713 209 m 1
 820 222 908 286 908 402 c 0
 908 535 810 570 713 609 c 1
 713 209 l 1
604 1256 m 1
 468 1254 372 1222 372 1096 c 0
 372 983 510 953 604 921 c 1
 604 1256 l 1
100 1093 m 0
 100 1391 315 1476 604 1484 c 1
 604 1614 l 1
 713 1614 l 1
 713 1479 l 1
 861 1470 1016 1440 1118 1384 c 1
 1050 1175 l 1
 1011 1189 971 1202 932 1214 c 1
 871 1231 786 1253 713 1253 c 1
 713 884 l 1
 932 803 1183 715 1183 436 c 0
 1183 133 995 -7 713 -28 c 1
 713 -162 l 1
 604 -162 l 1
 604 -30 l 1
 424 -30 280 31 147 86 c 1
 207 307 l 1
 317 258 453 200 604 200 c 1
 604 648 l 1
 378 731 100 797 100 1093 c 0
EndSplineSet
EndChar

StartChar: percent
Encoding: 37 37 10
Width: 1724
GlyphClass: 2
Flags: HW
HStem: -33 21G<566.805 618.51> 12 162<1272.96 1506.84> 625 163<270.583 503.468> 749 167<1277.8 1501.47> 1362 168<275.586 498.471>
VStem: 29 184<849.424 1294.47> 562 190<849.778 1294.47> 1032 184<235.471 680.647> 1565 189<236.778 681.899>
DStem2: 436 49 609 -33 0.428034 0.903763<0 1627.67>
LayerCount: 2
Fore
SplineSet
1216 457 m 0
 1216 303 1241 174 1390 174 c 256
 1539 174 1565 303 1565 457 c 0
 1565 620 1535 749 1390 749 c 0
 1244 749 1216 621 1216 457 c 0
1754 451 m 0
 1754 207 1639 12 1393 12 c 256
 1145 12 1032 205 1032 451 c 0
 1032 727 1136 916 1393 916 c 0
 1655 916 1754 731 1754 451 c 0
213 1070 m 0
 213 916 238 788 387 788 c 256
 536 788 562 917 562 1070 c 0
 562 1233 532 1362 387 1362 c 256
 242 1362 213 1233 213 1070 c 0
752 1064 m 0
 752 820 637 625 391 625 c 256
 143 625 29 818 29 1064 c 0
 29 1341 133 1530 391 1530 c 0
 651 1530 752 1342 752 1064 c 0
1136 1527 m 1
 1308 1437 l 1
 609 -33 l 1
 436 49 l 1
 1136 1527 l 1
EndSplineSet
EndChar

StartChar: ampersand
Encoding: 38 38 11
Width: 1740
GlyphClass: 2
Flags: HW
HStem: -40 220<543.576 1069.82> -36 21G<1572.21 1612.23> 1381 193<595.348 910.214>
VStem: 150 266<296.082 603.573> 295 251<1091.4 1331.25> 966 226<1095.84 1328.42> 1276 241<496.877 875>
DStem2: 873 823 675 728 0.765036 -0.643988<-447.402 -318.938 0 514.947 803.24 1102.76>
LayerCount: 2
Fore
SplineSet
675 728 m 1
 534 694 416 624 416 451 c 0
 416 251 560 180 780 180 c 0
 942 180 1128 204 1186 302 c 1
 675 728 l 1
1364 159 m 1
 1260 12 1049 -40 780 -40 c 0
 429 -40 150 79 150 427 c 0
 150 695 312 809 507 883 c 1
 410 943 295 1073 295 1229 c 0
 295 1467 507 1574 749 1574 c 0
 988 1574 1192 1467 1192 1233 c 0
 1192 1006 1057 886 873 823 c 1
 1270 495 l 1
 1275 573 1276 670 1276 753 c 0
 1276 794 1275 840 1275 875 c 1
 1518 875 l 1
 1518 714 1504 543 1480 400 c 1
 1467 332 l 1
 1721 118 l 1
 1596 -36 l 1
 1364 159 l 1
710 982 m 1
 822 1013 966 1069 966 1211 c 0
 966 1331 879 1381 755 1381 c 0
 616 1381 546 1325 546 1214 c 0
 546 1105 637 1022 710 982 c 1
EndSplineSet
EndChar

StartChar: quotesingle
Encoding: 39 39 12
Width: 625
GlyphClass: 2
Flags: HW
HStem: 1587 20G<136 489>
VStem: 212 179<920 1016.35>
LayerCount: 2
Fore
SplineSet
489 1607 m 1
 463 1372 423 1150 391 920 c 1
 212 920 l 1
 144 1498 l 1
 136 1607 l 1
 489 1607 l 1
EndSplineSet
EndChar

StartChar: parenleft
Encoding: 40 40 13
Width: 859
GlyphClass: 2
Flags: HW
HStem: 1655 20G<594 650.725>
VStem: 203 271<353.009 1041.32>
LayerCount: 2
Fore
SplineSet
641 -270 m 1
 384 -84 203 251 203 698 c 0
 203 1145 378 1486 634 1675 c 1
 777 1504 l 1
 596 1335 474 1049 474 698 c 256
 474 349 590 67 773 -97 c 1
 641 -270 l 1
EndSplineSet
EndChar

StartChar: parenright
Encoding: 41 41 14
Width: 857
GlyphClass: 2
Flags: HW
HStem: 1657 20G<215.74 254>
VStem: 398 272<367.17 1051.11>
LayerCount: 2
Fore
SplineSet
231 1677 m 1
 487 1488 670 1159 670 713 c 0
 670 258 493 -77 233 -270 c 1
 95 -98 l 1
 277 68 398 359 398 707 c 0
 398 1057 279 1336 99 1504 c 1
 231 1677 l 1
EndSplineSet
EndChar

StartChar: asterisk
Encoding: 42 42 15
Width: 998
GlyphClass: 2
Flags: HW
HStem: 1134 157<44 333 634 911>
DStem2: 333 1134 483 1033 0.496879 0.86782<-292.852 -13.1181 297.436 578.653> 481 1392 336 1291 0.495401 -0.868664<-279.953 0 312.841 592.752>
LayerCount: 2
Fore
SplineSet
617 1640 m 1
 778 1546 l 1
 631 1291 l 1
 911 1291 l 1
 911 1134 l 1
 634 1134 l 1
 785 883 l 1
 622 787 l 1
 483 1033 l 1
 344 788 l 1
 182 883 l 1
 333 1134 l 1
 44 1134 l 1
 44 1291 l 1
 336 1291 l 1
 188 1548 l 1
 349 1639 l 1
 481 1392 l 1
 617 1640 l 1
EndSplineSet
EndChar

StartChar: plus
Encoding: 43 43 16
Width: 1074
GlyphClass: 2
Flags: HW
HStem: 485 220<137 434 668 966>
VStem: 434 234<130 485 705 1059>
LayerCount: 2
Fore
SplineSet
668 485 m 1
 668 130 l 1
 434 130 l 1
 434 485 l 1
 137 485 l 1
 137 705 l 1
 434 705 l 1
 434 1059 l 1
 668 1059 l 1
 668 705 l 1
 966 705 l 1
 966 485 l 1
 668 485 l 1
EndSplineSet
EndChar

StartChar: comma
Encoding: 44 44 17
Width: 661
GlyphClass: 2
Flags: HW
HStem: -291 664
VStem: 154 362<1.57874 373> 316 200<-119.748 0>
LayerCount: 2
Fore
SplineSet
154 373 m 1
 516 373 l 1
 516 51 l 2
 516 -161 370 -243 206 -291 c 1
 155 -183 l 1
 244 -151 316 -117 316 0 c 1
 154 0 l 1
 154 373 l 1
EndSplineSet
EndChar

StartChar: hyphen
Encoding: 45 45 18
Width: 1078
GlyphClass: 2
Flags: HW
HStem: 558 225<159 920>
LayerCount: 2
Fore
SplineSet
159 558 m 1
 159 783 l 1
 920 783 l 1
 920 558 l 1
 159 558 l 1
EndSplineSet
EndChar

StartChar: period
Encoding: 46 46 19
Width: 714
GlyphClass: 2
Flags: HW
HStem: 0 373<176 539>
VStem: 176 363<0 373>
LayerCount: 2
Fore
SplineSet
176 373 m 1
 539 373 l 1
 539 0 l 1
 176 0 l 1
 176 373 l 1
EndSplineSet
EndChar

StartChar: slash
Encoding: 47 47 20
Width: 982
GlyphClass: 2
Flags: HW
DStem2: 130 -84 368 -162 0.316543 0.948578<1.34806 1904.96>
LayerCount: 2
Fore
SplineSet
733 1723 m 1
 974 1643 l 1
 368 -162 l 1
 130 -84 l 1
 733 1723 l 1
EndSplineSet
EndChar

StartChar: zero
Encoding: 48 48 21
Width: 1443
GlyphClass: 2
Flags: HW
HStem: -29 218<551.405 887.339> 1012 217<554.009 886.782>
VStem: 131 278<351.214 848.413> 1035 275<357.421 846.338>
LayerCount: 2
Fore
SplineSet
409 603 m 256
 409 369 484 189 719 189 c 0
 955 189 1035 372 1035 609 c 0
 1035 837 949 1012 719 1012 c 0
 489 1012 409 833 409 603 c 256
131 602 m 0
 131 986 332 1229 718 1229 c 0
 1104 1229 1310 984 1310 602 c 0
 1310 217 1104 -29 717 -29 c 0
 335 -29 131 219 131 602 c 0
EndSplineSet
EndChar

StartChar: one
Encoding: 49 49 22
Width: 861
GlyphClass: 2
Flags: HW
HStem: 0 21G<346 636> 1184 20G<321 636>
VStem: 346 290<0 974>
LayerCount: 2
Fore
SplineSet
346 974 m 1
 167 893 l 1
 87 1090 l 1
 165 1123 242 1156 321 1188 c 1
 424 1204 l 1
 636 1204 l 1
 636 0 l 1
 346 0 l 1
 346 974 l 1
EndSplineSet
EndChar

StartChar: two
Encoding: 50 50 23
Width: 1167
GlyphClass: 2
Flags: HW
HStem: 0 226<541 1009> 998 217<343.673 705.604>
VStem: 758 271<687.306 946.519>
DStem2: 220 1131.5 310 940.5 0.93271 0.360627<-63.9498 260.465> 578 548 541 226 0.767481 0.641072<-234.822 252.591>
LayerCount: 2
Fore
SplineSet
575 1215 m 0
 829 1215 1029 1104 1029 853 c 0
 1029 624 875 508 742 395 c 2
 541 226 l 1
 1009 226 l 1
 1009 0 l 1
 153 0 l 1
 153 193 l 1
 578 548 l 1
 666 620 758 694 758 824 c 0
 758 940 689 998 552 998 c 0
 431 998 321 950 237 907 c 1
 159 1101 l 1
 261 1160 413 1215 575 1215 c 0
EndSplineSet
EndChar

StartChar: three
Encoding: 51 51 24
Width: 1183
GlyphClass: 2
Flags: HW
HStem: -188 215<276.309 691.844> 451 209<438 630.555> 1006 219<295.39 675.238>
VStem: 733 257<736.616 959.567> 756 272<88.1663 345.893>
DStem2: 233 87.5 166.5 -123 0.940036 -0.341075<-32.1495 284.961>
LayerCount: 2
Fore
SplineSet
438 660 m 1
 587 660 733 702 733 850 c 0
 733 969 641 1006 515 1006 c 0
 401 1006 305 955 220 934 c 1
 132 1130 l 1
 227 1177 356 1225 502 1225 c 0
 777 1225 990 1128 990 852 c 0
 990 693 886 578 751 556 c 1
 901 519 1028 403 1028 214 c 0
 1028 -67 803 -188 521 -188 c 0
 369 -188 228 -157 128 -107 c 1
 201 101 l 1
 279 62 398 27 516 27 c 0
 666 27 756 77 756 221 c 0
 756 386 597 442 438 451 c 1
 438 660 l 1
EndSplineSet
EndChar

StartChar: four
Encoding: 52 52 25
Width: 1271
GlyphClass: 2
Flags: HW
HStem: 64 212<363 733 979 1164>
VStem: 733 246<-238 64 279 825>
DStem2: 83 243 363 276 0.562173 0.827019<184.7 846.738>
LayerCount: 2
Fore
SplineSet
733 276 m 1
 733 825 l 1
 363 276 l 1
 733 276 l 1
979 1179 m 1
 979 279 l 1
 1164 279 l 1
 1164 64 l 1
 979 64 l 1
 979 -238 l 1
 733 -238 l 1
 733 64 l 1
 120 64 l 1
 83 243 l 1
 758 1236 l 1
 979 1179 l 1
EndSplineSet
EndChar

StartChar: five
Encoding: 53 53 26
Width: 1168
GlyphClass: 2
Flags: HW
HStem: -196 227<273.768 714.394> 532 205<416.44 713.848> 978 212<401 966>
VStem: 169 232<681 978> 800 253<114.626 444.234>
LayerCount: 2
Fore
SplineSet
1053 269 m 0
 1053 -28 845 -196 547 -196 c 0
 387 -196 248 -154 136 -102 c 1
 182 112 l 1
 275 67 398 31 534 31 c 0
 704 31 800 103 800 270 c 0
 800 438 722 532 557 532 c 0
 454 532 370 491 295 446 c 1
 169 554 l 1
 169 1190 l 1
 966 1190 l 1
 966 978 l 1
 401 978 l 1
 401 681 l 1
 445 713 505 737 585 737 c 0
 878 737 1053 562 1053 269 c 0
EndSplineSet
EndChar

StartChar: six
Encoding: 54 54 27
Width: 1258
GlyphClass: 2
Flags: HW
HStem: -124 217<500.265 800.346> 647 210<486.649 820.889> 1146 221<791.916 881.346>
VStem: 113 273<221.521 566.014> 901 265<201.931 564.71>
LayerCount: 2
Fore
SplineSet
677 857 m 0
 968 857 1166 662 1166 373 c 0
 1166 65 966 -124 656 -124 c 0
 308 -124 113 105 113 452 c 0
 113 984 454 1259 877 1367 c 1
 944 1146 l 1
 722 1100 538 992 457 804 c 1
 520 833 588 857 677 857 c 0
901 402 m 0
 901 555 825 647 673 647 c 0
 551 647 450 596 388 534 c 1
 386 505 386 476 386 443 c 0
 389 244 452 93 655 93 c 0
 832 93 901 227 901 402 c 0
EndSplineSet
EndChar

StartChar: seven
Encoding: 55 55 28
Width: 1149
GlyphClass: 2
Flags: HW
HStem: 992 222<138 758>
DStem2: 246 -104 497 -216 0.422495 0.906365<4.53325 1209.69>
LayerCount: 2
Fore
SplineSet
1089 1054 m 1
 497 -216 l 1
 246 -104 l 1
 758 992 l 1
 138 992 l 1
 138 1214 l 1
 1015 1214 l 1
 1089 1054 l 1
EndSplineSet
EndChar

StartChar: eight
Encoding: 56 56 29
Width: 1312
GlyphClass: 2
Flags: HW
HStem: -138 219<480.419 832.859> 545 198<514.866 799.293> 1140 211<490.914 822.991>
VStem: 149 270<142.611 446.859> 166 264<287.779 462.033 818.465 1080.18> 882 264<286.779 462.476 816.688 1081.77> 892 271<139.258 449.175>
LayerCount: 2
Fore
SplineSet
659 743 m 0
 795 743 882 820 882 956 c 0
 882 1089 792 1140 659 1140 c 0
 525 1140 430 1090 430 956 c 256
 430 818 521 743 659 743 c 0
659 81 m 0
 812 81 892 133 892 285 c 0
 892 437 810 545 659 545 c 0
 506 545 419 439 419 286 c 0
 419 134 500 81 659 81 c 0
659 1351 m 0
 927 1351 1146 1230 1146 965 c 0
 1146 782 1028 667 879 632 c 1
 1045 596 1163 464 1163 262 c 0
 1163 -18 939 -138 659 -138 c 0
 377 -138 149 -18 149 264 c 0
 149 463 267 599 433 632 c 1
 285 668 166 782 166 966 c 0
 166 1232 391 1351 659 1351 c 0
EndSplineSet
EndChar

StartChar: nine
Encoding: 57 57 30
Width: 1285
GlyphClass: 2
Flags: HW
HStem: -231 222<401.803 489.779> 297 208<468.337 805.568> 1042 218<477.508 788.467>
VStem: 118 266<592.589 944.788> 902 270<562.829 916.278>
LayerCount: 2
Fore
SplineSet
829 355 m 1
 774 321 696 297 607 297 c 0
 309 297 118 468 118 765 c 0
 118 1065 317 1260 620 1260 c 0
 978 1260 1172 1043 1172 684 c 0
 1172 170 823 -137 406 -231 c 1
 341 -9 l 1
 565 37 756 158 829 355 c 1
634 1042 m 0
 454 1042 384 930 384 752 c 0
 384 607 461 505 605 505 c 0
 699 505 834 527 891 569 c 1
 895 612 900 656 902 703 c 1
 899 896 832 1042 634 1042 c 0
EndSplineSet
EndChar

StartChar: colon
Encoding: 58 58 31
Width: 701
GlyphClass: 2
Flags: HW
HStem: 0 379<190 556> 688 379<190 556>
VStem: 190 366<0 379 688 1067>
LayerCount: 2
Fore
SplineSet
190 379 m 1
 556 379 l 1
 556 0 l 1
 190 0 l 1
 190 379 l 1
190 1067 m 1
 556 1067 l 1
 556 688 l 1
 190 688 l 1
 190 1067 l 1
EndSplineSet
EndChar

StartChar: semicolon
Encoding: 59 59 32
Width: 692
GlyphClass: 2
Flags: HW
HStem: 688 379<186 549>
VStem: 186 363<1.57874 373 688 1067> 350 200<-119.748 0>
LayerCount: 2
Fore
SplineSet
186 1067 m 1
 549 1067 l 1
 549 688 l 1
 186 688 l 1
 186 1067 l 1
188 373 m 1
 550 373 l 1
 550 51 l 2
 550 -161 404 -243 240 -291 c 1
 189 -183 l 1
 278 -151 350 -117 350 0 c 1
 188 0 l 1
 188 373 l 1
EndSplineSet
EndChar

StartChar: less
Encoding: 60 60 33
Width: 1238
GlyphClass: 2
Flags: HW
HStem: 1 21G<932.007 963.293>
DStem2: 444 632 179 559 0.813663 -0.581337<0 675.281> 216 739 444 632 0.817059 0.576554<124.598 800.52>
LayerCount: 2
Fore
SplineSet
216 739 m 1
 960 1264 l 1
 1001 1015 l 1
 444 632 l 1
 1001 250 l 1
 960 1 l 1
 179 559 l 1
 216 739 l 1
EndSplineSet
EndChar

StartChar: equal
Encoding: 61 61 34
Width: 1112
GlyphClass: 2
Flags: HW
HStem: 278 197<162 951> 601 196<162 951>
LayerCount: 2
Fore
SplineSet
162 278 m 1
 162 475 l 1
 951 475 l 1
 951 278 l 1
 162 278 l 1
162 601 m 1
 162 797 l 1
 951 797 l 1
 951 601 l 1
 162 601 l 1
EndSplineSet
EndChar

StartChar: greater
Encoding: 62 62 35
Width: 1217
GlyphClass: 2
Flags: HW
HStem: 1 21G<285.784 316.993>
DStem2: 288 1264 247 1009 0.81798 -0.575246<113.151 782.362> 248 256 289 1 0.813663 0.581337<0 667.725>
LayerCount: 2
Fore
SplineSet
289 1 m 1
 248 256 l 1
 800 632 l 1
 247 1009 l 1
 288 1264 l 1
 1026 745 l 1
 1070 559 l 1
 289 1 l 1
EndSplineSet
EndChar

StartChar: question
Encoding: 63 63 36
Width: 1148
GlyphClass: 2
Flags: HW
HStem: -43 328<311.197 505.588> 1359 234<238.737 696.984>
VStem: 260 296<7.04272 235.046> 264 270<378 699.828> 758 285<1050.27 1300.15>
LayerCount: 2
Fore
SplineSet
369 -43 m 1
 299 -13 252 66 252 165 c 1
 280 234 353 285 449 285 c 1
 518 255 566 176 566 77 c 1
 539 8 465 -43 369 -43 c 1
264 823 m 1
 445 883 758 952 758 1178 c 0
 758 1330 638 1359 486 1359 c 0
 428 1359 140 1313 140 1280 c 1
 65 1495 l 1
 180 1553 330 1593 505 1593 c 0
 799 1593 1043 1492 1043 1199 c 0
 1043 899 779 760 534 686 c 1
 534 378 l 1
 264 378 l 1
 264 823 l 1
EndSplineSet
EndChar

StartChar: at
Encoding: 64 64 37
Width: 1982
GlyphClass: 2
Flags: HW
HStem: -144 196<721.894 1243.12> 239 173<790.146 1053.11 1390.18 1517.83> 1013 158<901.51 1253.51> 1325 204<778.834 1317.68>
VStem: 134 237<376.955 902.57> 519 214<471.006 833.33> 1254 186<771.894 995.154> 1254 134<415.094 545> 1643 230<545.924 1018.78>
DStem2: 1197.5 79.5 1252.5 -111 0.946186 0.323623<-177.057 190.415>
LayerCount: 2
Fore
SplineSet
1446 -19 m 1
 1341 -103 1177 -144 989 -144 c 0
 481 -144 134 126 134 628 c 0
 134 1170 503 1529 1049 1529 c 0
 1520 1529 1873 1268 1873 797 c 0
 1873 478 1723 247 1400 247 c 0
 1293 247 1254 314 1254 420 c 2
 1254 482 l 130
 1254 503 1255 524 1256 545 c 1
 1205 376 1114 239 895 239 c 0
 659 239 519 405 519 643 c 0
 519 950 758 1171 1065 1171 c 0
 1243 1171 1417 1140 1440 987 c 1
 1440 957 1439 931 1438 903 c 1
 1388 415 l 1
 1574 435 1643 557 1643 772 c 0
 1643 1147 1408 1325 1036 1325 c 0
 621 1325 371 1045 371 628 c 0
 371 235 623 52 1018 52 c 0
 1168 52 1269 100 1376 146 c 1
 1446 -19 l 1
1254 993 m 1
 1201 1002 1139 1013 1075 1013 c 0
 850 1013 733 851 733 622 c 0
 733 503 788 412 906 412 c 0
 1178 412 1236 733 1254 993 c 1
EndSplineSet
EndChar

StartChar: A
Encoding: 65 65 38
Width: 1513
GlyphClass: 2
Flags: HW
HStem: 0 21G<43 357.341 1155.6 1469> 369 147<509 1004> 1587 20G<564.429 943.621>
VStem: 43 308<0 308> 1162 307<0 307>
DStem2: 43 0 351 0 0.312146 0.950034<96.1409 483.225 635.678 1444.6> 937 1607 760 1285 0.314278 -0.949331<250.057 1056.78>
LayerCount: 2
Fore
SplineSet
937 1607 m 1
 1469 0 l 1
 1162 0 l 1
 1044 369 l 1
 468 369 l 1
 351 0 l 1
 43 0 l 1
 571 1607 l 1
 937 1607 l 1
509 516 m 1
 1004 516 l 1
 760 1285 l 1
 509 516 l 1
EndSplineSet
EndChar

StartChar: B
Encoding: 66 66 39
Width: 1441
GlyphClass: 2
Flags: HW
HStem: 0 202<462 949.393> 749 191<462 912.041> 1405 202<462 918.917>
VStem: 156 306<202 749 940 1405> 1023 268<1036.27 1318.16> 1060 298<299.163 641.752>
LayerCount: 2
Fore
SplineSet
1358 453 m 0
 1358 68 1044 0 656 0 c 2
 156 0 l 1
 156 1607 l 1
 558 1607 l 2
 917 1607 1291 1557 1291 1205 c 0
 1291 981 1149 883 949 859 c 1
 1192 827 1358 729 1358 453 c 0
1060 470 m 0
 1060 710 894 749 651 749 c 2
 462 749 l 1
 462 202 l 1
 625 202 l 2
 878 202 1060 220 1060 470 c 0
1023 1186 m 0
 1023 1387 826 1405 617 1405 c 2
 462 1405 l 1
 462 940 l 1
 651 940 l 2
 862 940 1023 980 1023 1186 c 0
EndSplineSet
EndChar

StartChar: C
Encoding: 67 67 40
Width: 1319
GlyphClass: 2
Flags: HW
HStem: -34 225<632.444 1056.96> 1411 225<632.853 1070.24>
VStem: 105 307<465.741 1133.85>
LayerCount: 2
Fore
SplineSet
823 1411 m 0
 494 1411 412 1126 412 790 c 0
 412 451 509 191 823 191 c 0
 970 191 1099 241 1186 302 c 1
 1270 86 l 1
 1174 7 978 -34 801 -34 c 0
 315 -34 105 305 105 796 c 0
 105 1279 321 1636 804 1636 c 0
 978 1636 1155 1603 1259 1531 c 1
 1179 1312 l 1
 1090 1370 970 1411 823 1411 c 0
EndSplineSet
EndChar

StartChar: D
Encoding: 68 68 41
Width: 1557
GlyphClass: 2
Flags: HW
HStem: 0 202<462 892.902> 1405 202<462 909.243>
VStem: 157 305<202 1405> 1142 310<485.149 1140.35>
LayerCount: 2
Fore
SplineSet
661 202 m 2
 1021 202 1142 439 1142 801 c 0
 1142 1173 1042 1405 671 1405 c 2
 462 1405 l 1
 462 202 l 1
 661 202 l 2
676 1607 m 2
 1204 1607 1452 1337 1452 801 c 0
 1452 281 1207 0 683 0 c 2
 157 0 l 1
 157 1607 l 1
 676 1607 l 2
EndSplineSet
EndChar

StartChar: E
Encoding: 69 69 42
Width: 1281
GlyphClass: 2
Flags: HW
HStem: 0 199<461 1216> 745 186<461 1110> 1405 202<461 1205>
VStem: 156 305<199 745 931 1405>
LayerCount: 2
Fore
SplineSet
156 0 m 1
 156 1607 l 1
 1205 1607 l 1
 1205 1405 l 1
 461 1405 l 1
 461 931 l 1
 1110 931 l 1
 1110 745 l 1
 461 745 l 1
 461 199 l 1
 1216 199 l 1
 1216 0 l 1
 156 0 l 1
EndSplineSet
EndChar

StartChar: F
Encoding: 70 70 43
Width: 1219
GlyphClass: 2
Flags: HW
HStem: 0 21G<156 461> 739 186<461 1114> 1405 202<461 1192>
VStem: 156 305<0 739 925 1405>
LayerCount: 2
Fore
SplineSet
461 0 m 1
 156 0 l 1
 156 1607 l 1
 1192 1607 l 1
 1192 1405 l 1
 461 1405 l 1
 461 925 l 1
 1114 925 l 1
 1114 739 l 1
 461 739 l 1
 461 0 l 1
EndSplineSet
EndChar

StartChar: G
Encoding: 71 71 44
Width: 1561
GlyphClass: 2
Flags: HW
HStem: -34 225<625.75 1026.27> 0 21G<1231.74 1420> 679 188<764 1150> 1411 225<654.11 1088.37>
VStem: 105 308<458.525 1117.22> 1150 270<281.141 679>
LayerCount: 2
Fore
SplineSet
804 191 m 0
 967 191 1101 233 1150 347 c 1
 1150 679 l 1
 764 679 l 1
 764 867 l 1
 1420 867 l 1
 1420 0 l 1
 1238 0 l 1
 1187 163 l 1
 1134 25 970 -34 777 -34 c 0
 307 -34 105 314 105 790 c 0
 105 1302 342 1636 850 1636 c 0
 1051 1636 1209 1587 1325 1504 c 1
 1233 1298 l 1
 1131 1357 1008 1411 850 1411 c 0
 527 1411 413 1145 413 791 c 0
 413 475 493 191 804 191 c 0
EndSplineSet
EndChar

StartChar: H
Encoding: 72 72 45
Width: 1601
GlyphClass: 2
Flags: HW
HStem: 0 21G<156 462 1139 1444> 741 185<462 1139> 1587 20G<156 462 1139 1444>
VStem: 156 306<0 741 926 1607> 1139 305<0 741 926 1607>
LayerCount: 2
Fore
SplineSet
1139 741 m 1
 462 741 l 1
 462 0 l 1
 156 0 l 1
 156 1607 l 1
 462 1607 l 1
 462 926 l 1
 1139 926 l 1
 1139 1607 l 1
 1444 1607 l 1
 1444 0 l 1
 1139 0 l 1
 1139 741 l 1
EndSplineSet
EndChar

StartChar: I
Encoding: 73 73 46
Width: 846
GlyphClass: 2
Flags: HW
HStem: 0 150<87 273 574 763> 1454 153<87 273 574 763>
VStem: 273 301<150 1454>
LayerCount: 2
Fore
SplineSet
273 150 m 1
 273 1454 l 1
 87 1454 l 1
 87 1607 l 1
 763 1607 l 1
 763 1454 l 1
 574 1454 l 1
 574 150 l 1
 763 150 l 1
 763 0 l 1
 87 0 l 1
 87 150 l 1
 273 150 l 1
EndSplineSet
EndChar

StartChar: J
Encoding: 74 74 47
Width: 826
GlyphClass: 2
Flags: HW
HStem: -89 198<111.352 205.724> 1587 20G<365 670>
VStem: 365 305<250.385 1607>
LayerCount: 2
Fore
SplineSet
39 109 m 1
 278 147 365 228 365 504 c 2
 365 1607 l 1
 670 1607 l 1
 670 519 l 2
 670 113 506 -69 117 -89 c 1
 39 109 l 1
EndSplineSet
EndChar

StartChar: K
Encoding: 75 75 48
Width: 1469
GlyphClass: 2
Flags: HW
HStem: 0 21G<156 462 1092.58 1450> 713 182<462 593> 1587 20G<156 462 1053.91 1389>
VStem: 156 306<0 713 895 1607> 1067 322<1285 1607> 1107 343<0 343>
DStem2: 843 809 593 713 0.600158 -0.799881<0 805.546>
LayerCount: 2
Fore
SplineSet
462 0 m 1
 156 0 l 1
 156 1607 l 1
 462 1607 l 1
 462 895 l 1
 601 895 l 1
 1067 1607 l 1
 1389 1607 l 1
 843 809 l 1
 1450 0 l 1
 1107 0 l 1
 593 713 l 1
 462 713 l 1
 462 0 l 1
EndSplineSet
EndChar

StartChar: L
Encoding: 76 76 49
Width: 1216
GlyphClass: 2
Flags: HW
HStem: 0 202<461 1181> 1587 20G<156 461>
VStem: 156 305<202 1607>
LayerCount: 2
Fore
SplineSet
156 0 m 1
 156 1607 l 1
 461 1607 l 1
 461 202 l 1
 1181 202 l 1
 1181 0 l 1
 156 0 l 1
EndSplineSet
EndChar

StartChar: M
Encoding: 77 77 50
Width: 1987
GlyphClass: 2
Flags: HW
HStem: 0 21G<156 423 842.206 1146.76 1564 1831> 1587 20G<156 563.792 1423.07 1831>
VStem: 156 267<0 1254> 1564 267<0 1254>
DStem2: 557 1607 423 1254 0.321582 -0.946882<291.157 1343.36> 989 335 1140 0 0.32757 0.944827<0 1056.65>
LayerCount: 2
Fore
SplineSet
423 1254 m 1
 423 0 l 1
 156 0 l 1
 156 1607 l 1
 557 1607 l 1
 989 335 l 1
 1430 1607 l 1
 1831 1607 l 1
 1831 0 l 1
 1564 0 l 1
 1564 1254 l 1
 1140 0 l 1
 849 0 l 1
 423 1254 l 1
EndSplineSet
EndChar

StartChar: N
Encoding: 78 78 51
Width: 1651
GlyphClass: 2
Flags: HW
HStem: 0 21G<156 436 1148.18 1495> 1587 20G<156 515.733 1215 1495>
VStem: 156 280<0 1225> 1215 280<395 1607>
DStem2: 504 1607 436 1225 0.5088 -0.860885<294.259 1405.15>
LayerCount: 2
Fore
SplineSet
1160 0 m 1
 436 1225 l 1
 436 0 l 1
 156 0 l 1
 156 1607 l 1
 504 1607 l 1
 1215 395 l 1
 1215 1607 l 1
 1495 1607 l 1
 1495 0 l 1
 1160 0 l 1
EndSplineSet
EndChar

StartChar: O
Encoding: 79 79 52
Width: 1611
GlyphClass: 2
Flags: HW
HStem: -35 227<620.29 989.003> 1411 224<622.018 989.934>
VStem: 104 309<455.373 1146.58> 1199 308<458.447 1143.76>
LayerCount: 2
Fore
SplineSet
805 1635 m 0
 1297 1635 1507 1305 1507 810 c 0
 1507 307 1310 -35 805 -35 c 0
 298 -35 104 312 104 819 c 0
 104 1309 318 1635 805 1635 c 0
808 1411 m 0
 486 1411 413 1126 413 798 c 0
 413 476 488 192 805 192 c 0
 1123 192 1199 474 1199 798 c 0
 1199 1123 1126 1411 808 1411 c 0
EndSplineSet
EndChar

StartChar: P
Encoding: 80 80 53
Width: 1391
GlyphClass: 2
Flags: HW
HStem: 0 21G<156 462> 597 194<462 867.974> 1405 202<462 885.657>
VStem: 156 306<0 597 791 1405> 1030 307<923.464 1272.27>
LayerCount: 2
Fore
SplineSet
598 1607 m 2
 1013 1607 1333 1506 1337 1095 c 1
 1337 677 993 597 568 597 c 2
 462 597 l 1
 462 0 l 1
 156 0 l 1
 156 1607 l 1
 598 1607 l 2
1030 1083 m 0
 1030 1349 861 1405 596 1405 c 2
 462 1405 l 1
 462 791 l 1
 559 791 l 2
 812 791 1030 834 1030 1083 c 0
EndSplineSet
EndChar

StartChar: Q
Encoding: 81 81 54
Width: 1618
GlyphClass: 2
Flags: HW
HStem: 1411 225<622.631 993.244>
VStem: 105 308<455.635 1143.92> 1205 308<459.269 1140.76>
LayerCount: 2
Fore
SplineSet
803 1636 m 0
 1305 1636 1513 1303 1513 797 c 0
 1513 358 1350 49 979 -18 c 1
 1309 -262 l 1
 1154 -429 l 1
 675 -24 l 1
 274 29 105 354 105 805 c 0
 105 1294 315 1636 803 1636 c 0
1205 801 m 256
 1205 1122 1129 1411 809 1411 c 0
 488 1411 413 1125 413 801 c 0
 413 476 487 191 809 191 c 0
 1130 191 1205 480 1205 801 c 256
EndSplineSet
EndChar

StartChar: R
Encoding: 82 82 55
Width: 1463
GlyphClass: 2
Flags: HW
HStem: 0 21G<156 462 1046 1349> 711 189<462 888.026> 1405 202<462 927.798>
VStem: 156 306<0 711 900 1405> 1046 303<0 593.844 1033.66 1297.42>
LayerCount: 2
Fore
SplineSet
1034 1168 m 0
 1034 1395 827 1405 598 1405 c 2
 462 1405 l 1
 462 900 l 1
 608 900 l 2
 839 900 1034 943 1034 1168 c 0
1343 1201 m 0
 1343 924 1158 813 889 805 c 1
 1151 776 1349 683 1349 395 c 2
 1349 0 l 1
 1046 0 l 1
 1046 416 l 2
 1046 675 865 711 606 711 c 2
 462 711 l 1
 462 0 l 1
 156 0 l 1
 156 1607 l 1
 601 1607 l 2
 980 1607 1343 1564 1343 1201 c 0
EndSplineSet
EndChar

StartChar: S
Encoding: 83 83 56
Width: 1325
GlyphClass: 2
Flags: HW
HStem: -34 230<395.318 876.45> 1411 225<452.387 940.818>
VStem: 85 287<1108.89 1337.38> 955 291<268.193 541.429>
DStem2: 301 273 284 35 0.945433 -0.325815<-106.916 367.316> 524 1047 413 778 0.929019 -0.370033<-164.834 561.11>
LayerCount: 2
Fore
SplineSet
686 1411 m 0
 522 1411 372 1381 372 1218 c 0
 372 1117 445 1075 524 1047 c 1
 869 915 l 2
 1067 839 1246 714 1246 443 c 0
 1246 106 1003 -34 658 -34 c 0
 443 -34 268 28 127 104 c 1
 182 323 l 1
 274 280 511 191 699 191 c 0
 841 191 955 242 955 402 c 0
 955 535 875 597 767 637 c 1
 413 778 l 1
 242 845 85 962 85 1196 c 0
 85 1504 342 1636 650 1636 c 0
 861 1636 1045 1580 1175 1503 c 1
 1111 1295 l 1
 1009 1356 848 1411 686 1411 c 0
EndSplineSet
EndChar

StartChar: T
Encoding: 84 84 57
Width: 1214
GlyphClass: 2
Flags: HW
HStem: 0 21G<455 761> 1405 202<19 455 761 1191>
VStem: 455 306<0 1405>
LayerCount: 2
Fore
SplineSet
761 1405 m 1
 761 0 l 1
 455 0 l 1
 455 1405 l 1
 19 1405 l 1
 19 1607 l 1
 1191 1607 l 1
 1191 1405 l 1
 761 1405 l 1
EndSplineSet
EndChar

StartChar: U
Encoding: 85 85 58
Width: 1589
GlyphClass: 2
Flags: HW
HStem: -34 225<598.186 991.717> 1587 20G<140 446 1140 1446>
VStem: 140 306<368.113 1607> 1140 306<371.666 1607>
LayerCount: 2
Fore
SplineSet
446 729 m 2
 446 417 483 191 793 191 c 0
 1109 191 1140 412 1140 729 c 2
 1140 1607 l 1
 1446 1607 l 1
 1446 733 l 2
 1446 253 1275 -34 797 -34 c 0
 312 -34 140 248 140 733 c 2
 140 1607 l 1
 446 1607 l 1
 446 729 l 2
EndSplineSet
EndChar

StartChar: V
Encoding: 86 86 59
Width: 1413
GlyphClass: 2
Flags: HW
HStem: 0 21G<538.752 874.248> 1587 20G<43 335.209 1075.91 1370>
VStem: 43 286<1321 1607> 1082 288<1319 1607>
DStem2: 329 1607 43 1607 0.298174 -0.954512<0 1281.63> 709 383 868 0 0.298174 0.954512<0 1279.54>
LayerCount: 2
Fore
SplineSet
709 383 m 1
 1082 1607 l 1
 1370 1607 l 1
 868 0 l 1
 545 0 l 1
 43 1607 l 1
 329 1607 l 1
 709 383 l 1
EndSplineSet
EndChar

StartChar: W
Encoding: 87 87 60
Width: 2028
GlyphClass: 2
Flags: HW
HStem: -2 21G<383.681 754.931 1257.31 1642.33> 1587 20G<41 339.997 833.144 1192.86 1686.99 1986>
VStem: 41 295<1312 1607> 1691 295<1312 1607>
DStem2: 336 1607 41 1607 0.211066 -0.977472<0 1301.08> 591 331 751 0 0.192871 0.981224<0 1069.68> 1189 1607 1014 1338 0.181275 -0.983433<232.82 1299.45> 1435 331 1638 -2 0.211396 0.977401<0 1301.28>
LayerCount: 2
Fore
SplineSet
1189 1607 m 1
 1435 331 l 1
 1691 1607 l 1
 1986 1607 l 1
 1638 -2 l 1
 1261 -2 l 1
 1014 1338 l 1
 751 0 l 1
 388 0 l 1
 41 1607 l 1
 336 1607 l 1
 591 331 l 1
 837 1607 l 1
 1189 1607 l 1
EndSplineSet
EndChar

StartChar: X
Encoding: 88 88 61
Width: 1374
GlyphClass: 2
Flags: HW
HStem: 0 21G<19 360.194 1013.81 1355> 1587 20G<20 347.18 1027.79 1354>
VStem: 19 329<0 329 1278 1607> 1026 329<0 329 1278 1607>
DStem2: 19 0 348 0 0.530615 0.847613<174.572 825.724 1226.64 1903.87> 335 1607 20 1607 0.535889 -0.844288<0 676.632 1075.98 1727.07>
LayerCount: 2
Fore
SplineSet
1040 1607 m 1
 1354 1607 l 1
 858 805 l 1
 1355 0 l 1
 1026 0 l 1
 687 556 l 1
 348 0 l 1
 19 0 l 1
 516 805 l 1
 20 1607 l 1
 335 1607 l 1
 687 1029 l 1
 1040 1607 l 1
EndSplineSet
EndChar

StartChar: Y
Encoding: 89 89 62
Width: 1291
GlyphClass: 2
Flags: HW
HStem: 0 21G<498 789> 1587 20G<-19 296.215 992.811 1310>
VStem: 498 291<0 514>
DStem2: 287 1607 -19 1607 0.427589 -0.903973<0 855.464> 645 830 789 514 0.430286 0.902693<0 855.004>
LayerCount: 2
Fore
SplineSet
1002 1607 m 1
 1310 1607 l 1
 789 514 l 1
 789 0 l 1
 498 0 l 1
 498 514 l 1
 -19 1607 l 1
 287 1607 l 1
 645 830 l 1
 1002 1607 l 1
EndSplineSet
EndChar

StartChar: Z
Encoding: 90 90 63
Width: 1250
GlyphClass: 2
Flags: HW
HStem: 0 202<412 1176> 1405 202<78 843>
DStem2: 78 214 412 202 0.535102 0.844787<168.587 1415.49>
LayerCount: 2
Fore
SplineSet
1174 1405 m 1
 412 202 l 1
 1176 202 l 1
 1176 0 l 1
 78 0 l 1
 78 214 l 1
 843 1405 l 1
 78 1405 l 1
 78 1607 l 1
 1174 1607 l 1
 1174 1405 l 1
EndSplineSet
EndChar

StartChar: bracketleft
Encoding: 91 91 64
Width: 1137
GlyphClass: 2
Flags: HW
HStem: 0 202<532 978> 1405 202<532 978>
VStem: 249 283<202 1405>
LayerCount: 2
Fore
SplineSet
978 1607 m 1
 978 1405 l 1
 532 1405 l 1
 532 202 l 1
 978 202 l 1
 978 0 l 1
 249 0 l 1
 249 1607 l 1
 978 1607 l 1
EndSplineSet
EndChar

StartChar: backslash
Encoding: 92 92 65
Width: 1142
GlyphClass: 2
Flags: HW
DStem2: 411 1733 149 1647 0.316228 -0.948683<0 1900.85>
LayerCount: 2
Fore
SplineSet
1013 -70 m 1
 751 -159 l 1
 149 1647 l 1
 411 1733 l 1
 1013 -70 l 1
EndSplineSet
EndChar

StartChar: bracketright
Encoding: 93 93 66
Width: 1161
GlyphClass: 2
Flags: HW
HStem: 0 202<206 651> 1405 202<206 651>
VStem: 651 284<202 1405>
LayerCount: 2
Fore
SplineSet
935 1607 m 1
 935 0 l 1
 206 0 l 1
 206 202 l 1
 651 202 l 1
 651 1405 l 1
 206 1405 l 1
 206 1607 l 1
 935 1607 l 1
EndSplineSet
EndChar

StartChar: asciicircum
Encoding: 94 94 67
Width: 1331
GlyphClass: 2
Flags: HW
HStem: 521 614
LayerCount: 2
Fore
SplineSet
763 1135 m 1
 1039 552 l 1
 819 521 l 1
 664 909 l 1
 510 521 l 1
 291 552 l 1
 568 1135 l 1
 763 1135 l 1
EndSplineSet
EndChar

StartChar: underscore
Encoding: 95 95 68
Width: 1204
GlyphClass: 2
Flags: HW
HStem: -105 220<92 1084>
LayerCount: 2
Fore
SplineSet
92 -105 m 1
 92 115 l 1
 1084 115 l 1
 1084 -105 l 1
 92 -105 l 1
EndSplineSet
EndChar

StartChar: grave
Encoding: 96 96 69
Width: 844
GlyphClass: 2
Flags: HW
VStem: 181 476
LayerCount: 2
Fore
SplineSet
181 776 m 1
 470 901 l 1
 657 275 l 1
 533 218 l 1
 181 776 l 1
EndSplineSet
EndChar

StartChar: a
Encoding: 97 97 70
Width: 1244
GlyphClass: 2
Flags: HW
HStem: -24 201<433.81 696.315> 0 21G<881.122 1110> 561 148<427.592 664.754 667.502 819> 574 161<444.629 750.5> 1016 199<365.443 762.544>
VStem: 85 293<232.469 511.833> 819 291<258.469 561 709 960.249>
LayerCount: 2
Fore
SplineSet
819 709 m 1
 819 897 806 1016 617 1016 c 0
 466 1016 340 971 239 912 c 1
 160 1094 l 1
 285 1168 425 1215 624 1215 c 0
 993 1215 1110 1035 1110 666 c 2
 1110 0 l 1
 886 0 l 1
 846 164 l 1
 769 47 672 -24 494 -24 c 0
 239 -24 85 106 85 360 c 0
 85 615 280 725 528 735 c 1
 634 735 741 724 819 709 c 1
378 382 m 0
 378 248 441 177 569 177 c 0
 683 177 757 233 819 300 c 1
 819 561 l 1
 799 561 772 566 750 568 c 130
 706 572 l 130
 691 573 678 574 667 574 c 0
 502 574 378 545 378 382 c 0
EndSplineSet
EndChar

StartChar: b
Encoding: 98 98 71
Width: 1325
GlyphClass: 2
Flags: HW
HStem: -24 201<565.381 842.169> 0 21G<154 367.667> 1016 199<583.108 861.319> 1692 20G<313.273 446>
VStem: 154 292<252.022 926.015 1067 1668> 953 283<314.125 903.297>
LayerCount: 2
Fore
SplineSet
446 292 m 1
 515 223 591 177 713 177 c 0
 910 177 953 376 953 608 c 0
 953 815 929 1016 732 1016 c 0
 607 1016 524 960 446 890 c 1
 446 292 l 1
1248 616 m 0
 1248 270 1113 -24 759 -24 c 0
 589 -24 479 56 419 174 c 1
 361 0 l 1
 154 0 l 1
 154 1668 l 1
 446 1712 l 1
 446 1067 l 1
 521 1149 633 1215 773 1215 c 0
 1092 1215 1248 933 1248 616 c 0
EndSplineSet
EndChar

StartChar: c
Encoding: 99 99 72
Width: 1104
GlyphClass: 2
Flags: HW
HStem: -24 201<523.848 885.85> 1016 199<523.726 883.025>
VStem: 85 294<342.081 849.154>
LayerCount: 2
Fore
SplineSet
1041 91 m 1
 945 22 821 -24 653 -24 c 0
 281 -24 85 217 85 585 c 0
 85 949 291 1215 656 1215 c 0
 822 1215 946 1174 1041 1105 c 1
 978 912 l 1
 909 969 810 1016 686 1016 c 1
 450 1005 379 840 379 591 c 0
 379 348 465 177 691 177 c 0
 822 177 905 225 978 283 c 1
 1041 91 l 1
EndSplineSet
EndChar

StartChar: d
Encoding: 100 100 73
Width: 1323
GlyphClass: 2
Flags: HW
HStem: -24 201<485.041 746.786> 0 21G<960.333 1176> 1016 199<470.735 747.075> 1692 20G<1043.27 1176>
VStem: 85 290<314.015 894.552> 884 292<248.647 923.906 1057 1668>
LayerCount: 2
Fore
SplineSet
597 1016 m 0
 398 1016 375 801 375 596 c 0
 375 383 415 177 619 177 c 0
 737 177 827 224 884 293 c 1
 884 890 l 1
 806 953 720 1016 597 1016 c 0
85 629 m 0
 85 937 237 1215 541 1215 c 0
 702 1215 808 1153 884 1057 c 1
 884 1668 l 1
 1176 1712 l 1
 1176 0 l 1
 967 0 l 1
 909 174 l 1
 853 65 726 -24 565 -24 c 0
 208 -24 85 271 85 629 c 0
EndSplineSet
EndChar

StartChar: e
Encoding: 101 101 74
Width: 1203
GlyphClass: 2
Flags: HW
HStem: -24 201<521.18 901.777> 537 153<384 877> 1016 199<506.777 780.365>
VStem: 85 299<322.756 537 690 855.63> 877 243<690 911.579>
LayerCount: 2
Fore
SplineSet
693 177 m 0
 829 177 914 218 997 281 c 1
 1063 84 l 1
 961 23 826 -24 670 -24 c 0
 299 -24 85 198 85 568 c 0
 85 944 264 1215 638 1215 c 0
 957 1215 1120 1005 1120 685 c 0
 1120 634 1119 585 1117 537 c 1
 384 537 l 1
 386 316 482 177 693 177 c 0
877 704 m 2
 877 887 812 1013 645 1016 c 1
 466 1010 391 867 383 690 c 1
 877 690 l 1
 877 704 l 2
EndSplineSet
EndChar

StartChar: f
Encoding: 102 102 75
Width: 854
GlyphClass: 2
Flags: HW
HStem: 0 21G<219 512> 1053 132<24 219 512 824> 1494 217<558.643 824.247>
VStem: 219 293<0 1053 1185 1448.42>
LayerCount: 2
Fore
SplineSet
820 1453 m 1
 774 1470 716 1494 656 1494 c 0
 513 1494 512 1338 512 1191 c 2
 512 1185 l 1
 824 1185 l 1
 824 1053 l 1
 512 1053 l 1
 512 0 l 1
 219 0 l 1
 219 1053 l 1
 24 1053 l 1
 24 1185 l 1
 219 1185 l 1
 219 1501 304 1711 597 1711 c 0
 697 1711 777 1691 845 1661 c 1
 820 1453 l 1
EndSplineSet
EndChar

StartChar: g
Encoding: 103 103 76
Width: 1280
GlyphClass: 2
Flags: HW
HStem: -516 217<379.108 894.361> 1018 197<462.007 796.864 1018.55 1266>
VStem: 98 236<-252.994 -23.5132> 133 234<304.893 407.879> 152 257<679.744 964.775> 845 245<694.39 969.692> 967 254<-234.039 -8.96826>
LayerCount: 2
Fore
SplineSet
478 69 m 1
 406 30 332 -52 332 -159 c 0
 332 -266 451 -299 582 -299 c 0
 779 -299 967 -298 967 -110 c 0
 967 89 675 57 478 69 c 1
631 1018 m 0
 489 1018 409 971 409 828 c 0
 409 717 467 640 541 602 c 1
 663 615 l 1
 773 633 845 712 845 841 c 0
 845 975 769 1018 631 1018 c 0
910 1148 m 1
 999 1190 1089 1207 1222 1207 c 2
 1266 1207 l 1
 1266 1008 l 1
 1018 1008 l 1
 1054 962 1090 916 1090 849 c 0
 1090 595 928 478 695 449 c 1
 367 406 l 1
 386 272 l 1
 667 260 l 1
 965 245 1221 188 1221 -117 c 0
 1221 -448 920 -516 582 -516 c 0
 299 -516 98 -443 98 -164 c 0
 98 -21 204 59 303 106 c 1
 175 124 140 214 133 356 c 1
 133 502 255 528 374 556 c 1
 240 573 152 678 152 831 c 0
 152 1093 348 1215 613 1215 c 0
 737 1215 838 1197 910 1148 c 1
EndSplineSet
EndChar

StartChar: h
Encoding: 104 104 77
Width: 1350
GlyphClass: 2
Flags: HW
HStem: 0 21G<154 446 922 1214> 1016 199<593.125 849.995> 1694 20G<333.692 446>
VStem: 154 292<0 941.624 1049 1662> 922 292<0 934.645>
LayerCount: 2
Fore
SplineSet
729 1016 m 0
 596 1016 511 967 446 902 c 1
 446 0 l 1
 154 0 l 1
 154 1662 l 1
 446 1714 l 1
 446 1049 l 1
 532 1150 628 1215 796 1215 c 0
 1108 1215 1214 1008 1214 696 c 2
 1214 0 l 1
 922 0 l 1
 922 711 l 2
 922 882 883 1016 729 1016 c 0
EndSplineSet
EndChar

StartChar: i
Encoding: 105 105 78
Width: 649
GlyphClass: 2
Flags: HW
HStem: 0 21G<179 468> 1165 20G<179 468> 1412 332<212.625 437.658>
VStem: 161 329<1464.78 1691.94> 179 289<0 1185 1445.81 1708.63>
LayerCount: 2
Fore
SplineSet
179 0 m 1
 179 1185 l 1
 468 1185 l 1
 468 0 l 1
 179 0 l 1
325 1412 m 0
 228 1412 161 1481 161 1578 c 0
 161 1672 230 1744 325 1744 c 256
 420 1744 490 1673 490 1578 c 0
 490 1483 419 1412 325 1412 c 0
EndSplineSet
EndChar

StartChar: j
Encoding: 106 106 79
Width: 656
GlyphClass: 2
Flags: HW
HStem: 1165 20G<206 500> 1410 332<240.391 462.781>
VStem: 191 322<1460.21 1691.37> 206 294<-6.23535 1185>
LayerCount: 2
Fore
SplineSet
352 1410 m 0
 256 1410 191 1480 191 1576 c 0
 191 1672 257 1742 352 1742 c 256
 446 1742 513 1670 513 1576 c 0
 513 1481 447 1410 352 1410 c 0
2 -173 m 1
 149 -83 206 36 206 274 c 2
 206 1185 l 1
 500 1185 l 1
 500 187 l 2
 500 -107 328 -310 89 -364 c 1
 2 -173 l 1
EndSplineSet
EndChar

StartChar: k
Encoding: 107 107 80
Width: 1322
GlyphClass: 2
Flags: HW
HStem: 0 21G<154 446 938.726 1287> 1165 20G<921.29 1267> 1693 20G<316.222 446>
VStem: 154 292<0 436 706 1668> 942 325<860 1185> 954 333<0 333>
DStem2: 446 706 729 660 0.715701 0.698407<170.417 689.525>
LayerCount: 2
Fore
SplineSet
446 0 m 1
 154 0 l 1
 154 1668 l 1
 446 1713 l 1
 446 706 l 1
 942 1185 l 1
 1267 1185 l 1
 729 660 l 1
 1287 0 l 1
 954 0 l 1
 550 529 l 1
 446 436 l 1
 446 0 l 1
EndSplineSet
EndChar

StartChar: l
Encoding: 108 108 81
Width: 621
GlyphClass: 2
Flags: HW
HStem: 0 21G<163 457> 1692 20G<323.364 457>
VStem: 163 294<0 1668>
LayerCount: 2
Fore
SplineSet
457 0 m 1
 163 0 l 1
 163 1668 l 1
 457 1712 l 1
 457 0 l 1
EndSplineSet
EndChar

StartChar: m
Encoding: 109 109 82
Width: 1985
GlyphClass: 2
Flags: HW
HStem: 0 21G<154 446 853 1145 1556 1849> 1009 206<583.864 811.799> 1165 20G<154 369.114>
VStem: 154 292<0 905.642> 853 292<0 917.536> 1556 293<0 944.878>
LayerCount: 2
Fore
SplineSet
698 1011 m 0
 582 1011 505 929 446 858 c 1
 446 0 l 1
 154 0 l 1
 154 1185 l 1
 363 1185 l 1
 422 992 l 1
 485 1126 592 1215 775 1215 c 0
 945 1215 1044 1142 1096 1019 c 1
 1177 1136 1295 1215 1484 1215 c 0
 1740 1215 1849 1031 1849 773 c 2
 1849 0 l 1
 1556 0 l 1
 1556 790 l 2
 1556 918 1522 1014 1409 1014 c 0
 1285 1014 1216 948 1145 876 c 1
 1145 0 l 1
 853 0 l 1
 853 797 l 2
 853 929 823 1011 698 1011 c 0
EndSplineSet
EndChar

StartChar: n
Encoding: 110 110 83
Width: 1332
GlyphClass: 2
Flags: HW
HStem: 0 21G<154 446 903 1196> 1016 199<596.306 843.553> 1165 20G<154 380.071>
VStem: 154 292<0 926.495> 903 293<0 951.827>
LayerCount: 2
Fore
SplineSet
715 1016 m 0xd8
 601 1016 495 948 446 881 c 1
 446 0 l 1
 154 0 l 1
 154 1185 l 1
 374 1185 l 1xb8
 425 1017 l 1
 491 1126 617 1215 788 1215 c 0
 1087 1215 1196 1037 1196 737 c 2
 1196 0 l 1
 903 0 l 1
 903 752 l 2
 903 914 865 1016 715 1016 c 0xd8
EndSplineSet
EndChar

StartChar: o
Encoding: 111 111 84
Width: 1299
GlyphClass: 2
Flags: HW
HStem: -31 199<503.505 800.04> 1010 200<504.151 799.568>
VStem: 86 290<318.639 857.805> 926 287<318.436 857.94>
LayerCount: 2
Fore
SplineSet
376 588 m 0
 376 368 430 168 651 168 c 0
 872 168 926 365 926 588 c 0
 926 811 872 1010 651 1010 c 256
 431 1010 376 810 376 588 c 0
650 1210 m 256
 1030 1210 1213 965 1213 587 c 0
 1213 210 1029 -31 650 -31 c 256
 271 -31 86 211 86 587 c 0
 86 965 270 1210 650 1210 c 256
EndSplineSet
EndChar

StartChar: p
Encoding: 112 112 85
Width: 1332
GlyphClass: 2
Flags: HW
HStem: -446 21G<154 446> -24 201<582.228 851.293> 1016 199<579.415 854.964> 1165 20G<154 381.243>
VStem: 154 292<-437 140 275.456 925.896> 956 291<309.577 884.647>
LayerCount: 2
Fore
SplineSet
956 577 m 0
 956 782 933 1016 736 1016 c 0
 615 1016 511 953 446 886 c 1
 446 314 l 1
 514 250 616 177 730 177 c 0
 917 177 956 389 956 577 c 0
1247 586 m 0
 1247 246 1093 -24 756 -24 c 0
 615 -24 511 53 446 140 c 1
 446 -437 l 1
 154 -446 l 1
 154 1185 l 1
 375 1185 l 1
 429 1012 l 1
 487 1128 599 1215 768 1215 c 0
 1116 1215 1247 955 1247 586 c 0
EndSplineSet
EndChar

StartChar: q
Encoding: 113 113 86
Width: 1323
GlyphClass: 2
Flags: HW
HStem: -452 21G<884 1176> -24 201<476.567 741.521> 1016 199<483.091 742.228> 1165 20G<930.114 1176>
VStem: 85 289<302.011 881.42> 884 292<-442 141 270.125 918.805>
LayerCount: 2
Fore
SplineSet
374 588 m 0
 374 386 405 177 605 177 c 0
 724 177 821 247 884 308 c 1
 884 870 l 1
 822 949 737 1016 614 1016 c 0
 406 1016 374 798 374 588 c 0
85 586 m 0
 85 950 210 1215 572 1215 c 0
 729 1215 831 1124 892 1009 c 1
 935 1185 l 1
 1176 1185 l 1
 1176 -442 l 1
 884 -452 l 1
 884 141 l 1
 812 55 712 -24 566 -24 c 0
 227 -24 85 247 85 586 c 0
EndSplineSet
EndChar

StartChar: r
Encoding: 114 114 87
Width: 852
GlyphClass: 2
Flags: HW
HStem: 0 21G<154 446> 956 234<572.286 819>
VStem: 154 292<0 874.267>
LayerCount: 2
Fore
SplineSet
708 956 m 0
 598 956 512 896 446 840 c 1
 446 0 l 1
 154 0 l 1
 154 1185 l 1
 397 1185 l 1
 433 994 l 1
 498 1101 584 1190 748 1190 c 128
 771 1190 795 1189 819 1188 c 1
 819 944 l 1
 793 955 747 956 708 956 c 0
EndSplineSet
EndChar

StartChar: s
Encoding: 115 115 88
Width: 1070
GlyphClass: 2
Flags: HW
HStem: -24 201<300.005 677.632> 1016 199<396.421 776.073>
VStem: 91 259<805.406 978.76> 721 271<220.781 417.166>
DStem2: 471 769 345 560 0.932829 -0.36032<-143.314 369.68>
LayerCount: 2
Fore
SplineSet
522 177 m 0
 638 177 721 216 721 332 c 0
 721 411 645 445 578 470 c 2
 345 560 l 1
 204 611 91 693 91 886 c 0
 91 1118 298 1215 534 1215 c 0
 686 1215 868 1176 957 1109 c 1
 891 921 l 1
 819 975 666 1016 545 1016 c 0
 433 1016 350 982 350 886 c 0
 350 811 415 791 471 769 c 1
 663 698 l 2
 823 638 992 558 992 345 c 0
 992 90 793 -24 536 -24 c 0
 369 -24 192 19 97 90 c 1
 163 281 l 1
 235 225 400 177 522 177 c 0
EndSplineSet
EndChar

StartChar: t
Encoding: 116 116 89
Width: 919
GlyphClass: 2
Flags: HW
HStem: -24 201<539.049 759.746> 1054 131<16 219 510 845> 1647 20G<431.714 510>
VStem: 219 291<228.575 1054 1185 1532.44> 236 274<1185 1597>
LayerCount: 2
Fore
SplineSet
889 72 m 1
 805 19 692 -24 553 -24 c 0
 281 -24 219 178 219 455 c 2
 219 1054 l 1
 16 1054 l 1
 16 1185 l 1
 226 1185 l 1
 236 1597 l 1
 510 1667 l 1
 510 1185 l 1
 845 1185 l 1
 845 1054 l 1
 510 1054 l 1
 510 377 l 2
 510 264 526 177 628 177 c 0
 697 177 758 219 812 251 c 1
 889 72 l 1
EndSplineSet
EndChar

StartChar: u
Encoding: 117 117 90
Width: 1311
GlyphClass: 2
Flags: HW
HStem: 0 21G<459.5 596 942.556 1159> 1165 20G<134 424 866 1159>
VStem: 134 290<270.526 1185> 866 293<257.727 1185>
LayerCount: 2
Fore
SplineSet
609 184 m 0
 727 184 800 232 866 297 c 1
 866 1185 l 1
 1159 1185 l 1
 1159 0 l 1
 949 0 l 1
 891 180 l 1
 840 64 733 -24 567 -24 c 0
 266 -24 134 143 134 454 c 2
 134 1185 l 1
 424 1185 l 1
 424 438 l 2
 424 288 464 184 609 184 c 0
EndSplineSet
EndChar

StartChar: v
Encoding: 118 118 91
Width: 1178
GlyphClass: 2
Flags: HW
HStem: 0 21G<414.232 763.802> 1165 20G<20 328.832 848.276 1160>
VStem: 20 303<882 1185> 854 306<879 1185>
LayerCount: 2
Fore
SplineSet
421 0 m 1
 20 1185 l 1
 323 1185 l 1
 591 266 l 1
 854 1185 l 1
 1160 1185 l 1
 757 0 l 1
 421 0 l 1
EndSplineSet
EndChar

StartChar: w
Encoding: 119 119 92
Width: 1634
GlyphClass: 2
Flags: HW
HStem: 0 21G<327.717 623.702 1010.25 1308.28> 1165 20G<20 299.105 678.587 958.325 1340.74 1616>
VStem: 1345 271<914 1185>
DStem2: 482 274 619 0 0.215455 0.976514<0 622.716> 954 1185 816 838 0.21136 -0.977408<309.993 932.057>
LayerCount: 2
Fore
SplineSet
816 838 m 1
 619 0 l 1
 333 0 l 1
 20 1185 l 1
 295 1185 l 1
 482 274 l 1
 683 1185 l 1
 954 1185 l 1
 1151 274 l 1
 1345 1185 l 1
 1616 1185 l 1
 1303 0 l 1
 1015 0 l 1
 816 838 l 1
EndSplineSet
EndChar

StartChar: x
Encoding: 120 120 93
Width: 1179
GlyphClass: 2
Flags: HW
HStem: 0 21G<39 373.436 811.614 1141> 1165 20G<32 373.877 812.123 1148>
LayerCount: 2
Fore
SplineSet
362 0 m 1
 39 0 l 1
 446 595 l 1
 32 1185 l 1
 362 1185 l 1
 593 796 l 1
 824 1185 l 1
 1148 1185 l 1
 741 595 l 1
 1141 0 l 1
 823 0 l 1
 593 404 l 1
 362 0 l 1
EndSplineSet
EndChar

StartChar: y
Encoding: 121 121 94
Width: 1181
GlyphClass: 2
Flags: HW
HStem: -473 197<226 318.07> 1165 20G<20 322.307 860.403 1163>
LayerCount: 2
Fore
SplineSet
20 1185 m 1
 315 1185 l 1
 627 331 l 1
 866 1185 l 1
 1163 1185 l 1
 744 -35 l 2
 664 -267 522 -473 226 -473 c 1
 145 -276 l 1
 364 -249 445 -157 499 36 c 1
 20 1185 l 1
EndSplineSet
EndChar

StartChar: z
Encoding: 122 122 95
Width: 1061
GlyphClass: 2
Flags: HW
HStem: 0 199<407 962> 986 199<120 664>
DStem2: 101 210 407 199 0.587241 0.809412<170.792 958.721>
LayerCount: 2
Fore
SplineSet
120 986 m 1
 120 1185 l 1
 955 1185 l 1
 955 977 l 1
 407 199 l 1
 962 199 l 1
 962 0 l 1
 101 0 l 1
 101 210 l 1
 664 986 l 1
 120 986 l 1
EndSplineSet
EndChar

StartChar: braceleft
Encoding: 123 123 96
Width: 856
GlyphClass: 2
Flags: HW
HStem: -213 184<610.191 725> 568 192<127 228.223> 1357 185<610.191 725>
VStem: 127 598
DStem2: 549.5 428 283 324 0.10537 -0.994433<-143.497 447.867>
LayerCount: 2
Fore
SplineSet
725 1357 m 1
 566 1357 562 1215 562 1045 c 1
 560 841 507 709 353 664 c 1
 506 614 561 485 563 283 c 1
 563 114 566 -29 725 -29 c 1
 725 -213 l 1
 376 -213 317 0 283 324 c 1
 274 449 255 568 127 568 c 1
 127 760 l 1
 341 760 271 1187 347 1338 c 128
 413 1471 531 1542 725 1542 c 1
 725 1357 l 1
EndSplineSet
EndChar

StartChar: bar
Encoding: 124 124 97
Width: 752
GlyphClass: 2
Flags: HW
HStem: 1689 20G<246 507>
VStem: 246 261<-135 1709>
LayerCount: 2
Fore
SplineSet
246 1709 m 1
 507 1709 l 1
 507 -135 l 1
 246 -135 l 1
 246 1709 l 1
EndSplineSet
EndChar

StartChar: braceright
Encoding: 125 125 98
Width: 858
GlyphClass: 2
Flags: HW
HStem: -213 184<149 264.067> 569 192<645.41 746> 1358 185<149 263.809>
VStem: 149 597
LayerCount: 2
Fore
SplineSet
521 665 m 1
 365 711 313 841 311 1046 c 1
 311 1208 309 1358 149 1358 c 1
 149 1543 l 1
 497 1543 557 1329 591 1006 c 1
 600 882 618 761 746 761 c 1
 746 569 l 1
 532 569 601 143 526 -8 c 128
 460 -141 343 -213 149 -213 c 1
 149 -29 l 1
 385 -29 280 387 362 538 c 128
 395 599 448 642 521 665 c 1
EndSplineSet
EndChar

StartChar: asciitilde
Encoding: 126 126 99
Width: 1106
GlyphClass: 2
Flags: HW
HStem: 286 193<611.181 790.123> 427 190<350.563 510.121>
VStem: 146 192<304 399.146> 798 199<508.396 587>
DStem2: 568.5 548 484 396.5 0.880349 -0.474326<-89.6228 182.523>
LayerCount: 2
Fore
SplineSet
997 587 m 1
 997 426 933 286 775 286 c 0
 629 286 543 375 438 418 c 128
 424 424 412 427 401 427 c 0
 343 427 338 374 338 304 c 1
 146 304 l 1
 146 489 204 617 371 617 c 0
 530 617 594 479 740 479 c 0
 795 479 798 528 798 587 c 1
 997 587 l 1
EndSplineSet
EndChar

StartChar: exclamdown
Encoding: 161 161 101
Width: 806
GlyphClass: 2
Flags: HW
HStem: -1 21G<249 578> 1264 320<302.292 538.288>
VStem: 260 318<1301.65 1544.28> 318 194<895.014 1130>
LayerCount: 2
Fore
SplineSet
578 -1 m 1
 249 -1 l 1
 318 1130 l 1
 512 1130 l 1
 578 -1 l 1
427 1264 m 0
 317 1264 260 1304 260 1415 c 0
 260 1535 310 1584 427 1584 c 0
 535 1584 578 1522 578 1415 c 0
 578 1313 528 1264 427 1264 c 0
EndSplineSet
EndChar

StartChar: cent
Encoding: 162 162 102
Width: 1133
GlyphClass: 2
Flags: HW
HStem: -17 215<527.375 630 771 938.713> 997 211<523.625 630 771 926.491>
VStem: 105 294<345.402 852.759> 630 141<-154 -13.4316 198 996 1204.02 1382>
LayerCount: 2
Fore
SplineSet
630 997 m 1
 452 966 399 802 399 594 c 0
 399 383 461 232 630 198 c 1
 630 997 l 1
1056 81 m 1
 984 42 881 -11 771 -11 c 1
 771 -154 l 1
 630 -154 l 1
 630 -17 l 1
 293 0 105 237 105 594 c 256
 105 945 301 1190 630 1208 c 1
 630 1382 l 1
 771 1382 l 1
 771 1202 l 1
 884 1189 979 1150 1061 1102 c 1
 998 910 l 1
 947 951 856 986 771 996 c 1
 771 192 l 1
 860 195 937 241 997 273 c 1
 1056 81 l 1
EndSplineSet
EndChar

StartChar: sterling
Encoding: 163 163 103
Width: 1195
GlyphClass: 2
Flags: HW
HStem: 0 199<447 1058> 595 133<188 320 584 994> 1128 218<531.499 899.75>
VStem: 205 272<817.097 1076.11> 345 239<375.288 595>
LayerCount: 2
Fore
SplineSet
584 595 m 1
 584 422 514 299 447 199 c 1
 1058 199 l 1
 1058 0 l 1
 201 0 l 1
 201 193 l 1
 276 280 345 436 345 595 c 1
 188 595 l 1
 188 724 l 1
 320 724 l 1
 260 779 205 872 205 988 c 0
 205 1246 415 1346 678 1346 c 0
 853 1346 984 1294 1088 1227 c 1
 991 1035 l 1
 914 1082 821 1128 697 1128 c 0
 563 1128 477 1082 477 953 c 0
 477 848 524 789 573 728 c 1
 994 728 l 1
 994 595 l 1
 584 595 l 1
EndSplineSet
EndChar

StartChar: currency
Encoding: 164 164 104
Width: 1409
GlyphClass: 2
Flags: HW
HStem: 557 165<556.868 847.595> 1278 167<571.786 863.382>
VStem: 266 166<847.446 1138.6> 988 166<862.241 1153.64>
DStem2: 271 1567 142 1438 0.707107 -0.707107<0 295.912 1125.34 1433.31> 142 554 271 424 0.707107 0.707107<0 286.888 1149.25 1433.31>
LayerCount: 2
Fore
SplineSet
696 557 m 0
 602 557 530 582 469 621 c 1
 271 424 l 1
 142 554 l 1
 337 749 l 1
 290 822 266 901 266 986 c 0
 266 1075 292 1158 344 1236 c 1
 142 1438 l 1
 271 1567 l 1
 474 1365 l 1
 551 1418 635 1445 726 1445 c 0
 811 1445 890 1422 962 1375 c 1
 1156 1567 l 1
 1285 1438 l 1
 1090 1243 l 1
 1133 1176 1154 1100 1154 1016 c 0
 1154 926 1127 842 1074 765 c 1
 1285 554 l 1
 1156 424 l 1
 944 636 l 1
 866 583 783 557 696 557 c 0
988 1008 m 0
 988 1159 870 1278 719 1278 c 0
 561 1278 432 1150 432 992 c 256
 432 838 552 722 706 722 c 0
 860 722 988 853 988 1008 c 0
EndSplineSet
EndChar

StartChar: yen
Encoding: 165 165 105
Width: 1300
GlyphClass: 2
Flags: HW
HStem: 0 816<104 1210> 404 114<190 510 804 1121> 636 116<190 421 891 1121> 1586 20G<-9 310.937 999.063 1324>
VStem: 512 290<0 404>
LayerCount: 2
Fore
SplineSet
1008 1606 m 1
 1324 1606 l 1
 891 752 l 1
 1121 752 l 1
 1121 636 l 1
 842 636 l 1
 804 518 l 1
 1121 518 l 1
 1121 404 l 1
 802 404 l 1
 802 0 l 1
 512 0 l 1
 512 404 l 1
 190 404 l 1
 190 518 l 1
 510 518 l 1
 473 636 l 1
 190 636 l 1
 190 752 l 1
 421 752 l 1
 -9 1606 l 1
 302 1606 l 1
 655 816 l 1
 1008 1606 l 1
EndSplineSet
EndChar

StartChar: brokenbar
Encoding: 166 166 106
Width: 722
GlyphClass: 2
Flags: HW
VStem: 239 266<-91 646 925 1662>
LayerCount: 2
Fore
SplineSet
239 1662 m 1
 505 1662 l 1
 505 925 l 1
 239 925 l 1
 239 1662 l 1
239 646 m 1
 505 646 l 1
 505 -91 l 1
 239 -91 l 1
 239 646 l 1
EndSplineSet
EndChar

StartChar: section
Encoding: 167 167 107
Width: 1171
GlyphClass: 2
Flags: HW
HStem: -107 206<379.792 736.319> 1397 206<401.897 769.465>
VStem: 157 219<673.848 855.115 1213.72 1367.2> 789 234<143.696 344.158 670.93 858.403>
LayerCount: 2
Fore
SplineSet
376 764 m 0
 376 662 467 640 584 640 c 0
 690 640 796 658 796 762 c 0
 796 868 704 889 584 889 c 0
 473 889 376 870 376 764 c 0
157 1306 m 0
 157 1514 359 1603 574 1603 c 0
 725 1603 899 1539 978 1460 c 1
 898 1281 l 1
 827 1336 706 1397 582 1397 c 0
 473 1397 378 1384 378 1282 c 0
 378 1223 439 1199 486 1181 c 1
 546 1156 608 1136 674 1112 c 0
 849 1050 1021 986 1021 761 c 0
 1021 619 924 547 808 521 c 1
 935 472 1023 387 1023 216 c 0
 1023 -21 815 -107 578 -107 c 0
 417 -107 248 -40 159 34 c 1
 243 223 l 1
 301 165 442 99 554 99 c 0
 684 99 789 126 789 243 c 0
 789 349 706 370 625 398 c 2
 463 454 l 1
 300 509 157 564 157 775 c 0
 157 917 252 995 376 1019 c 1
 247 1064 157 1135 157 1306 c 0
EndSplineSet
EndChar

StartChar: dieresis
Encoding: 168 168 108
Width: 1151
GlyphClass: 2
Flags: HW
HStem: 261 306<147.733 400.228 757.454 1009.25>
VStem: 109 330<299.344 528.656> 719 330<300.064 527.936>
LayerCount: 2
Fore
SplineSet
273 248 m 0
 176 248 109 317 109 414 c 256
 109 510 177 580 273 580 c 256
 369 580 439 510 439 414 c 0
 439 318 369 248 273 248 c 0
883 248 m 0
 785 248 719 317 719 414 c 256
 719 510 787 580 883 580 c 256
 978 580 1049 509 1049 414 c 0
 1049 319 978 248 883 248 c 0
EndSplineSet
EndChar

StartChar: copyright
Encoding: 169 169 109
Width: 2126
GlyphClass: 2
Flags: HW
HStem: -91 194<796.929 1319.02> 301 180<913.229 1295.73> 1152 181<917.343 1307.2> 1532 195<828.207 1307.48>
VStem: 149 218<545.328 1070.95> 597 211<592.913 1036.05> 1769 217<555.97 1070.71>
LayerCount: 2
Fore
SplineSet
367 815 m 0
 367 394 633 103 1056 103 c 256
 1480 103 1769 394 1769 815 c 0
 1769 1229 1475 1532 1068 1532 c 0
 657 1532 367 1224 367 815 c 0
1087 1152 m 0
 880 1152 808 1024 808 817 c 0
 808 600 879 481 1092 481 c 0
 1216 481 1304 525 1393 570 c 1
 1393 385 l 1
 1301 339 1219 301 1105 301 c 0
 769 301 597 491 597 823 c 0
 597 1143 772 1333 1095 1333 c 0
 1210 1333 1310 1293 1388 1252 c 1
 1388 1071 l 1
 1298 1117 1205 1152 1087 1152 c 0
1061 -91 m 0
 522 -91 149 284 149 818 c 256
 149 1356 538 1727 1068 1727 c 0
 1599 1727 1986 1345 1986 818 c 0
 1986 276 1596 -91 1061 -91 c 0
EndSplineSet
EndChar

StartChar: ordfeminine
Encoding: 170 170 110
Width: 1246
GlyphClass: 2
Flags: HW
HStem: 446 129<270 954> 668 113<407.339 701.412> 1158 100<435.062 797.408> 1513 125<375.453 752.234>
VStem: 206 161<821.783 1093.22> 799 161<855.555 1147.53 1218 1465.58> 844 116<686 761.397>
LayerCount: 2
Fore
SplineSet
263 1552 m 1
 350 1552 468 1638 599 1638 c 0
 874 1638 960 1511 960 1235 c 2
 960 686 l 1
 844 686 l 1
 817 828 l 1
 813 828 767 762 752 748 c 128
 701 703 625 668 523 668 c 0
 329 668 206 767 206 960 c 0
 206 1164 359 1258 565 1258 c 0
 625 1258 776 1253 799 1218 c 1
 799 1276 l 2
 799 1434 766 1513 607 1513 c 0
 505 1513 408 1486 340 1454 c 128
 324 1447 317 1443 316 1443 c 2
 263 1552 l 1
367 971 m 0
 367 831 421 781 561 781 c 256
 658 781 738 831 782 882 c 128
 793 895 799 902 799 903 c 2
 799 1141 l 1
 741 1150 684 1158 623 1158 c 0
 452 1158 367 1096 367 971 c 0
270 575 m 1
 954 575 l 1
 954 446 l 1
 270 446 l 1
 270 575 l 1
EndSplineSet
EndChar

StartChar: guillemotleft
Encoding: 171 171 111
Width: 1754
GlyphClass: 2
Flags: HW
HStem: 8 291<571 862 1311 1602> 870 291<571 862 1311 1602>
DStem2: 121 697 396 588 0.847548 0.530718<175.227 719.848> 396 588 121 473 0.847034 -0.531539<0 548.333> 861 697 1135 588 0.847548 0.530718<174.38 719.848> 1135 588 861 473 0.847034 -0.531539<0 549.18>
LayerCount: 2
Fore
SplineSet
1135 588 m 1
 1602 299 l 1
 1602 8 l 1
 861 473 l 1
 861 697 l 1
 1602 1161 l 1
 1602 870 l 1
 1135 588 l 1
396 588 m 1
 862 299 l 1
 862 8 l 1
 121 473 l 1
 121 697 l 1
 862 1161 l 1
 862 870 l 1
 396 588 l 1
EndSplineSet
EndChar

StartChar: logicalnot
Encoding: 172 172 112
Width: 1388
GlyphClass: 2
Flags: HW
HStem: 768 222<77 1045>
VStem: 1045 189<277 768>
LayerCount: 2
Fore
SplineSet
77 768 m 1
 77 990 l 1
 1234 990 l 1
 1234 277 l 1
 1045 277 l 1
 1045 768 l 1
 77 768 l 1
EndSplineSet
EndChar

StartChar: uni00AD
Encoding: 173 173 113
Width: 1038
GlyphClass: 2
Flags: HW
HStem: 558 214<158 836>
VStem: 158 678<558 772>
LayerCount: 2
Fore
SplineSet
158 558 m 1
 158 772 l 1
 836 772 l 1
 836 558 l 1
 158 558 l 1
EndSplineSet
EndChar

StartChar: registered
Encoding: 174 174 114
Width: 1378
GlyphClass: 2
Flags: HW
HStem: 573 123<480.644 918.671> 1145 102<627 662> 1426 101<627 813.911> 1696 126<482.435 918.899>
VStem: 50 145<980.087 1408.48> 500 124<873 1145 1247 1426> 1209 146<983.623 1407.57>
LayerCount: 2
Fore
SplineSet
702 573 m 0
 329 573 50 825 50 1197 c 0
 50 1564 331 1822 702 1822 c 0
 1071 1822 1355 1565 1355 1197 c 0
 1355 829 1072 573 702 573 c 0
195 1194 m 256
 195 896 402 696 701 696 c 256
 998 696 1209 900 1209 1195 c 0
 1209 1492 999 1696 701 1696 c 256
 402 1696 195 1491 195 1194 c 256
821 1354 m 0
 821 1424 725 1426 648 1426 c 0
 641 1426 634 1426 627 1426 c 1
 627 1247 l 1
 691 1247 l 2
 722 1247 737 1254 737 1285 c 1
 788 1291 821 1304 821 1354 c 0
949 1347 m 0
 949 1227 884 1187 780 1168 c 1
 958 912 l 1
 841 853 l 1
 662 1145 l 1
 624 1145 l 1
 624 873 l 1
 500 873 l 1
 500 1527 l 1
 639 1527 l 2
 795 1527 949 1501 949 1347 c 0
EndSplineSet
EndChar

StartChar: macron
Encoding: 175 175 115
Width: 1003
GlyphClass: 2
Flags: HW
HStem: 98 117<98 780>
LayerCount: 2
Fore
SplineSet
98 215 m 1
 780 215 l 1
 780 98 l 1
 98 98 l 1
 98 215 l 1
EndSplineSet
EndChar

StartChar: degree
Encoding: 176 176 116
Width: 819
GlyphClass: 2
Flags: HW
HStem: 720 65<293.063 520.883> 1195 64<293.388 518.835>
VStem: 123 76<870.78 1109.62> 613 76<868.915 1110.15>
LayerCount: 2
Fore
SplineSet
407 1195 m 0
 287 1195 199 1110 199 990 c 0
 199 870 286 785 407 785 c 256
 528 785 613 869 613 990 c 256
 613 1110 527 1195 407 1195 c 0
123 993 m 256
 123 1150 250 1259 407 1259 c 0
 567 1259 689 1148 689 987 c 256
 689 826 561 720 401 720 c 256
 244 720 123 836 123 993 c 256
EndSplineSet
EndChar

StartChar: plusminus
Encoding: 177 177 117
Width: 1158
GlyphClass: 2
Flags: HW
HStem: -22 197<222 993> 707 219<193 490 724 1022>
VStem: 490 234<351 707 926 1280>
LayerCount: 2
Fore
SplineSet
222 -22 m 1
 222 175 l 1
 993 175 l 1
 993 -22 l 1
 222 -22 l 1
724 707 m 1
 724 351 l 1
 490 351 l 1
 490 707 l 1
 193 707 l 1
 193 926 l 1
 490 926 l 1
 490 1280 l 1
 724 1280 l 1
 724 926 l 1
 1022 926 l 1
 1022 707 l 1
 724 707 l 1
EndSplineSet
EndChar

StartChar: uni00B2
Encoding: 178 178 118
Width: 1126
GlyphClass: 2
Flags: HW
HStem: 668 152<485 891> 1500 138<295.062 697.491>
VStem: 747 172<1222.41 1459.24>
DStem2: 354 1612 371 1474 0.978716 0.205218<-86.3479 183.034> 524 1045 485 820 0.744987 0.667079<-179.147 329.923>
LayerCount: 2
Fore
SplineSet
576 1638 m 0
 771 1638 919 1543 919 1357 c 0
 919 1169 786 1075 676 982 c 2
 485 820 l 1
 891 820 l 1
 891 668 l 1
 253 668 l 1
 253 805 l 1
 524 1045 l 2
 618 1128 747 1199 747 1354 c 0
 747 1454 670 1500 566 1500 c 0
 456 1500 357 1474 270 1448 c 1
 270 1586 l 1
 351 1620 458 1638 576 1638 c 0
EndSplineSet
EndChar

StartChar: uni00B3
Encoding: 179 179 119
Width: 1208
GlyphClass: 2
Flags: HW
HStem: 540 132<414.711 782.79> 1142 65<679 811> 1541 136<402.424 775.782>
VStem: 832 154<1274.25 1491.54> 851 166<737.132 983.917>
DStem2: 352.5 1622.5 426.5 1505.5 0.945934 0.324359<-23.7642 214.393>
LayerCount: 2
Fore
SplineSet
1017 835 m 0
 1017 632 830 540 628 540 c 0
 495 540 391 569 300 618 c 1
 351 745 l 1
 428 708 517 672 631 672 c 0
 753 672 851 733 851 853 c 0
 851 1002 740 1055 589 1072 c 1
 589 1207 l 1
 715 1207 832 1258 832 1383 c 0
 832 1500 738 1541 608 1541 c 0
 517 1541 438 1513 374 1484 c 1
 327 1611 l 1
 398 1647 503 1677 613 1677 c 0
 812 1677 986 1595 986 1394 c 0
 986 1250 878 1142 741 1142 c 1
 895 1111 1017 1021 1017 835 c 0
EndSplineSet
EndChar

StartChar: acute
Encoding: 180 180 120
Width: 1117
GlyphClass: 2
Flags: HW
HStem: 213 679
VStem: 449 475
LayerCount: 2
Fore
SplineSet
449 269 m 1
 638 892 l 1
 924 766 l 1
 569 213 l 1
 449 269 l 1
EndSplineSet
EndChar

StartChar: uni00B5
Encoding: 181 181 121
Width: 1320
GlyphClass: 2
Flags: HW
HStem: -20 143<457.493 805.168>
VStem: 185 174<-291 113 229.619 1169> 958 208<232.308 1169> 1020 146<16 107.989>
LayerCount: 2
Fore
SplineSet
599 -20 m 0
 483 -20 408 47 359 113 c 1
 359 -291 l 1
 185 -291 l 1
 185 1169 l 1
 359 1169 l 1
 359 442 l 2
 359 229 443 123 611 123 c 0
 760 123 892 194 958 274 c 1
 958 1169 l 1
 1166 1169 l 1
 1166 16 l 1
 1020 16 l 1
 996 170 l 1
 882 43 750 -20 599 -20 c 0
EndSplineSet
EndChar

StartChar: paragraph
Encoding: 182 182 122
Width: 1417
GlyphClass: 2
Flags: HW
HStem: 0 21G<641 877 1015 1247> 1457 149<877 1015>
VStem: 100 777<1013.88 1405.7> 641 236<0 801> 1015 232<0 1457>
LayerCount: 2
Fore
SplineSet
100 1214 m 0
 100 1535 366 1606 686 1606 c 2
 1247 1606 l 1
 1247 0 l 1
 1015 0 l 1
 1015 1457 l 1
 877 1457 l 1
 877 0 l 1
 641 0 l 1
 641 801 l 1
 332 801 100 905 100 1214 c 0
EndSplineSet
EndChar

StartChar: periodcentered
Encoding: 183 183 123
Width: 591
GlyphClass: 2
Flags: HW
HStem: 519 353<173.172 406.499>
VStem: 115 351<578.539 813.092>
LayerCount: 2
Fore
SplineSet
289 519 m 256
 188 519 115 595 115 696 c 256
 115 796 189 872 289 872 c 256
 390 872 466 797 466 696 c 256
 466 595 391 519 289 519 c 256
EndSplineSet
EndChar

StartChar: cedilla
Encoding: 184 184 124
Width: 637
GlyphClass: 2
Flags: HW
HStem: -642 137<112.096 398.42> -482 20G<102 121.5> -241 105<281 369.554>
VStem: 154 127<-136 45> 416 172<-487.52 -287.034>
LayerCount: 2
Fore
SplineSet
309 -642 m 0
 223 -642 160 -615 102 -593 c 1
 102 -462 l 1
 122 -468 l 1
 166 -483 226 -505 283 -505 c 0
 372 -505 416 -476 416 -386 c 0
 416 -261 297 -241 154 -241 c 1
 166 45 l 1
 288 45 l 1
 281 -136 l 1
 448 -136 588 -215 588 -385 c 0
 588 -553 482 -642 309 -642 c 0
EndSplineSet
EndChar

StartChar: uni00B9
Encoding: 185 185 125
Width: 740
GlyphClass: 2
Flags: HW
VStem: 327 169<478 1304>
DStem2: 119 1345 156 1232 0.928206 0.372066<0 177.812>
LayerCount: 2
Fore
SplineSet
327 1304 m 1
 156 1232 l 1
 119 1345 l 1
 356 1440 l 1
 496 1414 l 1
 496 478 l 1
 327 478 l 1
 327 1304 l 1
EndSplineSet
EndChar

StartChar: ordmasculine
Encoding: 186 186 126
Width: 1265
GlyphClass: 2
Flags: HW
HStem: 446 129<300 984> 670 127<488.239 788.38> 1512 126<487.766 787.675>
VStem: 214 157<928.244 1379.51> 905 158<927.281 1379.01>
LayerCount: 2
Fore
SplineSet
1063 1152 m 0
 1063 869 922 670 638 670 c 0
 354 670 214 869 214 1152 c 0
 214 1434 355 1638 638 1638 c 256
 921 1638 1063 1434 1063 1152 c 0
371 1154 m 256
 371 955 440 797 638 797 c 256
 837 797 905 954 905 1154 c 0
 905 1352 836 1512 638 1512 c 256
 439 1512 371 1353 371 1154 c 256
300 575 m 1
 984 575 l 1
 984 446 l 1
 300 446 l 1
 300 575 l 1
EndSplineSet
EndChar

StartChar: guillemotright
Encoding: 187 187 127
Width: 1780
GlyphClass: 2
Flags: HW
HStem: 8 291<172 463 911 1202> 870 291<172 463 911 1202>
DStem2: 172 299 172 8 0.847034 0.531539<0 556.803> 911 299 911 8 0.847356 0.531025<0 557.655>
LayerCount: 2
Fore
SplineSet
172 1161 m 1
 913 697 l 1
 913 473 l 1
 172 8 l 1
 172 299 l 1
 648 588 l 1
 172 870 l 1
 172 1161 l 1
911 1161 m 1
 1653 697 l 1
 1653 473 l 1
 911 8 l 1
 911 299 l 1
 1388 588 l 1
 911 870 l 1
 911 1161 l 1
EndSplineSet
EndChar

StartChar: onequarter
Encoding: 188 188 128
Width: 1947
GlyphClass: 2
Flags: HW
HStem: 73 171<1210 1474 1683 1829> 1198 21G<144.129 198.349>
VStem: 298 227<481 1261> 1478 205<-168 73 245 648>
DStem2: 369 -30 553 -115 0.487437 0.873158<15.47 1749.97> 957 217 1210 244 0.567321 0.823497<165.767 650.501>
LayerCount: 2
Fore
SplineSet
1478 244 m 1
 1478 648 l 1
 1210 244 l 1
 1478 244 l 1
1683 965 m 1
 1683 245 l 1
 1829 245 l 1
 1829 73 l 1
 1683 73 l 1
 1683 -168 l 1
 1474 -177 l 1
 1474 73 l 1
 987 73 l 1
 957 217 l 1
 1504 1011 l 1
 1683 965 l 1
1222 1498 m 1
 1410 1410 l 1
 553 -115 l 1
 369 -30 l 1
 1222 1498 l 1
298 1261 m 1
 152 1198 l 1
 91 1353 l 1
 362 1460 l 1
 525 1425 l 1
 525 481 l 1
 298 481 l 1
 298 1261 l 1
EndSplineSet
EndChar

StartChar: onehalf
Encoding: 189 189 129
Width: 2119
GlyphClass: 2
Flags: HW
HStem: -9 192<1607 1954> 781 186<1384.28 1706.77> 1198 21G<167 221.032>
VStem: 320 227<481 1261> 1747 233<538.622 750.801>
DStem2: 381 -30 565 -115 0.487437 0.873158<15.47 1749.97> 1267 884 1312 709 0.932235 0.361854<0 266.722> 1412 272.5 1607 183 0.754767 0.655993<88.4683 476.658>
LayerCount: 2
Fore
SplineSet
1613 967 m 0
 1814 967 1980 875 1980 678 c 0
 1980 495 1861 403 1755 312 c 1
 1607 183 l 1
 1954 183 l 1
 1954 -9 l 1
 1274 -9 l 1
 1274 153 l 1
 1411 272 1570 385 1688 521 c 128
 1718 556 1747 596 1747 654 c 0
 1747 744 1687 781 1594 781 c 0
 1493 781 1387 742 1312 709 c 1
 1267 884 l 1
 1368 925 1473 967 1613 967 c 0
320 1261 m 1
 175 1198 l 1
 113 1353 l 1
 385 1460 l 1
 547 1425 l 1
 547 481 l 1
 320 481 l 1
 320 1261 l 1
1234 1498 m 1
 1422 1410 l 1
 565 -115 l 1
 381 -30 l 1
 1234 1498 l 1
EndSplineSet
EndChar

StartChar: threequarters
Encoding: 190 190 130
Width: 2178
GlyphClass: 2
Flags: HW
HStem: 73 171<1428 1710 1907 2053> 469 180<231.981 586.428> 978 176<386 556.257> 1363 21G<203.909 227> 1421 183<246.268 573.615>
VStem: 619 215<1207.68 1389.87> 638 226<690.169 904.585> 1714 193<-168 73 244 654>
DStem2: 593 -30 777 -115 0.489474 0.872018<15.9416 1747.52> 1181 217 1428 244 0.567321 0.823497<162.363 662.25>
LayerCount: 2
Fore
SplineSet
1714 244 m 1
 1714 654 l 1
 1428 244 l 1
 1714 244 l 1
1907 965 m 1
 1907 244 l 1
 2053 244 l 1
 2053 73 l 1
 1907 73 l 1
 1907 -168 l 1
 1710 -177 l 1
 1710 73 l 1
 1210 73 l 1
 1181 217 l 1
 1728 1011 l 1
 1907 965 l 1
1441 1498 m 1
 1633 1410 l 1
 777 -115 l 1
 593 -30 l 1
 1441 1498 l 1
386 1154 m 1
 503 1154 616 1190 619 1303 c 1
 619 1391 543 1421 447 1421 c 0
 358 1421 278 1391 213 1363 c 1
 138 1528 l 1
 209 1572 321 1604 437 1604 c 0
 659 1604 834 1527 834 1304 c 0
 834 1175 744 1086 636 1067 c 1
 758 1040 864 942 864 792 c 0
 864 558 671 469 437 469 c 0
 323 469 216 496 136 533 c 1
 198 709 l 1
 260 675 354 649 449 649 c 0
 559 649 638 691 638 797 c 0
 638 926 512 971 386 978 c 1
 386 1154 l 1
EndSplineSet
EndChar

StartChar: questiondown
Encoding: 191 191 131
Width: 1209
GlyphClass: 2
Flags: HW
HStem: -65 233<468.498 933.255> 1243 328<658.043 853.534>
VStem: 122 285<225.958 475.847> 599 314<1303.04 1508.85> 631 270<827.172 1150>
LayerCount: 2
Fore
SplineSet
796 1571 m 1
 865 1541 913 1462 913 1363 c 1
 885 1294 813 1243 716 1243 c 1
 648 1274 599 1352 599 1451 c 1
 627 1520 700 1571 796 1571 c 1
901 705 m 1
 724 644 407 575 407 350 c 0
 407 197 526 168 679 168 c 256
 742 168 1026 211 1026 247 c 1
 1100 33 l 1
 985 -25 835 -65 660 -65 c 0
 367 -65 122 37 122 329 c 0
 122 627 386 767 631 841 c 1
 631 1150 l 1
 901 1150 l 1
 901 705 l 1
EndSplineSet
EndChar

StartChar: AE
Encoding: 198 198 138
Width: 1989
GlyphClass: 2
Flags: HW
HStem: 0 199<1221 1911> 364 155<554 932> 764 173<1221 1821> 1408 199<1220 1893>
VStem: 932 289<199 364 519 764 937 1408>
DStem2: 43 0 349 0 0.405558 0.914069<124.101 518.467 681.642 1115.25>
LayerCount: 2
Fore
SplineSet
932 1413 m 1
 554 519 l 1
 932 519 l 1
 932 1413 l 1
1893 1408 m 1
 1220 1408 l 1
 1220 937 l 1
 1821 937 l 1
 1821 764 l 1
 1221 764 l 1
 1221 199 l 1
 1911 199 l 1
 1911 0 l 1
 933 0 l 1
 933 364 l 1
 501 364 l 1
 349 0 l 1
 43 0 l 1
 756 1607 l 1
 1893 1607 l 1
 1893 1408 l 1
EndSplineSet
EndChar

StartChar: Eth
Encoding: 208 208 148
Width: 1559
GlyphClass: 2
Flags: HW
HStem: 0 199<466 912.344> 729 195<-2 161 466 723> 1414 193<466 905.242>
VStem: 161 305<199 729 924 1414> 1145 309<469.203 1139.45>
LayerCount: 2
Fore
SplineSet
619 199 m 2
 1032 199 1145 392 1145 800 c 0
 1145 1211 1034 1414 619 1414 c 2
 466 1414 l 1
 466 924 l 1
 723 924 l 1
 723 729 l 1
 466 729 l 1
 466 199 l 1
 619 199 l 2
691 1607 m 2
 1212 1607 1454 1319 1454 798 c 0
 1454 289 1203 0 691 0 c 2
 161 0 l 1
 161 729 l 1
 -2 729 l 1
 -2 924 l 1
 161 924 l 1
 161 1607 l 1
 691 1607 l 2
EndSplineSet
EndChar

StartChar: multiply
Encoding: 215 215 155
Width: 1361
GlyphClass: 2
Flags: HW
HStem: 404 311<543.5 854.5>
DStem2: 393 1011 240 847 0.719677 -0.694309<3.75622 416.767 649.942 1064.37> 240 272 393 108 0.719677 0.694309<0 413.705 646.88 1060.61>
LayerCount: 2
Fore
SplineSet
393 1011 m 1
 699 715 l 1
 1005 1011 l 1
 1159 847 l 1
 861 560 l 1
 1159 272 l 1
 1005 108 l 1
 699 404 l 1
 393 108 l 1
 240 272 l 1
 537 560 l 1
 240 847 l 1
 393 1011 l 1
EndSplineSet
EndChar

StartChar: Oslash
Encoding: 216 216 156
Width: 1612
GlyphClass: 2
Flags: HW
HStem: -34 225<667.181 992.587> 1411 225<620.464 993.316>
VStem: 105 308<556.53 1152.59> 1199 308<454.661 1149.63>
DStem2: 382 -121 506 -167 0.389304 0.921109<5.90274 184.315 442.773 1547.32 1847.31 2041.96>
LayerCount: 2
Fore
SplineSet
805 -34 m 0
 719 -34 642 -25 575 -4 c 1
 506 -167 l 1
 382 -121 l 1
 452 44 l 1
 212 168 105 433 105 801 c 0
 105 1301 314 1636 800 1636 c 0
 913 1636 1014 1618 1104 1582 c 1
 1179 1759 l 1
 1301 1714 l 1
 1219 1521 l 1
 1415 1386 1507 1132 1507 801 c 0
 1507 302 1304 -34 805 -34 c 0
806 191 m 0
 1129 191 1199 477 1199 801 c 0
 1199 991 1177 1135 1108 1252 c 1
 666 215 l 1
 702 205 752 191 806 191 c 0
809 1411 m 0
 483 1411 413 1129 413 801 c 0
 413 689 428 589 477 526 c 1
 481 426 499 338 554 287 c 1
 1010 1356 l 1
 956 1391 893 1411 809 1411 c 0
EndSplineSet
EndChar

StartChar: Thorn
Encoding: 222 222 162
Width: 1410
GlyphClass: 2
Flags: HW
HStem: 1210 202<536.376 882.869> 1587 20G<156 439>
VStem: 156 294<-136 382 554.555 1166 1320 1607> 987 285<614.739 1097.48>
LayerCount: 2
Fore
SplineSet
719 520 m 0
 904 520 987 626 987 859 c 0
 987 1113 877 1205 696 1205 c 0
 624 1205 542 1190 450 1166 c 1
 450 566 l 1
 540 541 634 520 719 520 c 0
1275 873 m 0
 1275 491 1068 304 684 304 c 0
 587 304 509 330 450 382 c 1
 450 -136 l 1
 156 -136 l 1
 156 1607 l 1
 439 1607 l 1
 439 1320 l 1
 524 1372 642 1413 777 1413 c 0
 1110 1413 1275 1202 1275 873 c 0
EndSplineSet
EndChar

StartChar: germandbls
Encoding: 223 223 163
Width: 1535
GlyphClass: 2
Flags: HW
HStem: -173 236<607 909.544> 0 21G<156 463> 736 186<613 919.648> 1401 206<562.616 937.983>
VStem: 156 307<0 1292.33> 1017 268<1010.63 1326.82> 1158 299<235.11 567.126>
LayerCount: 2
Fore
SplineSet
1158 398 m 0
 1158 676 902 736 613 736 c 1
 613 755 612 766 612 789 c 130
 612 922 l 1
 854 922 1017 941 1017 1181 c 0
 1017 1353 905 1401 729 1401 c 256
 494 1401 463 1237 463 999 c 2
 463 0 l 1
 156 0 l 1
 156 1002 l 2
 156 1400 329 1607 729 1607 c 0
 1044 1607 1285 1494 1285 1186 c 0
 1285 981 1165 864 977 843 c 1
 1257 813 1457 686 1457 379 c 0
 1457 -48 1031 -173 607 -173 c 1
 607 63 l 1
 873 80 1158 116 1158 398 c 0
EndSplineSet
EndChar

StartChar: ae
Encoding: 230 230 170
Width: 1899
GlyphClass: 2
Flags: HW
HStem: -19 207<419.625 726.054 1215.48 1600.18> 537 153<1092 1573> 561 148<420.16 573.001 575 814> 574 162<436.578 812.935> 997 212<352.003 762.604 1189.67 1494.9>
VStem: 91 279<237.956 510.938> 814 278<322.76 537 709 883.322> 1573 243<690 907.717>
LayerCount: 2
Fore
SplineSet
1573 690 m 1
 1573 869 1519 1010 1346 1010 c 0
 1171 1010 1096 866 1092 690 c 1
 1573 690 l 1
1384 188 m 0
 1504 188 1628 228 1693 284 c 1
 1758 89 l 1
 1674 28 1511 -19 1369 -19 c 0
 1149 -19 1025 60 942 199 c 1
 857 67 706 -21 494 -21 c 0
 235 -21 91 108 91 366 c 0
 91 639 300 736 574 736 c 128
 662 736 746 727 814 709 c 1
 814 891 797 997 614 997 c 0
 482 997 299 961 221 902 c 1
 165 1091 l 1
 252 1167 463 1209 618 1209 c 0
 806 1209 924 1158 982 1029 c 1
 1046 1142 1174 1209 1349 1209 c 0
 1658 1209 1816 992 1816 682 c 0
 1816 635 1815 587 1813 537 c 1
 1092 537 l 1
 1095 329 1174 188 1384 188 c 0
662 574 m 0
 497 574 370 545 370 381 c 0
 370 248 435 182 566 182 c 0
 674 182 748 240 814 300 c 1
 814 561 l 1
 765 568 714 574 662 574 c 0
EndSplineSet
EndChar

StartChar: igrave
Encoding: 236 236 176
Width: 667
GlyphClass: 2
Flags: HW
HStem: 0 21G<203 493> 1165 20G<203 493> 1355 21G<300.325 357.286>
VStem: 203 290<0 1185>
LayerCount: 2
Fore
SplineSet
-40 1912 m 1
 250 2038 l 1
 437 1411 l 1
 313 1355 l 1
 -40 1912 l 1
203 0 m 1
 203 1185 l 1
 493 1185 l 1
 493 0 l 1
 203 0 l 1
EndSplineSet
EndChar

StartChar: iacute
Encoding: 237 237 177
Width: 667
GlyphClass: 2
Flags: HW
HStem: 0 21G<203 493> 1165 20G<203 493>
VStem: 203 290<0 1185>
LayerCount: 2
Fore
SplineSet
155 1387 m 1
 344 2010 l 1
 630 1885 l 1
 275 1331 l 1
 155 1387 l 1
203 0 m 1
 203 1185 l 1
 493 1185 l 1
 493 0 l 1
 203 0 l 1
EndSplineSet
EndChar

StartChar: icircumflex
Encoding: 238 238 178
Width: 667
GlyphClass: 2
Flags: HW
HStem: 0 21G<203 493> 1165 20G<203 493> 1728 226<124 546>
VStem: 203 290<0 1185>
LayerCount: 2
Fore
SplineSet
433 1954 m 1
 708 1372 l 1
 488 1341 l 1
 334 1728 l 1
 180 1341 l 1
 -39 1372 l 1
 237 1954 l 1
 433 1954 l 1
203 0 m 1
 203 1185 l 1
 493 1185 l 1
 493 0 l 1
 203 0 l 1
EndSplineSet
EndChar

StartChar: idieresis
Encoding: 239 239 179
Width: 667
GlyphClass: 2
Flags: HW
HStem: 0 21G<203 493> 1165 20G<203 493> 1338 306<-111.267 141.228 498.733 750.249>
VStem: -150 330<1376.34 1605.66> 203 290<0 1185> 460 330<1377.06 1604.94>
LayerCount: 2
Fore
SplineSet
14 1325 m 0
 -83 1325 -150 1394 -150 1491 c 256
 -150 1587 -82 1657 14 1657 c 256
 110 1657 180 1587 180 1491 c 0
 180 1395 110 1325 14 1325 c 0
624 1325 m 0
 527 1325 460 1394 460 1491 c 256
 460 1587 528 1657 624 1657 c 256
 719 1657 790 1586 790 1491 c 0
 790 1396 719 1325 624 1325 c 0
203 0 m 1
 203 1185 l 1
 493 1185 l 1
 493 0 l 1
 203 0 l 1
EndSplineSet
EndChar

StartChar: eth
Encoding: 240 240 180
Width: 1272
GlyphClass: 2
Flags: HW
HStem: -18 203<489.611 757.204> 1007 202<480.005 749.133>
VStem: 85 290<322.643 876.218> 886 290<342.282 895.854>
DStem2: 410 1433 453 1305 0.954359 0.298661<2.80878 184.394 491.145 736.62> 1022.5 1294 815.5 1211 0.580587 -0.814198<-187.92 110.464>
LayerCount: 2
Fore
SplineSet
919 1451 m 1
 1071 1250 1176 1009 1176 654 c 0
 1176 240 1020 -18 611 -18 c 0
 252 -18 85 246 85 603 c 0
 85 928 227 1209 547 1209 c 0
 698 1209 818 1143 884 1057 c 1
 853 1174 770 1290 692 1379 c 1
 453 1305 l 1
 410 1433 l 1
 586 1488 l 1
 527 1543 470 1588 402 1630 c 1
 528 1780 l 1
 638 1715 727 1648 817 1560 c 1
 1113 1653 l 1
 1156 1525 l 1
 919 1451 l 1
610 1007 m 0
 419 1007 375 814 375 597 c 0
 375 392 419 185 619 185 c 0
 810 185 871 356 882 537 c 1
 885 622 886 708 886 796 c 1
 855 921 761 1007 610 1007 c 0
EndSplineSet
EndChar

StartChar: divide
Encoding: 247 247 187
Width: 1163
GlyphClass: 2
Flags: HW
HStem: 143 332<483.017 707.667> 570 214<148 1041> 875 332<482.017 706.667>
VStem: 434 322<191.505 425.795 924.914 1157.09>
LayerCount: 2
Fore
SplineSet
595 875 m 0
 498 875 433 945 433 1041 c 256
 433 1137 499 1207 595 1207 c 256
 691 1207 755 1136 755 1041 c 256
 755 946 691 875 595 875 c 0
596 143 m 0
 499 143 434 213 434 309 c 256
 434 405 500 475 596 475 c 256
 692 475 756 404 756 309 c 0
 756 214 692 143 596 143 c 0
148 570 m 1
 148 784 l 1
 1041 784 l 1
 1041 570 l 1
 148 570 l 1
EndSplineSet
EndChar

StartChar: oslash
Encoding: 248 248 188
Width: 1299
GlyphClass: 2
Flags: HW
HStem: -18 181<563.433 807.627> 1024 182<650.187 736> 1026 183<488.223 735.407>
VStem: 85 259<344.592 858.175> 960 253<341.569 844.034>
DStem2: 340 -154 440 -188 0.319358 0.947634<0 196.054 403.822 1210.87 1419.59 1627.02>
LayerCount: 2
Fore
SplineSet
649 1026 m 0
 423 1026 344 841 344 607 c 0
 344 450 376 290 468 229 c 1
 736 1015 l 1
 712 1024 683 1026 649 1026 c 0
1213 592 m 0
 1213 221 1020 -18 649 -18 c 0
 596 -18 548 -13 503 -3 c 1
 440 -188 l 1
 340 -154 l 1
 402 27 l 1
 197 113 85 306 85 592 c 0
 85 963 277 1209 649 1209 c 0
 702 1209 749 1203 794 1194 c 1
 860 1389 l 1
 957 1355 l 1
 892 1164 l 1
 1097 1078 1213 882 1213 592 c 0
649 163 m 0
 879 163 960 360 960 594 c 0
 960 763 920 891 826 960 c 1
 562 173 l 1
 582 166 611 163 649 163 c 0
EndSplineSet
EndChar

StartChar: thorn
Encoding: 254 254 194
Width: 1331
GlyphClass: 2
Flags: HW
HStem: -446 21G<154 445> -18 202<550.165 857.67> 1001 203<571.642 844.093>
VStem: 154 292<-437 115 255.984 891 1045 1601> 954 292<303.248 862.724>
LayerCount: 2
Fore
SplineSet
737 184 m 0
 924 184 954 393 954 581 c 0
 954 785 915 1001 715 1001 c 0
 588 1001 514 946 446 891 c 1
 446 291 l 1
 513 230 616 184 737 184 c 0
1246 583 m 0
 1246 246 1091 -18 757 -18 c 0
 616 -18 512 26 445 115 c 1
 445 -437 l 1
 154 -446 l 1
 154 1601 l 1
 441 1601 l 1
 441 1045 l 1
 502 1136 619 1204 765 1204 c 0
 1108 1204 1246 927 1246 583 c 0
EndSplineSet
EndChar

StartChar: OE
Encoding: 338 338 196
Width: 2325
GlyphClass: 2
Flags: HW
HStem: -35 227<620.29 989.003> 0 199<1505 2260> 745 186<1505 2154> 1405 202<1505 2249> 1411 224<622.018 989.934>
VStem: 104 309<455.373 1146.58> 1200 305<473.5 931>
LayerCount: 2
Fore
SplineSet
1200 0 m 1
 1200 1607 l 1
 2249 1607 l 1
 2249 1405 l 1
 1505 1405 l 1
 1505 931 l 1
 2154 931 l 1
 2154 745 l 1
 1505 745 l 1
 1505 199 l 1
 2260 199 l 1
 2260 0 l 1
 1200 0 l 1
805 1635 m 0
 1297 1635 1507 1305 1507 810 c 0
 1507 307 1310 -35 805 -35 c 0
 298 -35 104 312 104 819 c 0
 104 1309 318 1635 805 1635 c 0
808 1411 m 0
 486 1411 413 1126 413 798 c 0
 413 476 488 192 805 192 c 0
 1123 192 1199 474 1199 798 c 0
 1199 1123 1126 1411 808 1411 c 0
EndSplineSet
EndChar

StartChar: oe
Encoding: 339 339 197
Width: 2045
GlyphClass: 2
Flags: HW
HStem: -32 201<501.268 799.93 1377.5 1726.05> 537 153<1226 1719> 1016 199<510.568 790.365 1347.33 1623.96>
VStem: 86 290<320.235 858.111> 926 300<326.197 537 690 857.77> 1719 243<690 910.097>
LayerCount: 2
Fore
SplineSet
1719 690 m 1
 1719 905 1642 1014 1487 1016 c 1
 1308 1013 1232 866 1225 690 c 1
 1719 690 l 1
376 588 m 0
 376 368 430 169 650 169 c 0
 871 169 926 364 926 588 c 256
 926 812 871 1010 650 1010 c 256
 430 1010 376 811 376 588 c 0
1535 177 m 0
 1672 177 1756 217 1839 281 c 1
 1905 84 l 1
 1801 24 1670 -24 1512 -24 c 0
 1292 -24 1158 51 1076 194 c 1
 1014 50 853 -32 650 -32 c 0
 274 -32 86 210 86 587 c 0
 86 963 271 1210 650 1210 c 0
 868 1210 1004 1124 1072 970 c 1
 1152 1113 1260 1215 1480 1215 c 0
 1800 1215 1962 1006 1962 685 c 0
 1962 634 1961 585 1959 537 c 1
 1226 537 l 1
 1228 321 1320 177 1535 177 c 0
EndSplineSet
EndChar

StartChar: Scaron
Encoding: 352 352 198
Width: 1325
GlyphClass: 2
Flags: HW
HStem: -34 230<395.318 876.45> 1411 225<452.387 940.818>
VStem: 85 287<1108.89 1337.38> 955 291<268.193 541.429>
DStem2: 301 273 284 35 0.945433 -0.325815<-106.916 367.316> 524 1047 413 778 0.929019 -0.370033<-164.834 561.11>
LayerCount: 2
Fore
SplineSet
578 1821 m 1
 302 2404 l 1
 522 2435 l 1
 677 2047 l 1
 830 2435 l 1
 1050 2404 l 1
 773 1821 l 1
 578 1821 l 1
686 1411 m 0
 522 1411 372 1381 372 1218 c 0
 372 1117 445 1075 524 1047 c 1
 869 915 l 2
 1067 839 1246 714 1246 443 c 0
 1246 106 1003 -34 658 -34 c 0
 443 -34 268 28 127 104 c 1
 182 323 l 1
 274 280 511 191 699 191 c 0
 841 191 955 242 955 402 c 0
 955 535 875 597 767 637 c 1
 413 778 l 1
 242 845 85 962 85 1196 c 0
 85 1504 342 1636 650 1636 c 0
 861 1636 1045 1580 1175 1503 c 1
 1111 1295 l 1
 1009 1356 848 1411 686 1411 c 0
EndSplineSet
EndChar

StartChar: scaron
Encoding: 353 353 199
Width: 1092
GlyphClass: 2
Flags: HW
HStem: -24 201<312.005 689.632> 1016 199<408.421 788.073>
VStem: 103 259<805.406 978.76> 733 271<220.781 417.166>
DStem2: 483 769 357 560 0.932829 -0.36032<-143.314 369.68>
LayerCount: 2
Fore
SplineSet
450 1393 m 1
 174 1976 l 1
 394 2007 l 1
 549 1619 l 1
 702 2007 l 1
 922 1976 l 1
 645 1393 l 1
 450 1393 l 1
534 177 m 0
 650 177 733 216 733 332 c 0
 733 411 657 445 590 470 c 2
 357 560 l 1
 216 611 103 693 103 886 c 0
 103 1118 310 1215 546 1215 c 0
 698 1215 880 1176 969 1109 c 1
 903 921 l 1
 831 975 678 1016 557 1016 c 0
 445 1016 362 982 362 886 c 0
 362 811 427 791 483 769 c 1
 675 698 l 2
 835 638 1004 558 1004 345 c 0
 1004 90 805 -24 548 -24 c 0
 381 -24 204 19 109 90 c 1
 175 281 l 1
 247 225 412 177 534 177 c 0
EndSplineSet
EndChar

StartChar: florin
Encoding: 402 402 201
Width: 835
GlyphClass: 2
Flags: HW
HStem: 1010 132<50 256 554 845> 1494 217<610.812 877.57>
VStem: 226 297<131.468 648.684> 256 293<778.395 1010 1142 1419.54>
LayerCount: 2
Fore
SplineSet
878 1455 m 1
 833 1473 776 1494 713 1494 c 0
 555 1494 560 1302 554 1142 c 1
 849 1142 l 1
 845 1010 l 1
 549 1010 l 1
 523 365 l 1
 512 161 476 9 381 -98 c 1
 264 -98 169 -66 61 -66 c 1
 91 54 l 1
 91 78 145 87 160 99 c 1
 203 153 221 220 226 318 c 2
 256 1010 l 1
 46 1010 l 1
 50 1142 l 1
 260 1142 l 1
 273 1457 340 1711 660 1711 c 0
 758 1711 828 1678 904 1661 c 1
 878 1455 l 1
EndSplineSet
EndChar

StartChar: circumflex
Encoding: 710 710 202
Width: 1331
GlyphClass: 2
Flags: HW
HStem: 611 226<479 900>
LayerCount: 2
Fore
SplineSet
787 837 m 1
 1064 254 l 1
 843 223 l 1
 689 611 l 1
 535 223 l 1
 316 254 l 1
 592 837 l 1
 787 837 l 1
EndSplineSet
EndChar

StartChar: ring
Encoding: 730 730 203
Width: 1256
GlyphClass: 2
Flags: HW
HStem: 213 138<511.905 744.068> 688 137<512.608 742.749>
VStem: 306 153<404.414 634.194> 797 154<403.898 632.765>
LayerCount: 2
Fore
SplineSet
628 688 m 0
 530 688 459 617 459 519 c 0
 459 421 530 351 628 351 c 0
 726 351 797 421 797 519 c 256
 797 616 725 688 628 688 c 0
306 522 m 0
 306 701 450 825 629 825 c 0
 812 825 951 699 951 516 c 256
 951 334 804 213 622 213 c 0
 443 213 306 343 306 522 c 0
EndSplineSet
EndChar

StartChar: tilde
Encoding: 732 732 204
Width: 1438
GlyphClass: 2
Flags: HW
HStem: 228 198<789.901 948.815> 364 195<510.816 674.507>
VStem: 305 191<246 338.724> 957 198<447.666 529>
DStem2: 743 494 630 342 0.890685 -0.454621<-104.863 181.912>
LayerCount: 2
Fore
SplineSet
1155 529 m 1
 1155 362 1096 228 942 228 c 0
 818 228 716 298 630 342 c 128
 601 357 577 364 558 364 c 0
 506 364 496 313 496 246 c 1
 305 246 l 1
 305 455 379 559 528 559 c 0
 619 559 680 527 743 494 c 1
 791 470 l 130
 826 452 867 426 913 426 c 0
 955 426 957 472 957 529 c 1
 1155 529 l 1
EndSplineSet
EndChar

StartChar: uni0306
Encoding: 774 774 205
Width: 1103
GlyphClass: 2
Flags: HW
HStem: 1367 138<442.017 655.671> 1648 20G<233 410 687 863>
VStem: 233 177<1545.23 1668> 687 176<1545.23 1668>
LayerCount: 2
Fore
SplineSet
549 1505 m 256
 652 1505 687 1561 687 1668 c 1
 863 1668 l 1
 863 1463 758 1367 549 1367 c 256
 341 1367 233 1465 233 1668 c 1
 410 1668 l 1
 410 1561 446 1505 549 1505 c 256
EndSplineSet
EndChar

StartChar: uni0E81
Encoding: 3713 3713 206
Width: 1557
VWidth: 2170
GlyphClass: 2
Flags: HW
HStem: 0 147<275.828 394.828> 301 131<290.828 399.828> 740 136<277.828 400.828> 992 178<806.828 1106.83> 1026 144<280.828 388.828>
VStem: 94 177<149 290 881 1015> 401 283<151 301 408 744> 1162 284<0 937>
LayerCount: 2
Fore
SplineSet
1162 785 m 2xf7
 1162 954 1118 1030 953 1030 c 1xf7
 892 1029 801 989 681 909 c 1
 682 891 684 880 684 867 c 2
 684 321 l 6
 684 110 581 -32 372 -32 c 4
 186 -32 94 43 94 194 c 4
 94 307 180 400 293 400 c 5
 311 398 329 399 344 394 c 6
 401 376 l 5
 401 782 l 1
 383 780 365 778 346 778 c 0
 202 778 90 851 90 994 c 0
 90 1147 205 1208 371 1208 c 0xef
 491 1208 579 1160 636 1066 c 1
 748 1140 851 1208 998 1208 c 0
 1296 1208 1446 1050 1446 735 c 2
 1446 -32 l 5
 1162 -32 l 5
 1162 785 l 2xf7
269 995 m 1
 275 944 301 917 344 914 c 1
 364 914 384 917 401 923 c 1
 401 969 l 1
 396 1027 374 1059 336 1064 c 1xef
 293 1064 269 1040 269 995 c 1
344 269 m 6
 297 269 271 244 271 196 c 4
 271 143 293 116 335 115 c 5
 378 116 401 149 401 209 c 6
 401 269 l 5
 344 269 l 6
EndSplineSet
EndChar

StartChar: uni0E82
Encoding: 3714 3714 207
Width: 1359
VWidth: 2170
GlyphClass: 2
Flags: HW
HStem: 0 224<292.454 653.454> 127 224<744.454 1076.45> 583 144<345.454 443.454> 1007 163<432.454 923.454>
VStem: 140 187<745 883> 461 177<740 880> 976 280<724 954>
DStem2: 549.454 566 541.454 342 0.951252 0.308414<-204.329 431.451> 612.454 257 572.454 20 0.947477 0.319824<-128.42 278.989>
LayerCount: 2
Fore
SplineSet
686 1208 m 0xbe
 1001 1208 1256 1140.20234604 1256 829 c 0
 1256 570 1010 491 813 430 c 2
 675 387 l 2
 600 357.917355372 431 331.363636364 431 234 c 0
 431 199 451 192 487 192 c 0xbe
 654 192 782 319 971 319 c 0
 1154 319 1253 191 1341 56 c 1
 1178 -87 l 1
 1121 -2 1080 95 953 95 c 0x7e
 751 95 642 -32 437 -32 c 0
 243 -32 147 49 147 209 c 0
 147 441.873846154 378 503.387692308 549 566 c 2
 647 599 l 1
 793 646 976 668 976 860 c 0
 976 1014.79591837 834 1045 693 1045 c 0
 591 1045 498 1045 431 1020 c 1
 442 1022 452 1023 464 1023 c 0
 562 1023 638 934 638 835 c 0
 638 701 534 621 399 621 c 0
 226 621 140 704 140 873 c 0
 140 1134 416 1208 686 1208 c 0xbe
399 759 m 0
 434 759 459 805 461 850 c 1
 461 898 434 922 381 922 c 2
 329 922 l 1
 327 912 326 902 326 891 c 0
 327 835 358 759 399 759 c 0
EndSplineSet
EndChar

StartChar: uni0E84
Encoding: 3716 3716 208
Width: 1395
VWidth: 2170
GlyphClass: 2
Flags: HW
HStem: 0 147<420.525 527.525> 301 129<409.525 519.525> 552 166<448.525 715.525> 991 179<477.525 900.525>
VStem: 126 283<173 301 409 512 752 949> 540 177<159 288> 985 283<0 909>
LayerCount: 2
Fore
SplineSet
695 1208 m 0
 1055 1208 1268 1092 1268 735 c 2
 1268 -33 l 5
 985 -33 l 5
 985 731 l 2
 985 950 913 1029 695 1029 c 0
 548 1029 409 1017 409 900 c 0
 409 806 464 757 559 757 c 2
 716 757 l 1
 716 590 l 1
 559 590 l 2
 457 590 409 530.934782609 409 381 c 6
 409 376 l 5
 433 383 l 6
 465 391 480 397 511 397 c 4
 632 397 717 317 717 196 c 4
 717 32 612 -33 437 -33 c 4
 233 -33 126 115 126 320 c 4
 126 528.603508772 243 652.266666667 395 676 c 1
 249 676 126 756 126 900 c 0
 126 1160 435 1208 695 1208 c 0
474 114 m 4
 520 114 540 147 540 196 c 4
 540 239 509 268 463 268 c 6
 409 268 l 5
 409 219 l 6
 409 159 420 114 474 114 c 4
EndSplineSet
EndChar

StartChar: uni0E87
Encoding: 3719 3719 209
Width: 1101
VWidth: 2170
GlyphClass: 2
Flags: HW
HStem: -520 158<323.384 643.384> 739 131<246.384 354.384> 1022 147<250.384 366.384 497.384 621.384>
VStem: 61 177<881 1003> 83 191<-318 -190> 366 151<894 1021> 711 284<-277 888>
LayerCount: 2
Fore
SplineSet
995 21 m 2xe6
 995 -338 856 -520 500 -520 c 0
 246 -520 84 -428 83 -190 c 1
 273 -190 l 1
 273 -324 352 -363 490 -363 c 0
 691 -363 711 -224 711 -18 c 2
 711 658 l 6
 711 863 688 1055 497 1062 c 5
 510 1027 516 998 516 976 c 4
 516 838 427 778 284 778 c 4
 149 778 61 854 61 989 c 4
 61 1154 256 1208 428 1208 c 4
 806 1208 995 1027 995 664 c 6
 995 21 l 2xe6
296 909 m 4
 347 909 366 944 366 995 c 6
 366 1061 l 5
 281 1054 238 1025 238 976 c 4
 238 936 256 909 296 909 c 4
EndSplineSet
EndChar

StartChar: uni0E88
Encoding: 3720 3720 210
Width: 1459
VWidth: 2170
GlyphClass: 2
Flags: HW
HStem: 405 132<592.495 699.495> 695 144<581.495 685.495> 991 179<451.495 950.495>
VStem: 54 252<719 868> 391 177<551 682> 1084 263<140 866>
LayerCount: 2
Fore
SplineSet
641 791 m 0
 821 791 896 667 962 528 c 2
 1084 270 l 1
 1084 714 l 6
 1084 948 951 1029 710 1029 c 4
 496 1029 306 967 306 757 c 5
 54 757 l 5
 57 1100 362 1208 716 1208 c 4
 1114 1208 1347 1056 1347 663 c 6
 1347 18 l 2
 1347 -84 1267 -140 1182 -140 c 0
 1126 -140 1065 -114 1034 -54 c 2
 834 303 l 1
 780 292 727 285 678 285 c 0
 508 285 383 364 383 563 c 0
 383 706 490 791 641 791 c 0
776 457 m 1
 732 544 709 620 641 620 c 0
 600 620 576 586 576 544 c 0
 576 487 618 443 689 443 c 0
 715 443 744 447 776 457 c 1
EndSplineSet
EndChar

StartChar: uni0E8A
Encoding: 3722 3722 211
Width: 1365
VWidth: 2170
GlyphClass: 2
Flags: HW
HStem: 0 223<364.454 652.454> 145 217<802.454 1153.45> 580 147<342.454 459.454> 1007 163<433.454 916.454>
VStem: 143 187<731 883> 464 177<730 871> 982 279<722 947> 1027 249<-201 130>
DStem2: 634.454 596 546.454 339 0.940718 0.339189<-303.835 372.634> 661.454 273 579.454 21 0.949664 0.313269<-188.866 238.667>
LayerCount: 2
Fore
SplineSet
333 922 m 1x3c
 331 908 329 898 329 887 c 0
 331 806 353 766 393 765 c 1
 441 765 464 794 464 850 c 1
 461 897 431 922 379 922 c 2
 333 922 l 1x3c
150 209 m 0
 151 584.243243243 982 463.027027027 982 833 c 0
 982 1020.01074219 854 1055 690 1055 c 0
 569 1055 487 1047 431 1015 c 1
 453 1015 l 2
 546 1015 641 948 641 836 c 0
 641 705 537 618 403 618 c 0
 232 618 143 702 143 873 c 0
 143 1133 420 1208 689 1208 c 0
 1071 1208 1261 1077.29785156 1261 817 c 0
 1261 594 1087 520 914 463 c 2
 684 387 l 1
 604 354.235772358 438 329.032520325 431 232 c 1
 432.152626854 208.524833076 450.320988042 190.353383639 480.758983527 190.353383639 c 0
 596.801361646 190.353383639 919.179427939 365.938780184 1070.41313451 365.938780184 c 0
 1207.47104484 365.938780184 1276 256.465975434 1276 91 c 2
 1276 -353 l 1
 1027 -353 l 1
 1027 72 l 2
 1027 128 1008 145 956 145 c 0x7d
 810 145 618 -32 435 -32 c 0xbd
 260 -32 150 43 150 209 c 0
EndSplineSet
EndChar

StartChar: uni0E8D
Encoding: 3725 3725 212
Width: 1410
VWidth: 2170
GlyphClass: 2
Flags: HW
HStem: 0 178<466.969 905.969> 450 166<449.969 716.969> 739 130<410.969 521.969> 1023 147<422.969 529.969>
VStem: 128 283<220 417 659 761 869 997> 541 177<881 1011> 987 283<261 1170>
LayerCount: 2
Fore
SplineSet
696 147 m 4
 915 147 987 237.969899666 987 487 c 2
 987 1210 l 1
 1270 1210 l 1
 1270 483 l 2
 1270 79.8414376321 1046 -31 670 -31 c 4
 390 -31 128 32 128 276 c 4
 128 449.90625 262 525.620535714 428 541 c 1
 260 561.875 128 681.631578947 128 875 c 0
 128 1069 238 1210 439 1210 c 0
 614 1210 718 1144 718 980 c 0
 718 852 619 776 496 776 c 0
 462 776 426 782 390 794 c 1
 390 675.759124088 439 627 560 627 c 2
 717 627 l 1
 717 460 l 1
 560 460 l 2
 465 460 411 396.951048951 411 276 c 4
 411 159 549 147 696 147 c 4
465 909 m 2
 521 909 552 933 552 981 c 0
 552 1036 529 1074 476 1074 c 0
 407 1074 390 1023 390 958 c 2
 390 909 l 1
 465 909 l 2
EndSplineSet
EndChar

StartChar: uni0E94
Encoding: 3732 3732 213
Width: 1420
VWidth: 2170
GlyphClass: 2
Flags: HW
HStem: 0 147<434.969 543.969> 300 130<424.969 533.969> 991 179<504.969 923.969>
VStem: 142 282<170 300 408 911> 554 176<159 287> 1004 285<0 909>
LayerCount: 2
Fore
SplineSet
1004 731 m 2
 1004 951 932 1029 713 1029 c 0
 500 1029 424 955 424 742 c 2
 424 382 l 5
 463 389 l 6
 484 393 505 395 524 395 c 4
 646 395 730 321 730 187 c 4
 730 23 620 -32 442 -32 c 4
 245 -32 142 124 142 323 c 6
 142 735 l 2
 142 1091 354 1208 713 1208 c 0
 1072 1208 1289 1090 1289 735 c 2
 1289 -32 l 5
 1004 -32 l 5
 1004 731 l 2
493 115 m 4
 535 115 554 147 554 193 c 4
 554 240 525 268 477 268 c 6
 424 268 l 5
 424 209 l 6
 424 152 440 115 493 115 c 4
EndSplineSet
EndChar

StartChar: uni0E95
Encoding: 3733 3733 214
Width: 1712
VWidth: 2170
GlyphClass: 2
Flags: HW
HStem: 0 147<422.969 528.969> 299 135<411.969 537.969> 991 179<447.969 670.969 1035.97 1241.97>
VStem: 128 283<170 299 410 958> 541 177<159 295> 713 284<558 951> 1292 284<0 945>
LayerCount: 2
Fore
SplineSet
855 1032 m 1xf2
 897 1142 1010 1208 1164 1208 c 0
 1439 1208 1576 1049 1576 731 c 2
 1576 -32 l 5
 1292 -32 l 5
 1292 751 l 2
 1292 900 1281 1029 1130 1029 c 0
 1011 1029 997 905 997 786 c 2
 997 596 l 1
 713 596 l 1
 713 747 l 2
 713 882 709 1029 574 1029 c 0
 426 1029 411 938 411 786 c 2
 411 383 l 5
 451 391 l 6
 472 395 493 397 513 397 c 4
 633 397 718 320 718 187 c 4
 718 28 608 -32 437 -32 c 4
 240 -32 128 107 128 305 c 6
 128 735 l 2
 128 1046 250 1208 549 1208 c 0
 704 1208 815 1146 855 1032 c 1xf2
480 115 m 4
 521 115 541 148 541 193 c 4
 540 243 515 267 463 267 c 6
 411 267 l 5
 411 203 l 6
 411 150 431 115 480 115 c 4
EndSplineSet
EndChar

StartChar: uni0E96
Encoding: 3734 3734 215
Width: 1526
VWidth: 2170
GlyphClass: 2
Flags: HW
HStem: 0 147<605.798 708.798> 300 129<593.798 714.798> 761 154<188.798 307.798> 991 179<660.798 1017.8> 1040 130<196.798 298.798>
VStem: 11 177<915 1030> 310 284<154 300 409 767 917 934> 723 176<158 293> 1109 284<-330 897>
LayerCount: 2
Fore
SplineSet
865 1208 m 0xe780
 1180 1208 1393 1053 1393 740 c 2
 1393 -330 l 1
 1109 -330 l 1
 1109 739 l 2
 1109 933 1033 1029 842 1029 c 0
 737 1029 672 994 594 945 c 1
 594 384 l 5
 631 390 l 6
 650 393 671 397 694 397 c 4
 815 397 899 308 899 187 c 4
 899 41 803 -32 609 -32 c 4
 409 -32 310 125 310 327 c 6
 310 805 l 1
 288 801 260 799 229 799 c 256
 103 799 11 877 11 1003 c 0
 11 1149 110 1208 265 1208 c 0
 369 1208 456 1175 525 1108 c 1
 636 1175 749 1208 865 1208 c 0xe780
658 115 m 5
 698 115 723 145 723 188 c 5
 719 239 692 266 642 268 c 5
 594 268 l 5
 594 208 l 5
 601 152 623 120 658 115 c 5
246 1078 m 0
 207 1078 189 1053 188 1016 c 1
 189 974 206 953 241 953 c 0
 261 953 285 958 310 969 c 1
 307 1042 285 1078 246 1078 c 0
EndSplineSet
EndChar

StartChar: uni0E97
Encoding: 3735 3735 216
Width: 1619
VWidth: 2170
GlyphClass: 2
Flags: HW
HStem: 0 177<463.646 646.646> 739 131<198.646 281.646> 991 179<995.646 1140.65> 1023 147<206.646 326.646>
VStem: 17 177<877 1011> 173 267<197 514> 338 248<872 1011> 692 283<219 974> 1180 284<0 976>
DStem2: 192.646 422 444.646 367 0.263422 0.964681<-109.893 337.661 464.934 552.126>
LayerCount: 2
Fore
SplineSet
975 459 m 6xe180
 975 149 857 -32 561 -32 c 4
 328 -32 173 58 173 281 c 4
 173 321 183.776367188 352.799804688 193 390 c 6
 283 785 l 1
 259 778 242 777 214 777 c 0
 94 777 17 872 17 993 c 0
 17 1146 136 1208 302 1208 c 0xd180
 447 1208 586 1137 586 994 c 0
 586 970 583 947 577 927 c 1
 445 335 l 5
 443 319 440 302 440 285 c 6
 440 273 l 5
 445 187 484 145 557 145 c 4
 683 145 692 296 692 452 c 6
 692 819 l 2
 692 1088 824 1208 1092 1208 c 0
 1368 1208 1464 1047 1464 762 c 2
 1464 -32 l 5
 1180 -32 l 5
 1180 764 l 2
 1180 782 1180 800 1180 819 c 0
 1180 922 1173 1029 1083 1029 c 0
 984 1029 975 946 975 844 c 2
 975 459 l 6xe180
264 1061 m 0
 217 1061 194 1033 194 984 c 0
 195 934 226 908 285 908 c 2
 316 908 l 1
 334 970 l 1
 337 975 338 982 338 993 c 0
 338 1035 309 1061 264 1061 c 0
EndSplineSet
EndChar

StartChar: uni0E99
Encoding: 3737 3737 217
Width: 1604
VWidth: 2170
GlyphClass: 2
Flags: HW
HStem: 0 177<133.828 279.828 739.828 1084.83> 740 130<271.828 376.828> 1023 147<253.828 371.828>
VStem: 73 177<883 1021> 379 283<280 762 870 1018> 1156 283<248 1170>
LayerCount: 2
Fore
SplineSet
250 984 m 0
 250 934 283 908 334 908 c 2
 379 908 l 1
 379 968 l 2
 379 1027 357 1058 311 1061 c 1
 270 1061 250 1036 250 984 c 0
73 991 m 0
 73 1148 187 1208 359 1208 c 0
 556 1208 662 1061 662 862 c 2
 662 463 l 6
 662 257 709 145 911 145 c 4
 1104 145 1156 236 1156 430 c 6
 1156 1208 l 1
 1439 1208 l 1
 1439 466 l 6
 1439 130 1258 -32 919 -32 c 4
 706 -32 594 16 512 117 c 5
 487 58 401 -32 264 -32 c 5
 214 138 l 5
 334 168 379 203 379 331 c 6
 379 787 l 1
 334 781 302 778 280 778 c 0
 154 778 73 864 73 991 c 0
EndSplineSet
EndChar

StartChar: uni0E9A
Encoding: 3738 3738 218
Width: 1485
VWidth: 2170
GlyphClass: 2
Flags: HW
HStem: 0 177<527.646 968.646> 739 129<197.646 281.646> 1023 147<198.646 324.646>
VStem: 17 177<876 1021> 188 266<244 574> 336 240<870 948 951 1003> 1062 284<266 1170>
DStem2: 206.646 472 473.646 475 0.267527 0.96355<-54.8869 286.994 411.936 533.232>
LayerCount: 2
Fore
SplineSet
17 988 m 0xf2
 17 1142 125 1208 291 1208 c 0
 448 1208 576 1117 576 961 c 0xf6
 576 881 542.75 810.125976562 524 710 c 2
 474 443 l 6
 462.79296875 390.328125 454 347 454 312 c 4
 454 187 598 145 729 145 c 4
 952 145 1062 202 1062 422 c 6
 1062 1208 l 1
 1346 1208 l 1
 1346 475 l 6
 1346 101 1122 -32 733 -32 c 4
 452 -32 188 56 188 328 c 4xea
 188 367 198.436523438 404.620117188 207 440 c 6
 283 786 l 1
 262 780 239 777 217 777 c 0
 99 777 17 870 17 988 c 0xf2
337 989 m 1
 337 1036 308 1061 259 1061 c 0
 216 1061 194 1034 194 980 c 0
 194 931 225 907 289 906 c 1
 296 906 l 1
 297 907 300 907 306 907 c 2
 315 907 l 1
 324 936 l 2
 327 946 336 973 336 986 c 1
 337 989 l 1
EndSplineSet
EndChar

StartChar: uni0E9B
Encoding: 3739 3739 219
Width: 1516
VWidth: 2170
GlyphClass: 2
Flags: HW
HStem: 0 177<526.646 966.646> 739 129<197.646 282.646> 1023 147<198.646 326.646>
VStem: 17 177<874 1018> 188 266<243 572> 337 238<869 1012> 1071 284<279 1513>
DStem2: 216.646 510 473.646 475 0.263569 0.964641<-94.6151 246.645 371.594 461.88>
LayerCount: 2
Fore
SplineSet
17 988 m 0xf2
 17 1140 144 1208 299 1208 c 0
 455 1208 576 1115 576 960 c 0
 576 908 560.16015625 865.649414062 548 806 c 2
 474 443 l 6
 462.25 390.444335938 454 349 454 314 c 4
 454 183 594 145 749 145 c 4
 969 145 1071 227 1071 446 c 6
 1071 1513 l 1
 1355 1513 l 1
 1355 480 l 6
 1355 99 1121 -32 737 -32 c 4
 457 -32 188 55 188 327 c 4xea
 188 381 205 428.74609375 217 478 c 6
 284 785 l 1
 263 780 240 777 216 777 c 0
 99 777 17 870 17 988 c 0xf2
337 994 m 1xf6
 337 1036 312 1061 269 1061 c 0
 219 1060 194 1032 194 980 c 0
 194 930 224 906 283 906 c 2
 316 906 l 1
 327 946 l 2
 332 964 334 978 337 994 c 1xf6
EndSplineSet
EndChar

StartChar: uni0E9C
Encoding: 3740 3740 220
Width: 1671
VWidth: 2170
GlyphClass: 2
Flags: HW
HStem: 0 177<468.858 650.858 1023.86 1203.86> 740 130<435.858 541.858 1120.86 1245.86> 1023 147<441.858 554.858 1127.86 1233.86>
VStem: 151 283<213 760 870 1019> 565 177<885 1011> 697 284<242 588> 940 176<877 1010> 1246 283<240 747> 1488 175<1036 1305>
LayerCount: 2
Fore
SplineSet
1246 968 m 2xf3
 1246 1023 1228 1059 1179 1061 c 1
 1140 1061 1116 1028 1116 986 c 0
 1116 934 1146 908 1206 908 c 2
 1227 908 l 130
 1233 908 1241 908 1246 909 c 1
 1246 968 l 2xf3
565 988 m 0xf8
 565 1031 545 1061 502 1061 c 1
 456 1058 434 1027 434 968 c 2
 434 908 l 1
 479 908 l 1
 531 911 565 935 565 988 c 0xf8
1246 785 m 1xf5
 1217 779 1185 778 1149 778 c 0
 1022 778 940 864 940 992 c 0
 940 1150 1054 1208 1224 1208 c 0
 1348 1208 1427 1156 1474 1073 c 1
 1484 1098 1488 1134 1488 1180 c 2
 1488 1343 l 1
 1663 1343 l 1
 1663 1180 l 2xf280
 1663 1052 1601 969 1524 904 c 1
 1526 873 1529 846 1529 816 c 2
 1529 479 l 6
 1529 139 1404 -32 1154 -32 c 4
 972 -32 865 44 836 196 c 5
 808 44 703 -32 520 -32 c 4
 241 -32 151 181 151 479 c 6
 151 848 l 2
 151 1057 246 1208 453 1208 c 0
 628 1208 742 1152 742 991 c 0xf9
 742 867 659 778 534 778 c 0
 499 778 466 784 434 798 c 1
 434 397 l 6
 434 272 441 145 560 145 c 4
 671 145 697 266 697 397 c 6
 697 588 l 1
 981 588 l 1
 981 399 l 6
 981 265 1003 145 1117 145 c 260
 1230 145 1246 261 1246 395 c 6
 1246 785 l 1xf5
EndSplineSet
EndChar

StartChar: uni0E9D
Encoding: 3741 3741 221
Width: 1729
VWidth: 2170
GlyphClass: 2
Flags: HW
HStem: 0 177<470.818 688.818 1060.82 1266.82> 740 130<434.818 553.818> 1023 147<439.818 549.818>
VStem: 150 283<219 761 870 1020> 564 176<881 1010> 733 284<238 588> 1312 284<222 1513>
LayerCount: 2
Fore
SplineSet
433 397 m 6xfa
 433 257 446 145 582 145 c 4
 712 145 733 251 733 397 c 6
 733 556 l 5
 1017 556 l 5
 1017 397 l 6xf6
 1017 256 1040 145 1160 145 c 4
 1289 145 1312 252 1312 397 c 6
 1312 1513 l 1
 1596 1513 l 1
 1596 479 l 6
 1596 168 1492 -32 1202 -32 c 4
 1003 -32 911 45 873 196 c 5
 847 50 746 -32 576 -32 c 4
 260 -32 150 161 150 479 c 6
 150 858 l 2
 150 1053 254 1208 447 1208 c 0
 642 1208 740 1137 740 994 c 0
 740 866 662 778 534 778 c 0
 516 778 482 785 433 799 c 1
 433 397 l 6xfa
564 991 m 1xfa
 564 1029 541 1061 502 1061 c 0
 456 1061 433 1031 433 968 c 2
 433 908 l 1
 477 908 l 1
 532 915 561 943 564 991 c 1xfa
EndSplineSet
EndChar

StartChar: uni0E9E
Encoding: 3742 3742 222
Width: 1675
VWidth: 2170
GlyphClass: 2
Flags: HW
HStem: 0 177<475.646 669.646 1027.65 1221.65> 739 130<215.646 280.646> 1023 147<199.646 323.646>
VStem: 17 177<882 1018> 187 267<195 570> 336 240<870 1013> 704 284<246 1169> 1256 283<233 1170>
DStem2: 205.646 470 467.646 457 0.263675 0.964612<-71.992 288.016 414.266 502.421>
LayerCount: 2
Fore
SplineSet
286 1208 m 0xf3
 441 1208 576 1125 576 972 c 0xf7
 576 953 571 921 563 875 c 1
 468 425 l 5
 461 378 454 339 454 294 c 4
 454 195 490 146 563 145 c 5
 690 145 704 246 704 375 c 6
 704 1207 l 1
 988 1207 l 1
 988 375 l 6
 988 241 1013 145 1127 145 c 4
 1241 145 1256 244 1256 374 c 6
 1256 1208 l 1
 1539 1208 l 1
 1539 480 l 6
 1539 175 1446 -32 1164 -32 c 4
 986 -32 880 50 845 213 c 5
 820 56 713 -32 527 -32 c 4
 313 -32 187 84 187 298 c 4xeb
 187 350 195.463867188 394.331054688 206 438 c 6
 282 785 l 1
 261 780 241 777 216 777 c 0
 97 777 17 868 17 988 c 0
 17 1142 122 1208 286 1208 c 0xf3
336 993 m 0
 336 1041 310 1061 263 1061 c 1
 221 1057 197 1032 194 986 c 1
 194 928 224 907 284 907 c 2
 315 907 l 1
 327 953 l 2
 329 963 336 981 336 993 c 0
EndSplineSet
EndChar

StartChar: uni0E9F
Encoding: 3743 3743 223
Width: 1663
VWidth: 2170
GlyphClass: 2
Flags: HW
HStem: 0 177<464.646 650.646 1010.65 1206.65> 1037 134<186.646 323.646>
VStem: 17 162<892 1029> 172 266<200 568> 326 243<904 1033> 689 283<246 1169> 1240 283<220 1514>
DStem2: 193.646 479 459.646 478 0.2617 0.965149<-65.8005 310.885 405.21 512.443>
LayerCount: 2
Fore
SplineSet
190 804 m 0xd6
 78 804 17 884 17 1001 c 0
 17 1150 134 1209 298 1209 c 0
 436 1209 569 1145 569 1010 c 256xee
 569 981 559.928710938 936.45703125 547 873 c 2
 460 446 l 2
 448.469726562 393.65234375 438 357 438 312 c 0
 438 201 476 145 551 145 c 0
 675 145 689 249 689 375 c 2
 689 1208 l 1
 972 1208 l 1
 972 374 l 2
 972 240 995 145 1112 145 c 0
 1231 145 1240 253 1240 375 c 2
 1240 1514 l 1
 1523 1514 l 1
 1523 480 l 2
 1523 139 1398 -32 1149 -32 c 0
 971 -32 861 50 828 213 c 1
 796.717160153 53.558429166 690.47776132 -32 511 -32 c 0
 285 -32 172 77 172 304 c 0
 172 354 182.018554688 397.46875 194 447 c 1
 276 818 l 1
 255 808 226 804 190 804 c 0xd6
253 1076 m 1
 206 1069 182 1042 179 1001 c 1
 179 926 222 919 304 919 c 1
 312 943 l 1
 326 1007 l 1
 326 1013 l 1
 325 1053 301 1075 253 1076 c 1
EndSplineSet
EndChar

StartChar: uni0EA1
Encoding: 3745 3745 224
Width: 1824
VWidth: 2170
GlyphClass: 2
Flags: HW
HStem: 0 177<980.495 1305.49> 0 148<248.495 342.495> 300 131<226.495 329.495>
VStem: 38 178<166 289> 343 149<177 280> 606 284<276 1170> 1391 283<264 1170>
LayerCount: 2
Fore
SplineSet
890 474 m 6x7e
 890 270 947 145 1134 145 c 4
 1324 145 1391 240 1391 432 c 6
 1391 1208 l 1
 1674 1208 l 1
 1674 475 l 6
 1674 137 1500 -32 1153 -32 c 4xbe
 944 -32 787 52 746 218 c 5
 707 56 537 -32 335 -32 c 4
 169 -32 38 33 38 196 c 4
 38 321 130 399 256 399 c 4
 397 399 493 341 493 206 c 4
 493 177 489 158 482 144 c 5
 565 196 606 303 606 466 c 6
 606 1208 l 1
 890 1208 l 1
 890 474 l 6x7e
278 268 m 4
 238 268 216 238 216 199 c 4
 216 131 271 120 343 116 c 5x7e
 343 193 l 5
 338 235 323 268 278 268 c 4
EndSplineSet
EndChar

StartChar: uni0EA2
Encoding: 3746 3746 225
Width: 1423
VWidth: 2170
GlyphClass: 2
Flags: HW
HStem: 0 178<461.454 922.454> 450 166<462.454 729.454> 738 131<424.454 531.454> 1023 147<430.454 547.454>
VStem: 140 283<221 418 657 761 869 1020> 553 177<881 1020> 998 283<255 1517>
LayerCount: 2
Fore
SplineSet
423 279 m 4
 423 153 574 146 708 146 c 4
 915 146 998 209 998 416 c 6
 998 1137 l 2
 998 1318 1020 1466 1066 1578 c 1
 1333 1578 l 1
 1299 1439 1281 1291 1281 1113 c 2
 1281 441 l 6
 1281 84 1067 -32 708 -32 c 4
 414 -32 140 22 140 275 c 4
 140 435.125 259 519 408 519 c 5
 255 537.797202797 140 656.454545455 140 855 c 0
 140 1060 248 1208 450 1208 c 0
 637 1208 730 1132 730 978 c 0
 730 857 641 776 520 776 c 0
 482 776 463 786 423 799 c 1
 423 793 l 2
 423 659.492753623 473 605 572 605 c 6
 729 605 l 5
 729 438 l 5
 572 438 l 6
 477 438 423 386.525179856 423 279 c 4
477 907 m 2
 522 907 553 933 553 979 c 0
 553 1033 530 1061 487 1061 c 0
 444 1060 423 1025 423 956 c 2
 423 907 l 1
 477 907 l 2
EndSplineSet
EndChar

StartChar: uni0EA3
Encoding: 3747 3747 226
Width: 1388
VWidth: 2170
GlyphClass: 2
Flags: HW
HStem: 0 174<381.676 916.676> 455 145<291.676 404.676> 991 179<404.676 941.676>
VStem: 95 186<301 450> 416 176<313 442> 989 257<810 944> 1018 263<259 472>
DStem2: 547.676 832 406.676 639 0.97556 -0.219733<-149.351 506.256>
LayerCount: 2
Fore
SplineSet
95 316 m 4xfa
 95 481 183 568 350 568 c 4
 486 568 592 489 592 354 c 4
 592 252 515 169 413 169 c 5
 379 175 l 5
 429 153 529 142 677 142 c 4
 835 142 1018 183 1018 334 c 4xfa
 1018 635.088685015 423 624.162079511 254 731 c 128
 170 774 110 840 110 963 c 0
 110 1177 391 1208 654 1208 c 0
 969 1208 1245 1174 1245 870 c 2
 1245 848 l 1
 989 848 l 1
 989 874 l 2xfc
 989 1028 826 1029 666 1029 c 2
 659 1029 l 2
 641 1029 620 1029 598 1029 c 0
 506 1029 394 1023 394 959 c 1
 398 865 611 856 713 837 c 0
 991 778.586538462 1281 719.004807692 1281 351 c 4
 1281 63 984 -32 687 -32 c 4
 409 -32 95 49 95 316 c 4xfa
416 341 m 4
 416 390 396 422 351 423 c 5
 305 422 282 383 281 303 c 4
 281 291 284 280 286 267 c 5
 324 267 l 5
 377 269 416 288 416 341 c 4
EndSplineSet
EndChar

StartChar: uni0EA5
Encoding: 3749 3749 227
Width: 1443
VWidth: 2170
GlyphClass: 2
Flags: HW
HStem: 0 220<938.525 1025.52> 0 147<334.525 442.525> 300 130<342.525 451.525> 498 175<363.525 580.525> 991 179<489.525 938.525>
VStem: 107 219<151 300> 159 229<780 896> 455 165<161 296> 1036 284<301 896>
DStem2: 827.525 467 649.525 356 0.520727 -0.853723<-185.237 291.346>
LayerCount: 2
Back
SplineSet
973 0 m 4
 649.105012273 0 723.33957772 445 451 445 c 4
 390.233870968 445 337.201612903 416.222222222 314 371 c 5
 352.657534247 381 379.945205479 386 397 386 c 4
 512.790575916 386 591 309.5 591 206 c 4
 591 68 481 0 341 0 c 4
 188 0 106 126 106 281 c 4
 106 457.186440678 245 556 434 556 c 4
 668 556 759 423.759450172 851 285 c 4
 875 246 894 204 931 204 c 4
 966 204 973 252 973 296 c 6
 973 660 l 5
 913.700012207 635.799987793 739 621 663 621 c 4
 399 621 118 650.366255144 118 844 c 4
 118 1017 300 1104 663 1104 c 4
 904 1104 1056 1055 1118 958 c 5
 1132 1005 1139 1050 1139 1093 c 6
 1139 1172 l 5
 1332 1172 l 5
 1332 1101 l 6
 1332 970 1300 864 1234 804 c 5
 1239 768.603174603 1241 694.26984127 1241 581 c 6
 1241 401 l 6
 1241 191 1177 0 973 0 c 4
359 129 m 4
 417.636363636 129 443.696969697 163.263157895 445 213 c 5
 442.534883721 258.294117647 406.790697674 281.970588235 339 283 c 5
 303 283 l 5
 303 276.538311687 302.991675338 270.191047002 302.991675338 263.691920379 c 4
 302.991675338 198.953195687 304.741935484 129 359 129 c 4
663 773 m 4
 797 773 901 784 988 828 c 5
 982 923 802 935 663 935 c 4
 540 935 386 932 386 844 c 4
 386 765.075417272 560.153030488 773 663 773 c 4
EndSplineSet
Fore
SplineSet
386 105 m 4x3980
 447 105 474 142 475 193 c 4
 475 239 445 264 387 268 c 5
 326 268 l 5
 326 263 l 6
 326 257 326 250 326 244 c 4
 326 177 329 105 386 105 c 4x3980
1036 698 m 2
 1036 948 959 1018 718 1029 c 1
 528 1029 408 975 388 818 c 1
 159 818 l 1
 159 1114 421 1208 724 1208 c 0
 1098 1208 1320 1082 1320 712 c 2
 1320 416 l 6
 1320 147 1254 -32 1020 -32 c 4xb980
 712 -32 761 445 472 445 c 4
 405 445 365 414 342 360 c 5
 378 376 398 377 437 377 c 5
 551 367 630 294 630 186 c 4
 630 43 526 -32 370 -32 c 4x7980
 217 -32 117 84 117 275 c 4
 117 448 263 568 472 568 c 260
 829 568 933 188 983 188 c 4xb980
 1052 188 1036 287 1036 355 c 6
 1036 698 l 2
EndSplineSet
EndChar

StartChar: uni0EA7
Encoding: 3751 3751 228
Width: 1370
VWidth: 2170
GlyphClass: 2
Flags: HW
HStem: 0 161<367.676 858.676> 442 145<301.676 410.676> 991 179<449.676 891.676>
VStem: 95 192<287 424> 131 230<782 906> 423 177<300 429> 982 284<285 900>
LayerCount: 2
Fore
SplineSet
350 555 m 4xf6
 490 555 600 480 600 341 c 4
 600 235 526 157 421 157 c 5
 365 166 l 5
 429 142 522 129 646 129 c 4
 877 129 982 225 982 451 c 6
 982 698 l 2
 982 942 915 1029 669 1029 c 0
 486 1029 385 977 361 820 c 1
 131 820 l 1xee
 131 1108 378 1208 674 1208 c 0
 1051 1208 1266 1086 1266 712 c 2
 1266 445 l 6
 1266 111 1026 -32 674 -32 c 4
 407 -32 95 41 95 298 c 4
 95 464 184 555 350 555 c 4xf6
423 327 m 4
 423 375 402 410 355 410 c 5
 302 408 287 354 287 290 c 4xf6
 287 271 288 259 291 254 c 5
 321 254 l 6
 379 254 423 274 423 327 c 4
EndSplineSet
EndChar

StartChar: uni0EAA
Encoding: 3754 3754 229
Width: 1443
VWidth: 2170
GlyphClass: 2
Flags: HW
HStem: 0 216<931.525 1070.52> 0 147<334.525 442.525> 300 130<352.525 450.525> 472 139<358.525 598.525> 637 182<429.525 1015.52> 991 179<439.525 997.525>
VStem: 117 209<149 300> 455 176<160 292> 1036 284<241 700> 1212 205<1018 1242>
DStem2: 810.525 441 776.525 149 0.602658 -0.798<-203.281 287.922>
LayerCount: 2
Fore
SplineSet
1036 -32 m 4x3f80
 693 -32 772 440 483 440 c 4
 419 440 363 409 338 361 c 5
 379 372 408 377 426 377 c 4
 549 377 631 296 631 186 c 4
 631 40 514 -32 366 -32 c 4
 204 -32 117 102 117 266 c 4
 117 453 265 557 465 557 c 4
 713 557 809 417 907 270 c 4
 932 229 953 184 992 184 c 4
 1029 184 1036 235 1036 282 c 6
 1036 738 l 1x3f80
 973 712 789 696 708 696 c 0
 428 696 130 728 130 933 c 0
 130 1116 323 1208 708 1208 c 0
 963 1208 1124 1156 1190 1053 c 1
 1205 1103 1212 1151 1212 1197 c 2
 1212 1280 l 1
 1417 1280 l 1
 1417 1205 l 2x3f40
 1417 1066 1383 954 1313 890 c 1
 1318 840.728813559 1320 739.593220339 1320 584 c 6
 1320 393 l 6
 1320 170 1252 -32 1036 -32 c 4x3f80
386 105 m 4
 448 105 476 141 477 194 c 5
 474 242 436 267 364 268 c 5
 326 268 l 5
 326 261 326 255 326 248 c 4
 326 179 328 105 386 105 c 4
708 857 m 0
 850 857 960 869 1052 916 c 1
 1046 1017 855 1029 708 1029 c 0
 578 1029 414 1026 414 933 c 0
 414 849 599 857 708 857 c 0
EndSplineSet
EndChar

StartChar: uni0EAB
Encoding: 3755 3755 230
Width: 2036
VWidth: 2170
GlyphClass: 2
Flags: HW
HStem: 0 177<513.646 869.646> 740 154<821.646 942.646> 740 130<199.646 235.646> 991 179<1311.65 1573.65> 1023 147<198.646 324.646 829.646 931.646>
VStem: 17 177<878 1020> 181 267<239 548> 642 177<896 1021> 943 284<252 754 894 936> 1613 284<0 949>
DStem2: 193.646 426 458.646 426 0.264675 0.964338<-1.1837 337.662 460.565 548.935>
LayerCount: 2
Fore
SplineSet
220 778 m 1xa5c0
 95 778 17 867 17 993 c 0xa5c0
 17 1150 131 1208 303 1208 c 0
 449 1208 585 1136 585 993 c 0
 585 955 577 911 560 860 c 1
 459 394 l 6
 452.897460938 367.776367188 448 344 448 322 c 4
 448 197 557 145 692 145 c 4
 872 145 943 227 943 407 c 6
 943 792 l 1
 922 782 895 778 862 778 c 0
 722 778 642 856 642 998 c 0
 642 1145 753 1208 913 1208 c 0
 1037 1208 1128 1167 1184 1085 c 1
 1278 1149 1359 1208 1475 1208 c 0
 1756 1208 1897 1053 1897 740 c 2
 1897 -32 l 5
 1613 -32 l 5
 1613 735 l 2
 1613 910 1611 1029 1440 1029 c 0
 1360 1029 1293 987 1227 949 c 1
 1227 411 l 6
 1227 87 1006 -32 665 -32 c 4
 428 -32 201 71 182 285 c 4
 182 288 182 290 181 291 c 5
 181 307 l 6xa3c0
 181 333 186.315429688 362.921875 194 394 c 6
 284 790 l 1
 261 786 241 782 220 778 c 1xa5c0
337 994 m 1
 337 1033 303 1061 262 1061 c 0
 219 1060 195 1035 194 984 c 1
 197 934 229 908 287 908 c 2
 316 908 l 1
 329 965 336 994 337 994 c 1
884 1070 m 256
 843 1070 820 1043 819 1003 c 1
 820 955 842 932 883 932 c 0
 909 932 929 935 943 942 c 1
 943 975 l 2
 943 1031 933 1070 884 1070 c 256
EndSplineSet
EndChar

StartChar: uni0EAD
Encoding: 3757 3757 231
Width: 1393
VWidth: 2170
GlyphClass: 2
Flags: HW
HStem: 0 161<398.394 881.394> 189 99<395.394 429.394> 442 145<316.394 430.394> 611 198<392.394 975.394> 991 179<404.394 961.394>
VStem: 94 283<844 960> 108 193<287 424> 434 177<298 440> 1005 285<290 664 846 943>
LayerCount: 2
Fore
SplineSet
377 933 m 0xfd80
 377 836 555 847 675 847 c 0
 890 847 998 876 1000 933 c 1
 1000 1020 789 1029 654 1029 c 0
 525 1029 377 1025 377 933 c 0xfd80
337 534 m 4
 471 534 580 473 580 357 c 4
 580 259 529 189 374 158 c 5
 429 135 521 124 649 124 c 4
 977 124 1005 314.426853707 1005 693 c 2
 1005 755 l 1
 932 664 739 649 668 649 c 0
 285 649 94 743 94 933 c 0
 94 1116 281 1208 654 1208 c 0
 1020 1208 1290 1119 1290 761 c 2
 1290 483 l 6
 1290 140 1089 -32 686 -32 c 4
 409 -32 87 41 87 298 c 4
 87 447 175 534 337 534 c 4
353 410 m 4
 285 410 258 360 258 301 c 4
 258 285 262 269 264 254 c 5
 347 254 408 266 413 326 c 5
 413 382 393 410 353 410 c 4
EndSplineSet
EndChar

StartChar: uni0EAE
Encoding: 3758 3758 232
Width: 1315
VWidth: 2170
GlyphClass: 2
Flags: HW
HStem: 0 161<368.676 870.676> 441 146<304.676 417.676> 858 192<749.676 1020.68> 982 189<357.676 622.676>
VStem: 101 193<289 435> 429 177<300 428> 947 284<232 452> 1028 204<1064 1170>
DStem2: 643.676 800 545.676 611 0.951758 -0.306851<-286.238 358.629> 630.676 1127 638.676 930 0.972473 -0.233016<-160.954 342.471>
LayerCount: 2
Fore
SplineSet
429 326 m 4xcc
 429 373 409 409 364 409 c 4
 317 408 294 367 294 290 c 4
 294 278 295 267 297 256 c 5
 341 256 l 6
 394 256 429 276 429 326 c 4xcc
965 1087 m 0
 999 1087 1028 1108 1028 1143 c 2
 1028 1208 l 1xcd
 1231 1208 l 1
 1231 1143 l 2
 1231 979 1160 896 1018 896 c 0
 855 896 557 1020 430 1020 c 0
 404 1020 383 1008 383 984 c 0
 383 912 549 869 644 838 c 2
 838 776 l 2
 1028 704.91796875 1231 606.588867188 1231 327 c 4
 1231 43 971 -32 652 -32 c 4
 379 -32 101 40 101 303 c 4
 101 466 193 555 359 555 c 4
 495 555 606 477 606 342 c 4
 606 231 525 158 414 158 c 5
 367 166 l 5
 428 142 526 129 660 129 c 4
 818 129 941 173 947 308 c 5xce
 943 516.639648438 744 567.83984375 606 628 c 2
 546 649 l 2
 362 712 131 759 131 988 c 0
 131 1119 241 1208 373 1208 c 0
 590 1208 768 1087 965 1087 c 0
EndSplineSet
EndChar

StartChar: uni0EAF
Encoding: 3759 3759 233
Width: 1426
VWidth: 2170
GlyphClass: 2
Flags: HW
HStem: 401 195<386.939 711.939> 710 148<508.939 612.939>
VStem: 50 264<668 977> 617 165<860 1001>
DStem2: 592.939 -334 826.939 -432 0.391894 0.92001<0.694954 1170.41>
LayerCount: 2
Fore
SplineSet
782 977 m 0
 782 837 693 710 553 710 c 0
 447 710 374 773 374 880 c 1
 380 915 385 949 395 1004 c 1
 341 976 314 913 314 812 c 0
 314 677 401 596 538 596 c 0
 799 596 992 883 1095 1058 c 1
 1145 1144 l 1
 1446 1021 l 1
 827 -432 l 1
 593 -334 l 1
 1049 744 l 1
 1015 691 l 2
 912 530 769 401 533 401 c 0
 267 401 50 533 50 796 c 0
 50 1043 227 1222 473 1222 c 0
 637 1222 782 1139 782 977 c 0
501 916 m 2
 501 879 523 859 562 859 c 1
 598 862 616 886 617 932 c 1
 615 982 576 1012 503 1019 c 1
 502 981 501 959 501 930 c 130
 501 916 l 2
EndSplineSet
EndChar

StartChar: uni0EB1
Encoding: 3761 3761 235
Width: 2
VWidth: 2170
GlyphClass: 2
Flags: HW
HStem: 1247 190<-918.91 -787.914 -710.914 -272.914> 1567 157<-930.91 -799.914>
VStem: -1104 161<1449 1554> -788 117<1437 1548> -231 213<1479 1649>
LayerCount: 2
Fore
SplineSet
-869 1567 m 0
 -912 1567 -943 1545 -943 1503 c 0
 -942 1455 -906 1436 -853 1436 c 2
 -788 1436 l 1
 -788 1502 l 2
 -788 1545 -821 1567 -869 1567 c 0
-872 1724 m 0
 -766 1724 -672 1667 -672 1562 c 0
 -672 1538 -675 1515 -685 1494 c 2
 -711 1436 l 1
 -491 1436 l 2
 -301 1436 -236 1461 -231 1649 c 1
 -18 1649 l 1
 -18 1353 -220 1247 -515 1247 c 2
 -688 1247 l 2
 -895 1247 -1104 1274 -1104 1472 c 0
 -1104 1639 -1027 1724 -872 1724 c 0
EndSplineSet
EndChar

StartChar: uni0EB2
Encoding: 3762 3762 236
Width: 1047
VWidth: 2170
GlyphClass: 2
Flags: HW
HStem: 0 22G<590.262 873.262> 708 149<248.262 372.262> 1021 152<244.262 388.262>
VStem: 58 176<871 1009> 388 112<888 1001> 388 95<911 1013> 590 283<0 984>
LayerCount: 2
Fore
SplineSet
303 744 m 4xf2
 161 744 58 813 58 954 c 4
 58 1136 204 1208 403 1208 c 4
 702 1208 873 1093 873 804 c 6
 873 0 l 1
 590 0 l 1
 590 854 l 6
 590 965 570 1027 483 1049 c 5
 500 935 l 5
 500 808 434 744 303 744 c 4xf2
318 894 m 4
 371 894 388 948 388 1007 c 6
 388 1057 l 5
 304 1057 234 1053 234 973 c 4
 234 921 265 894 318 894 c 4
EndSplineSet
EndChar

StartChar: uni0EB3
Encoding: 3763 3763 237
Width: 1020
VWidth: 2170
GlyphClass: 2
Flags: HW
HStem: 0 22G<613.508 896.508> 728 152<271.508 395.508> 1042 151<263.508 410.508> 1289 139<-494.492 -343.492> 1613 135<-501.492 -343.492>
VStem: -656 143<1448 1601> -324 141<1446 1593> 83 175<893 1030> 412 113<910 1016> 412 95<939 1034> 614 283<0 1005>
LayerCount: 2
Fore
SplineSet
328 744 m 4
 185 744 83 812 83 954 c 4
 83 1136 228 1208 427 1208 c 4
 726 1208 897 1095 897 807 c 6
 897 0 l 1
 614 0 l 1
 614 854 l 6
 614 965 594 1028 507 1050 c 5
 525 937 l 5
 525 809 459 744 328 744 c 4
343 896 m 4
 396 896 410 951 412 1008 c 5
 411 1058 l 5
 327 1058 258 1055 258 974 c 4
 258 922 291 896 343 896 c 4
-183 1518 m 0
 -183 1386 -285 1289 -419 1289 c 0
 -550 1289 -656 1387 -656 1518 c 0
 -656 1649 -551 1748 -419 1748 c 256
 -284 1748 -183 1653 -183 1518 c 0
-419 1428 m 0
 -364 1428 -324 1464 -324 1520 c 0
 -324 1573 -365 1613 -419 1613 c 0
 -473 1613 -513 1574 -513 1520 c 0
 -513 1469 -472 1428 -419 1428 c 0
EndSplineSet
MultipleSubs2: "ccmpGlyphCompositionDecompositi subtable" uni0ECD uni0EB2
Substitution2: "'liga' Standard Ligatures lookup 0 subtable" uni0ECD_uni0EB2
EndChar

StartChar: uni0EB4
Encoding: 3764 3764 238
Width: 3
VWidth: 2170
GlyphClass: 2
Flags: HW
HStem: 1247 158<-925.682 -752.682 -575.682 -412.682> 1619 163<-885.682 -446.682>
VStem: -1151 213<1420 1578> -396 214<1426 1581>
LayerCount: 2
Fore
SplineSet
-666 1782 m 0
 -435 1782 -182 1717 -182 1494 c 0
 -182 1314 -334 1247 -533 1247 c 2
 -576 1247 l 1
 -576 1404 l 1
 -530 1404 l 1
 -444 1409 -400 1440 -396 1494 c 1
 -396 1610 -526 1619 -666 1619 c 0
 -810 1619 -935 1606 -938 1494 c 1
 -937 1435 -891 1404 -801 1404 c 2
 -753 1404 l 1
 -753 1247 l 1
 -799 1247 l 2
 -988 1247 -1151 1310 -1151 1494 c 0
 -1151 1713 -891 1782 -666 1782 c 0
EndSplineSet
EndChar

StartChar: uni0EB5
Encoding: 3765 3765 239
Width: 3
VWidth: 2170
GlyphClass: 2
Flags: HW
HStem: 1247 158<-914.19 -742.187 -562.187 -395.187 -224.187 -9.187> 1619 163<-875.19 -424.187>
VStem: -1138 213<1420 1580> -384 215<1419 1576>
LayerCount: 2
Fore
SplineSet
-652 1782 m 0
 -427 1782 -172 1715 -169 1503 c 1
 -170 1462 -189 1428 -224 1404 c 1
 -9 1404 l 1
 -9 1247 l 1
 -562 1247 l 1
 -562 1404 l 1
 -518 1404 l 2
 -429 1404 -384 1435 -384 1494 c 0
 -384 1578 -473 1619 -652 1619 c 0
 -795 1619 -925 1608 -925 1494 c 0
 -925 1435 -879 1404 -789 1404 c 2
 -742 1404 l 1
 -742 1247 l 1
 -786 1247 l 2
 -975 1247 -1138 1310 -1138 1494 c 0
 -1138 1712 -877 1782 -652 1782 c 0
EndSplineSet
EndChar

StartChar: uni0EB6
Encoding: 3766 3766 240
Width: 3
VWidth: 2170
GlyphClass: 2
Flags: HW
HStem: 1247 157<-884.682 -748.682 -499.682 -372.682> 1394 153<-687.682 -555.682> 1619 163<-845.682 -407.682>
VStem: -1111 213<1420 1578> -716 189<1418 1524> -356 214<1423 1580>
LayerCount: 2
Fore
SplineSet
-626 1619 m 0xbc
 -770 1619 -895 1606 -898 1494 c 1
 -897 1436 -851 1404 -761 1403 c 1
 -749 1403 l 1
 -749 1247 l 1
 -759 1247 l 2
 -948 1247 -1111 1310 -1111 1494 c 0
 -1111 1713 -851 1782 -626 1782 c 0
 -395 1782 -142 1717 -142 1494 c 0
 -142 1314 -294 1247 -493 1247 c 2
 -500 1247 l 1
 -500 1403 l 1
 -490 1403 l 1
 -403 1407 -359 1438 -356 1494 c 1
 -359 1608 -485 1619 -626 1619 c 0xbc
-622 1394 m 0x7c
 -571 1394 -528 1423 -528 1473 c 0
 -528 1519 -573 1547 -622 1547 c 0
 -671 1547 -716 1521 -716 1473 c 0
 -716 1424 -675 1394 -622 1394 c 0x7c
EndSplineSet
EndChar

StartChar: uni0EB7
Encoding: 3767 3767 241
Width: 3
VWidth: 2170
GlyphClass: 2
Flags: HW
HStem: 1247 158<-914.19 -777.187 -527.187 -415.187 -223.187 -8.187> 1394 153<-714.187 -587.187> 1619 163<-889.19 -425.187>
VStem: -1138 213<1420 1579> -744 188<1418 1524> -384 216<1422 1576>
LayerCount: 2
Fore
SplineSet
-652 1619 m 0xbc
 -780 1619 -921 1612 -925 1494 c 1
 -925 1435 -879 1404 -789 1404 c 2
 -777 1404 l 1
 -777 1247 l 1
 -786 1247 l 2
 -975 1247 -1138 1310 -1138 1494 c 0
 -1138 1712 -877 1782 -652 1782 c 0
 -429 1782 -168 1715 -168 1503 c 0
 -168 1460 -186 1425 -223 1403 c 1
 -8 1403 l 1
 -8 1247 l 1
 -527 1247 l 1
 -527 1404 l 1
 -518 1404 l 2
 -436 1404 -384 1423 -384 1494 c 0
 -384 1578 -473 1619 -652 1619 c 0xbc
-651 1394 m 0x7c
 -598 1394 -561 1422 -557 1473 c 1
 -557 1519 -601 1547 -651 1547 c 0
 -703 1547 -740 1522 -744 1473 c 1
 -744 1425 -702 1394 -651 1394 c 0x7c
EndSplineSet
EndChar

StartChar: uni0EB8
Encoding: 3768 3768 242
Width: 2
VWidth: 2170
GlyphClass: 2
Flags: HW
HStem: -394 80<-410.533 -347.533> -193 102<-416.533 -308.533>
VStem: -555 129<-306 -202> -300 177<-314 -202>
LayerCount: 2
Fore
SplineSet
-555 -255 m 0
 -555 -141 -470 -91 -347 -91 c 0
 -225 -91 -123 -146 -123 -267 c 0
 -123 -436 -257 -562 -359 -643 c 1
 -472 -544 l 1
 -423 -489 -385 -446 -347 -386 c 1
 -376 -390 l 2
 -392 -392 -403 -394 -416 -394 c 0
 -504 -393 -555 -346 -555 -255 c 0
-426 -255 m 0
 -426 -291 -406 -315 -370 -315 c 2
 -312 -315 l 1
 -304 -292 -300 -269 -300 -248 c 0
 -300 -210 -328 -193 -369 -193 c 0
 -407 -193 -426 -217 -426 -255 c 0
EndSplineSet
EndChar

StartChar: uni0EB9
Encoding: 3769 3769 243
Width: 2
VWidth: 2170
GlyphClass: 2
Flags: HW
HStem: -710 130<-463.815 -308.815> -488 100<-713.815 -623.815> -271 128<-724.815 -603.815>
VStem: -871 136<-378 -281> -633 153<-562 -459> -600 156<-388 -277> -300 161<-576 -151>
LayerCount: 2
Fore
SplineSet
-736 -324 m 0xf6
 -736 -364 -704 -388 -664 -388 c 2
 -600 -388 l 1
 -603 -324 l 2
 -604 -295 -642 -276 -667 -271 c 1
 -703 -271 -736 -291 -736 -324 c 0xf6
-389 -710 m 0
 -529 -710 -633 -664 -633 -536 c 0xfa
 -633 -529 -632 -516 -630 -500 c 2
 -623 -458 l 1
 -643 -478 -663 -488 -683 -488 c 0
 -787 -488 -871 -433 -871 -331 c 0
 -871 -211 -788 -143 -668 -143 c 0
 -543 -143 -444 -207 -444 -331 c 0xf6
 -444 -399 -480 -432 -480 -500 c 0xfa
 -480 -551 -441 -574 -393 -580 c 1
 -301 -580 -300 -529 -300 -436 c 0
 -300 -434 -300 -431 -300 -429 c 2
 -300 -151 l 1
 -139 -151 l 1
 -139 -418 l 2
 -139 -610 -198 -710 -389 -710 c 0
EndSplineSet
EndChar

StartChar: uni0EBB
Encoding: 3771 3771 244
Width: 2
VWidth: 2170
GlyphClass: 2
Flags: HW
HStem: 1247 157<-966.35 -835.349> 1533 172<-972.35 -822.349 -730.349 -319.349>
VStem: -1139 162<1415 1522> -822 121<1421 1532> -275 212<1247 1490>
LayerCount: 2
Fore
SplineSet
-1139 1499 m 0
 -1139 1674 -958 1704 -752 1704 c 2
 -532 1704 l 2
 -200 1704 -66 1577 -63 1247 c 1
 -275 1247 l 1
 -275 1443 -290 1533 -485 1533 c 2
 -730 1533 l 1
 -712 1476 l 2
 -705 1455 -702 1433 -702 1413 c 0
 -702 1308 -799 1247 -906 1247 c 0
 -1064 1247 -1139 1336 -1139 1499 c 0
-977 1467 m 1
 -977 1427 -947 1403 -904 1403 c 0
 -855 1403 -822 1423 -822 1471 c 2
 -822 1533 l 1
 -885 1533 l 1
 -943 1528 -974 1505 -977 1467 c 1
EndSplineSet
EndChar

StartChar: uni0EBC
Encoding: 3772 3772 245
Width: 3
VWidth: 2170
GlyphClass: 2
Flags: HW
HStem: -564 181<-552.995 -395.995>
VStem: -1339 158<-400 -265> -1060 127<-382 -249> -371 195<-374 -83>
LayerCount: 2
Fore
SplineSet
-1128 -402 m 1
 -1086 -399 -1060 -378 -1060 -332 c 2
 -1060 -245 l 1
 -1140 -256 -1180 -284 -1181 -331 c 1
 -1177 -377 -1159 -400 -1128 -402 c 1
-1117 -568 m 0
 -1261 -568 -1339 -473 -1339 -324 c 0
 -1339 -154 -1200 -83 -1026 -83 c 0
 -813 -83 -647 -276 -508 -366 c 128
 -488 -380 -483 -383 -460 -383 c 0
 -378 -383 -365 -307 -365 -217 c 0
 -365 -176 -368 -131 -368 -90 c 0
 -368 -88 -368 -85 -368 -83 c 1
 -172 -83 l 1
 -172 -346 -180 -564 -444 -564 c 0
 -686 -564 -788 -316 -965 -247 c 1
 -938 -357 l 2
 -935 -374 -933 -392 -933 -411 c 0
 -933 -514 -1010 -568 -1117 -568 c 0
EndSplineSet
EndChar

StartChar: uni0EBD
Encoding: 3773 3773 246
Width: 1312
VWidth: 2170
GlyphClass: 2
Flags: HW
HStem: -401 177<437.384 804.384> 36 120<344.384 444.384> 288 128<355.384 450.384> 1062 186<827.384 1053.38> 1213 202<468.384 648.384>
VStem: 61 283<-130 46 156 262> 209 234<1060 1199> 459 162<165 278> 886 283<-137 616> 1075 210<1263 1415>
DStem2: 596.384 1396 533.384 1213 0.921635 -0.388057<-39.6572 412.571> 952.384 829 748.384 685 0.899814 -0.436274<-586.851 26.2837>
LayerCount: 2
Fore
SplineSet
459 220 m 0xe5
 459 260 440 287 404 288 c 1
 353 288 344 240 344 182 c 2
 344 156 l 1
 395 156 l 2
 442 156 459 174 459 220 c 0xe5
209 1135 m 0xeb80
 209 1316 330 1415 512 1415 c 0xeb80
 667 1415 836 1248 981 1248 c 0xf380
 1044 1248 1075 1304 1075 1415 c 1
 1285 1415 l 1xeb40
 1285 1188 1208 1062 988 1062 c 0xf340
 830 1062 657 1158 533 1213 c 1
 481 1212 443 1191 443 1140 c 0xeb40
 443 1101 473 1065 532 1032 c 1
 952 829 l 2
 1096 758 1169 692 1169 479 c 2
 1169 90 l 2
 1169 -259 953 -401 592 -401 c 0
 276 -401 61 -224 61 90 c 0
 61 287 181 417 378 417 c 0
 525 417 621 361 621 219 c 0
 621 96 560 36 433 36 c 0
 413 36 383 40 344 46 c 1xed80
 347 -141 436 -224 625 -224 c 0
 824 -224 886 -124 886 75 c 2
 886 370 l 2
 886 543 862 630 748 685 c 2
 448 832 l 2
 319 895 209 953 209 1135 c 0xeb80
EndSplineSet
EndChar

StartChar: uni0EC0
Encoding: 3776 3776 247
Width: 855
VWidth: 2170
GlyphClass: 2
Flags: HW
HStem: 0 128<460.121 557.121> 261 121<450.121 544.121> 977 192<480.121 729.121>
VStem: 166 282<159 261 363 951> 561 176<131 252>
LayerCount: 2
Fore
SplineSet
564 382 m 0
 670 382 737 302 737 195 c 0
 737 65 652 0 481 0 c 0
 293 0 166 135 166 323 c 2
 166 691 l 2
 166 1001 243 1208 546 1208 c 0
 615 1208 659 1198 731 1184 c 1
 731 993 l 1
 682 1001 634 1016 579 1016 c 0
 450 1016 448 895 448 762 c 0
 448 629 448 496 448 363 c 1
 507 376 546 382 564 382 c 0
449 246 m 2
 449 190 456 128 503 128 c 0
 541 128 560 150 561 193 c 1
 561 240 541 261 496 261 c 2
 449 261 l 1
 449 246 l 2
EndSplineSet
EndChar

StartChar: uni0EC2
Encoding: 3778 3778 249
Width: 842
VWidth: 2170
GlyphClass: 2
Flags: HW
HStem: 0 147<508.546 613.546> 300 131<500.546 606.546> 1749 225<194.546 355.546>
VStem: -60 243<1592 1736> 215 283<169 300 407 1357> 626 193<159 288>
DStem2: 515.546 1849 414.546 1651 0.730375 -0.683046<-125.368 492.72>
LayerCount: 2
Fore
SplineSet
560 117 m 4
 602 117 626 149 626 195 c 4
 626 242 600 270 552 270 c 6
 498 270 l 5
 498 214 l 6
 498 156 509 117 560 117 c 4
523 -30 m 4
 310 -30 215 124 215 339 c 6
 215 1059 l 2
 215 1235 213 1324 115 1410 c 1
 78 1443 l 1
 -2 1513 -60 1555 -60 1697 c 0
 -60 1839 54 1974 195 1974 c 0
 421 1974 522 1851 645 1733 c 2
 876 1513 l 1
 746 1343 l 1
 608 1480 l 1
 550 1536 486 1591 415 1651 c 1
 374 1691 320 1749 251 1749 c 0
 210 1749 183 1712 183 1667 c 0
 183 1628 227 1594 257 1566 c 1
 336 1499 l 2
 454 1398 498 1303 498 1081 c 2
 498 392 l 5
 526.015625 394.801757812 552.837890625 396.357421875 578.196289062 396.357421875 c 4
 722.201171875 396.357421875 819 346.181640625 819 189 c 4
 819 32 683 -30 523 -30 c 4
EndSplineSet
EndChar

StartChar: uni0EC3
Encoding: 3779 3779 250
Width: 938
VWidth: 2170
GlyphClass: 2
Flags: HW
HStem: 0 147<531.364 637.364> 301 129<522.364 628.364> 1336 148<95.3644 334.364> 1850 196<151.364 630.364>
VStem: -168 226<1520 1765> 235 284<171 301 406 1032> 356 178<1504 1694> 649 194<159 288> 727 237<1476 1765>
DStem2: 372.364 1192 603.364 1068 0.787945 0.615745<-26.7094 448.989>
LayerCount: 2
Fore
SplineSet
586 117 m 4xfd
 627 117 649 151 649 196 c 4
 649 244 619 271 570 271 c 6
 519 271 l 5
 519 217 l 6
 519 157 532 117 586 117 c 4xfd
356 1582 m 0xfa80
 356 1640 306 1718 263 1735 c 1
 453 1735 l 1
 506 1683 533 1631 534 1577 c 1
 534 1416 391 1336 227 1336 c 0
 17 1336 -168 1439 -168 1648 c 0
 -168 1949 62 2046 390 2046 c 0
 733 2046 964 1946 964 1608 c 0xfa80
 964 1320 765 1206 603 1068 c 128
 520 998 519 906 519 747 c 2
 519 388 l 5
 550.33984375 392.3984375 580.520507812 394.787109375 609.0078125 394.787109375 c 4
 745.42578125 394.787109375 843 340.020507812 843 189 c 4
 843 31 706 -30 545 -30 c 4
 326 -30 235 106 235 336 c 6
 235 785 l 2xfd
 235 994 256 1102 372 1192 c 1
 532 1318 l 1
 631 1394 727 1491 727 1635 c 0
 727 1801 576 1850 392 1850 c 0
 205 1850 58 1803 58 1637 c 0
 58 1535 117 1484 237 1484 c 0
 308 1484 356 1513 356 1582 c 0xfa80
EndSplineSet
EndChar

StartChar: uni0EC4
Encoding: 3780 3780 251
Width: 877
VWidth: 2170
GlyphClass: 2
Flags: HW
HStem: 0 148<482.95 590.95> 300 131<475.95 583.95> 1500 201<-6.0496 134.95> 1748 222<416.95 589.95>
VStem: -211 193<1719 1972> 190 283<169 300 403 1239> 601 242<1593 1736> 602 194<160 287>
DStem2: 128.95 1745 248.95 1584 0.816818 0.576895<-88.0636 331.214> 439.95 1488 651.95 1399 0.733015 0.680213<-153.904 246.198>
LayerCount: 2
Fore
SplineSet
503 0 m 0xfc
 289 0 190 148 190 364 c 2
 190 971 l 2
 190 1246 292 1358 440 1488 c 2
 554 1588 l 1
 609 1638 632 1687 632 1724 c 0
 632 1764 606 1791 563 1791 c 0
 530 1791 488 1776 441 1740 c 1
 258 1591 l 2
 186 1533 116 1506 53 1506 c 0
 -70 1506 -168 1608 -211 1777 c 2
 -261 1972 l 1
 -68 1972 l 1
 -18 1783 l 1
 -7 1710 23 1687 58 1687 c 0
 99 1687 147 1720 174 1741 c 2
 350 1876 l 2
 416 1927 488 1969 573 1969 c 0
 712 1969 843 1862 843 1724 c 0
 843 1621 816 1555 766 1501 c 1
 652 1399 l 2
 534 1293 473 1194 473 971 c 2
 473 423 l 1
 499.315429688 425.380859375 524.635742188 426.706054688 548.719726562 426.706054688 c 0
 695.272460938 426.706054688 796 377.650390625 796 219 c 0
 796 64 662 0 503 0 c 0xfc
535 148 m 0
 581 148 601 179 602 225 c 0
 602 267 575 300 532 300 c 2
 473 300 l 1
 473 243 l 2
 473 184 484 148 535 148 c 0
EndSplineSet
EndChar

StartChar: uni0EC6
Encoding: 3782 3782 252
Width: 1588
VWidth: 2170
GlyphClass: 2
Flags: HW
HStem: -395 183<652.272 1064.27> 407 147<450.272 555.272> 707 130<441.272 561.272> 993 179<451.272 619.272 996.272 1142.27>
VStem: 156 283<575 707 816 975> 567 178<566 703> 1160 284<-98 985>
LayerCount: 2
Fore
SplineSet
1106 1208 m 0
 1378 1208 1445 1002 1445 724 c 2
 1445 218 l 2
 1445 -182 1288 -395 892 -395 c 0
 679 -395 548 -311 452 -183 c 1
 541 -60 l 1
 633.731445312 -137.490234375 756.7421875 -212 893 -212 c 0
 1130 -212 1160 -40 1160 204 c 2
 1160 814 l 2
 1160 842 1162 872 1162 902 c 0
 1162 969 1154 1029 1097 1029 c 0
 962 1029 945 850 815 850 c 256
 679 850 651 1029 499 1029 c 256
 439 1029 441 934 439 852 c 1
 488 866 519 873 534 873 c 0
 656 873 745 785 745 662 c 0
 745 505 639 443 470 443 c 0
 277 443 156 569 156 762 c 0
 156 1008 258 1208 500 1208 c 0
 645 1208 738 1112 815 1039 c 1
 873 1125 968 1208 1106 1208 c 0
504 590 m 0
 545 590 567 622 567 667 c 0
 566 718 539 743 487 743 c 2
 439 743 l 1
 439 682 l 2
 439 624 451 590 504 590 c 0
EndSplineSet
EndChar

StartChar: uni0EC8
Encoding: 3784 3784 253
Width: 7
VWidth: 2170
GlyphClass: 2
Flags: HW
HStem: 1320 430<-598.23 -393.23>
VStem: -598 205<1320 1750>
LayerCount: 2
Fore
SplineSet
-598 1407 m 5
 -598 1837 l 5
 -393 1837 l 5
 -393 1407 l 5
 -598 1407 l 5
EndSplineSet
EndChar

StartChar: uni0EC9
Encoding: 3785 3785 254
Width: 2
VWidth: 2170
GlyphClass: 2
Flags: HW
HStem: 1290 166<-876.904 -356.904> 1290 80<-1171.9 -1050.9> 1489 102<-1069.9 -949.904> 1706 130<-1060.9 -947.904>
VStem: -1208 137<1603 1696> -936 172<1592 1701> -314 212<1499 1761>
LayerCount: 2
Fore
SplineSet
-995 1791 m 5x3e
 -1044 1791 -1071 1775 -1071 1729 c 5
 -1069 1697 -1024 1680 -936 1677 c 5
 -936 1690 l 5
 -941 1753 -962 1786 -995 1791 c 5x3e
-1208 1733 m 4
 -1208 1854 -1123 1922 -998 1922 c 4
 -855 1922 -765 1846 -765 1703 c 4
 -765 1623 -796 1591 -849 1557 c 5
 -877 1542 l 5
 -613 1542 l 6
 -353 1542 -317 1588 -311 1847 c 5
 -102 1847 l 5
 -102 1767 l 6
 -102 1430 -275 1376 -615 1376 c 6
 -1172 1376 l 5
 -1172 1455 l 5
 -1084 1488 -973 1490 -949 1586 c 5
 -967 1579 -993 1575 -1027 1575 c 4
 -1128 1575 -1208 1633 -1208 1733 c 4
EndSplineSet
EndChar

StartChar: uni0ECA
Encoding: 3786 3786 255
Width: 4
VWidth: 2170
GlyphClass: 2
Flags: HW
HStem: 1288 93<-886.208 -802.208 -605.208 -522.208 -411.208 -227.208> 1550 128<-902.208 -763.208 -631.208 -494.208>
VStem: -1050 136<1402 1538> -491 155<1403 1546>
LayerCount: 2
Fore
SplineSet
-813 1385 m 5
 -947 1385 -1061 1445 -1061 1576 c 4
 -1061 1689 -1000 1774 -887 1774 c 4
 -794 1774 -733 1729 -709 1664 c 5
 -681 1725 -623 1774 -531 1774 c 4
 -427 1774 -347 1708 -347 1605 c 4
 -347 1542 -377 1498 -422 1478 c 5
 -237 1478 l 5
 -237 1384 l 5
 -616 1384 l 5
 -616 1479 l 5
 -548 1480 -502 1508 -502 1575 c 4
 -502 1623 -526 1646 -575 1646 c 4
 -612 1646 -636 1618 -653 1575 c 5
 -764 1575 l 5
 -773 1598 l 5
 -790 1630 -817 1646 -853 1646 c 4
 -893 1646 -925 1616 -925 1575 c 4
 -925 1509 -883 1479 -813 1479 c 5
 -813 1385 l 5
EndSplineSet
EndChar

StartChar: uni0ECB
Encoding: 3787 3787 256
Width: 10
VWidth: 2170
GlyphClass: 2
Flags: HW
HStem: 1456 112<-870.815 -750.815 -629.815 -508.815>
VStem: -751 121<1338 1456 1569 1689>
LayerCount: 2
Fore
SplineSet
-630 1384 m 5
 -751 1384 l 5
 -751 1503 l 5
 -871 1503 l 5
 -871 1615 l 5
 -751 1615 l 5
 -751 1735 l 5
 -630 1735 l 5
 -630 1615 l 5
 -509 1615 l 5
 -509 1503 l 5
 -630 1503 l 5
 -630 1384 l 5
EndSplineSet
EndChar

StartChar: uni0ECC
Encoding: 3788 3788 257
Width: 4
VWidth: 2170
GlyphClass: 2
Flags: HW
HStem: 1288 107<-692.229 -588.229> 1502 162<-683.229 -579.229 -513.229 -353.229>
VStem: -804 103<1403 1493> -579 88<1409 1501> -351 147<1667 1744>
LayerCount: 2
Fore
SplineSet
-804 1665 m 4
 -804 1803 -707 1859 -561 1859 c 6
 -429 1859 l 6
 -370 1859 -351 1880 -351 1939 c 5
 -204 1939 l 5
 -209 1766 -263 1697 -439 1697 c 6
 -513 1697 l 5
 -495 1635 l 5
 -492 1630 -491 1618 -491 1600 c 4
 -491 1524 -561 1483 -642 1483 c 4
 -753 1483 -804 1551 -804 1665 c 4
-639 1590 m 260
 -603 1590 -579 1607 -579 1642 c 6
 -579 1697 l 5
 -615 1697 l 6
 -670 1697 -701 1690 -701 1642 c 4
 -701 1608 -675 1590 -639 1590 c 260
EndSplineSet
EndChar

StartChar: uni0ECD
Encoding: 3789 3789 258
Width: 8
VWidth: 2170
GlyphClass: 2
Flags: HW
HStem: 1286 141<-744.754 -599.754> 1606 138<-751.754 -591.754>
VStem: -907 144<1446 1594> -581 145<1444 1595>
LayerCount: 2
Fore
SplineSet
-685 1575 m 4
 -634 1575 -595 1612 -595 1665 c 4
 -595 1716 -634 1754 -685 1754 c 4
 -737 1754 -777 1716 -777 1665 c 4
 -777 1615 -737 1575 -685 1575 c 4
-449 1662 m 4
 -449 1531 -554 1434 -685 1434 c 260
 -817 1434 -921 1530 -921 1662 c 260
 -921 1794 -817 1892 -685 1892 c 4
 -553 1892 -449 1794 -449 1662 c 4
EndSplineSet
EndChar

StartChar: uni0ED0
Encoding: 3792 3792 259
Width: 1289
VWidth: 2170
GlyphClass: 2
Flags: HW
HStem: -12 202<483.07 812.07> 1059 205<478.07 817.07>
VStem: 79 227<395 865> 989 227<395 865>
LayerCount: 2
Fore
SplineSet
79 640 m 0
 79 990 295 1264 647 1264 c 256
 999 1264 1216 990 1216 640 c 0
 1216 255 1024 -12 647 -12 c 256
 270 -12 79 255 79 640 c 0
306 637 m 0
 306 396 414 191 647 191 c 256
 880 191 989 396 989 637 c 0
 989 866 876 1059 647 1059 c 256
 418 1059 306 866 306 637 c 0
EndSplineSet
EndChar

StartChar: uni0ED1
Encoding: 3793 3793 260
Width: 1472
VWidth: 2170
GlyphClass: 2
Flags: HW
HStem: -33 155<564.272 756.272> 409 156<649.272 767.272> 718 132<653.272 776.272> 1058 207<494.272 907.272>
VStem: 104 283<642 957> 500 149<586 715> 778 177<581 716> 1096 284<451 870>
LayerCount: 2
Fore
SplineSet
500 656 m 0
 500 791 590 850 732 850 c 0
 868 850 955 775 955 639 c 0
 955 470 820 409 633 409 c 0
 372 409 104 530 104 784 c 0
 104 1104 361 1265 685 1265 c 0
 1080 1265 1380 1059 1380 669 c 0
 1380 235 990 -33 564 -33 c 1
 564 122 l 1
 853 139 1096 358 1096 662 c 0
 1096 914 945 1058 693 1058 c 0
 488 1058 387 966 387 784 c 0
 387 685 430 619 516 584 c 1
 505 618 500 642 500 656 c 0
714 718 m 1
 671 718 649 693 649 644 c 2
 649 565 l 1
 735 569 778 597 778 649 c 0
 778 694 756 717 714 718 c 1
EndSplineSet
EndChar

StartChar: uni0ED2
Encoding: 3794 3794 261
Width: 1604
VWidth: 2170
GlyphClass: 2
Flags: HW
HStem: 0 177<540.676 1061.68> 302 131<746.676 849.676>
VStem: 124 283<296 616> 563 179<436 561> 868 151<452 581> 1011 212<1321 1485> 1178 282<273 517>
DStem2: 423.676 918 611.676 763 0.838166 0.545415<-159.269 682.347>
LayerCount: 2
Fore
SplineSet
868 586 m 1xf8
 794 580 742 571 742 504 c 1
 747 461 768 437 803 434 c 1
 846 434 868 459 868 505 c 2
 868 586 l 1xf8
789 177 m 0
 998 177 1178 221 1178 400 c 0
 1178 506 1099 565 998 583 c 1
 1012 534 1019 507 1019 502 c 0
 1019 368 940 302 783 302 c 0
 657 302 563 379 563 505 c 0
 563 683 743 755 926 755 c 0
 1197 755 1460 653 1460 390 c 0xfa
 1460 80 1117 0 763 0 c 0
 443 0 124 122 124 434 c 0
 124 916 689 1019 921 1266 c 128
 977 1325 1011 1383 1011 1485 c 1
 1223 1485 l 1xf4
 1223 986 741 924 495 666 c 128
 442 611 407 555 407 456 c 0
 407 270 535 177 789 177 c 0
EndSplineSet
EndChar

StartChar: uni0ED3
Encoding: 3795 3795 262
Width: 1797
VWidth: 2170
GlyphClass: 2
Flags: HW
HStem: 0 177<946.202 1279.2> 300 131<192.202 304.202> 1683 200<960.202 1144.2>
VStem: 5 177<161 289> 311 149<177 297> 573 283<275 1170> 724 225<1558 1673> 1362 277<262 1049>
DStem2: 1035.2 1529 862.202 1393 0.844299 -0.535872<-121.995 491.612> 1481.2 1643 1360.2 1495 0.803201 -0.595708<-386.268 149.71>
LayerCount: 2
Fore
SplineSet
245 300 m 1xf9
 205 297 182 274 182 231 c 0
 182 185 211 159 267 151 c 1
 311 147 l 1
 311 202 l 2
 311 267 288 300 245 300 c 1xf9
5 228 m 0
 5 362 102 431 238 431 c 0
 374 431 460 372 460 238 c 0
 460 218 453 199 448 176 c 1
 532 226 573 335 573 505 c 2
 573 1170 l 1
 856 1170 l 1
 856 512 l 2xfd
 856 304 911 177 1116 177 c 0
 1303 177 1362 282 1362 474 c 2
 1362 861 l 2
 1362 1222 962 1278 782 1458 c 128
 745 1495 724 1533 724 1601 c 0
 724 1781 839 1884 1020 1884 c 0
 1191 1884 1341 1751 1481 1643 c 2
 1604 1548 l 1
 1487 1400 l 1
 1360 1495 l 2
 1252 1575 1135 1683 1019 1683 c 0
 983 1683 949 1659 949 1622 c 0xfb
 949 1567 1050 1518 1089 1495 c 0
 1318 1356 1639 1230 1639 880 c 2
 1639 497 l 2
 1639 157 1465 0 1119 0 c 0
 925 0 751 88 720 250 c 1
 678 89 506 0 301 0 c 0
 137 0 5 67 5 228 c 0
EndSplineSet
EndChar

StartChar: uni0ED4
Encoding: 3796 3796 263
Width: 1515
VWidth: 2170
GlyphClass: 2
Flags: HW
HStem: -2 179<511.676 1123.68> 516 132<1121.68 1198.68> 803 145<1102.68 1215.68>
VStem: 123 282<286 781> 806 284<650 782> 1219 176<661 802>
DStem2: 412.676 1071 579.676 885 0.906799 0.421563<-96.0625 683.898>
LayerCount: 2
Fore
SplineSet
1144 649 m 2
 1194 649 1219 675 1219 726 c 0
 1219 778 1199 803 1160 803 c 0
 1113 803 1092 771 1090 725 c 1
 1090 720 l 1
 1089 719 1089 716 1089 713 c 256
 1089 693 1091 675 1093 649 c 1
 1144 649 l 2
1118 949 m 0
 1294 949 1394 889 1395 725 c 0
 1395 606 1310 516 1190 516 c 0
 1165 516 1141 520 1121 530 c 1
 1175 385 1300 278 1469 243 c 1
 1431 -2 l 1
 748 -2 l 2
 391 -2 123 122 123 478 c 0
 123 808 189 967 413 1071 c 2
 850 1274 l 2
 957 1324 1023 1410 1090 1500 c 1
 1266 1353 l 1
 1193 1247 1115 1134 992 1078 c 1
 580 885 l 1
 429 812 405 705 405 482 c 0
 405 277 496 177 701 177 c 2
 1124 177 l 1
 1071 208 l 2
 933 289 806 422 806 634 c 0
 806 822 929 949 1118 949 c 0
EndSplineSet
EndChar

StartChar: uni0ED5
Encoding: 3797 3797 264
Width: 1527
VWidth: 2170
GlyphClass: 2
Flags: HW
HStem: 0 177<518.676 1125.68> 516 132<1121.68 1197.68> 801 147<1097.68 1209.68> 1290 160<566.676 695.676>
VStem: 124 283<298 777> 390 165<1178 1280> 808 283<562 798> 1221 176<662 789>
LayerCount: 2
Fore
SplineSet
1221 726 m 0xf3
 1221 771 1204 801 1162 801 c 0
 1114 801 1091 769 1091 702 c 0
 1091 684 1092 666 1094 649 c 1
 1129 649 l 2
 1188 649 1221 669 1221 726 c 0xf3
632 1168 m 0
 671 1168 697 1200 697 1238 c 0
 697 1273 676 1290 636 1290 c 0
 589 1290 556 1275 556 1230 c 0
 556 1188 587 1168 632 1168 c 0
390 1246 m 0xf7
 390 1381 503 1450 640 1450 c 0
 780 1450 843 1376 865 1249 c 1
 955 1289 1032 1398 1089 1472 c 1
 1266 1330 l 1
 1205 1199 1121 1110 993 1050 c 1
 942 1018 866 1017 773 1001 c 1
 716 947 657 910 599 890 c 1
 460 824 407 746 407 546 c 0
 407 315 475 177 703 177 c 2
 1126 177 l 1
 1074 208 l 2
 936 291 808 421 808 634 c 0
 808 831 932 949 1129 949 c 0
 1308 949 1397 874 1397 726 c 0
 1397 607 1313 516 1194 516 c 0
 1166 516 1142 520 1121 530 c 1
 1172 387 1311 273 1472 243 c 1
 1433 0 l 1
 680 0 l 2
 358 0 124 155 124 474 c 0xfb
 124 822 181 983 423 1075 c 1
 449 1084 l 1
 410 1127 390 1181 390 1246 c 0xf7
EndSplineSet
EndChar

StartChar: uni0ED6
Encoding: 3798 3798 265
Width: 1661
VWidth: 2170
GlyphClass: 2
Flags: HW
HStem: 0 177<460.525 643.525 1012.52 1198.52> 740 130<433.525 535.525> 1023 148<437.525 549.525> 1585 202<934.525 1128.52>
VStem: 147 284<205 762 870 1020> 561 176<887 1011> 684 230<1447 1575> 686 283<238 590> 1235 283<209 964>
DStem2: 1029.53 1399 791.525 1293 0.838036 -0.545615<-166.533 349.106>
LayerCount: 2
Fore
SplineSet
561 950 m 0xfc80
 561 995 538 1023 493 1023 c 1
 452 1022 431 989 431 922 c 2
 431 870 l 1
 469 870 l 1
 522 874 561 896 561 950 c 0xfc80
456 1171 m 0
 614 1171 737 1104 737 955 c 0xfc80
 737 827 659 740 531 740 c 0
 509 740 476 747 431 762 c 1
 431 406 l 2
 431 284 440 177 558 177 c 0
 644 177 686 260 686 429 c 2
 686 590 l 1
 969 590 l 1
 969 405 l 2xf980
 969 285 1000 177 1107 177 c 0
 1227 177 1235 309 1235 441 c 0
 1235 461 1235 481 1235 501 c 0
 1235 818 1223 1000 1041 1131 c 128
 901 1231 684 1283 684 1518 c 0
 684 1689 807 1787 979 1787 c 0
 1172 1787 1286 1689 1391 1595 c 1
 1518 1479 l 1
 1391 1357 l 1
 1271 1444 l 2
 1195 1499 1117 1582 1010 1582 c 128
 1005 1582 998 1583 993 1585 c 1
 950 1584 914 1567 914 1526 c 0xfa80
 914 1423 1164 1317 1222 1277 c 128
 1455 1117 1518 921 1518 517 c 2
 1518 490 l 1
 1517 194 1425 0 1146 0 c 0
 963 0 854 75 825 228 c 1
 804 80 698 0 524 0 c 0
 244 0 147 194 147 491 c 2
 147 809 l 2
 147 1020 247 1171 456 1171 c 0
EndSplineSet
EndChar

StartChar: uni0ED7
Encoding: 3799 3799 266
Width: 1559
VWidth: 2170
GlyphClass: 2
Flags: HW
HStem: 0 148<266.788 371.788> 300 131<257.788 379.788> 740 136<263.788 381.788> 991 179<788.788 1095.79> 1026 144<260.788 369.788>
VStem: 77 177<160 297 889 1016> 382 284<172 300 407 744> 1145 283<-158 936> 1195 280<-170 110>
LayerCount: 2
Fore
SplineSet
254 229 m 0xe6
 254 181 273 150 316 148 c 1
 371 148 382 185 382 245 c 2
 382 300 l 1
 328 300 l 2
 278 300 254 277 254 229 c 0xe6
320 1064 m 5
 275 1064 251 1040 251 995 c 4
 251 946 276 914 326 914 c 4
 331 914 349 918 382 925 c 5
 382 967 l 6
 382 1021 367 1061 320 1064 c 5
619 1069 m 5
 733 1143 841 1208 993 1208 c 4
 1282 1208 1428 1050 1428 734 c 6
 1428 175 l 2xe7
 1428 71 1443 -44 1475 -170 c 1
 1195 -170 l 1xe680
 1161 -65 1145 45 1145 162 c 2
 1145 739 l 6xe7
 1145 910 1129 1029 963 1029 c 4
 836 1029 753 967 664 914 c 5
 665 896 667 882 667 868 c 6
 667 352 l 2
 667 142 556 0 346 0 c 0
 167 0 77 76 77 229 c 0
 77 352 166 431 290 431 c 0
 297 431 328 423 382 407 c 1
 382 782 l 5
 363 779 347 778 327 778 c 4
 184 778 72 852 72 994 c 4
 72 1141 195 1208 346 1208 c 4
 483 1208 559 1157 619 1069 c 5
EndSplineSet
EndChar

StartChar: uni0ED8
Encoding: 3800 3800 267
Width: 1692
VWidth: 2170
GlyphClass: 2
Flags: HW
HStem: -654 132<968.676 1084.68> -653 193<355.676 558.676> 0 22G<431.676 538.676> 300 132<439.676 547.676> 991 179<474.676 680.676 1047.68 1245.68>
VStem: 155 283<152 300 410 935> 157 192<-454 -319> 569 177<153 287> 721 283<556 932> 1095 153<-513 -411> 1279 284<124 962>
DStem2: 476.676 -99 479.676 -286 0.963243 0.268633<-194.442 683.831>
LayerCount: 2
Fore
SplineSet
1279 795 m 6x7a60
 1279 917 1272 1029 1155 1029 c 4
 1032 1029 1004 930 1004 795 c 6
 1004 594 l 5
 721 594 l 5
 721 795 l 6x7ae0
 721 931 698 1029 580 1029 c 4
 460 1029 438 935 438 803 c 6
 438 410 l 1
 484 425 517 432 538 432 c 0
 660 432 746 339 746 216 c 0
 746 60 637 0 467 0 c 0
 275 0 155 141 155 334 c 2
 155 719 l 6
 155 1045 284 1208 544 1208 c 4
 727 1208 834 1132 865 980 c 5
 893 1132 998 1208 1179 1208 c 4
 1461 1208 1563 1027 1563 730 c 6
 1563 247 l 2
 1563 17 1495 -92 1352 -178 c 1
 1157 -297 l 1
 1210 -346 1248 -382 1248 -485 c 0
 1248 -591 1144 -654 1037 -654 c 0xbd60
 924 -654 856 -580 822 -489 c 1
 681 -568 l 2
 599 -614 521 -653 417 -653 c 256
 273 -653 157 -555 157 -412 c 0
 157 -193 300 -149 477 -99 c 2
 1276 124 l 1
 1278 155 1279 194 1279 243 c 2
 1279 795 l 6x7a60
569 225 m 1x3d60
 569 273 538 300 488 300 c 2
 438 300 l 1
 438 248 l 1
 443 184 465 150 500 147 c 1
 543 153 566 179 569 225 c 1x3d60
841 -285 m 1
 864 -260 892 -229 923 -213 c 2
 1128 -112 l 2
 1146 -102 1166 -92 1182 -81 c 2
 1208 -64 l 1
 480 -286 l 2
 423 -303 349 -319 349 -386 c 1
 355 -433 381 -457 427 -460 c 1x7a60
 563 -460 731 -334 841 -285 c 1
1026 -522 m 0xb860
 1063 -522 1095 -504 1095 -467 c 0
 1095 -426 1074 -401 1033 -401 c 0
 981 -401 967 -421 967 -466 c 0
 967 -494 995 -522 1026 -522 c 0xb860
EndSplineSet
EndChar

StartChar: uni0ED9
Encoding: 3801 3801 268
Width: 1713
VWidth: 2170
GlyphClass: 2
Flags: HW
HStem: 0 177<1071.68 1258.68> 0 147<416.676 525.676> 300 130<406.676 531.676> 991 179<454.676 700.676>
VStem: 122 283<169 300 407 939> 537 177<158 297> 752 283<235 938> 1292 283<206 1170>
LayerCount: 2
Fore
SplineSet
474 147 m 0x7f
 517 147 537 178 537 225 c 0
 537 275 513 300 465 300 c 2
 405 300 l 1
 405 240 l 2
 405 181 420 147 474 147 c 0x7f
1035 411 m 2
 1035 283 1055 177 1164 177 c 0
 1282 177 1292 289 1292 411 c 2
 1292 1208 l 5
 1575 1208 l 5
 1575 454 l 2
 1575 155 1471 0 1175 0 c 0xbf
 894 0 752 116 752 391 c 2
 752 821 l 6
 752 950 699 1029 576 1029 c 4
 459 1029 405 950 405 826 c 6
 405 407 l 1
 439 423 472 430 504 430 c 0
 630 430 714 346 714 219 c 0
 714 60 608 0 436 0 c 0
 229 0 122 144 122 353 c 2
 122 781 l 6
 122 1065 300 1208 586 1208 c 4
 884 1208 1035 1072 1035 778 c 6
 1035 411 l 2
EndSplineSet
EndChar

StartChar: uni0EDC
Encoding: 3804 3804 269
Width: 2811
VWidth: 2170
GlyphClass: 2
Flags: HW
HStem: 0 177<528.202 879.202 1294.2 1511.2 1972.2 2329.2> 739 130<225.202 294.202 831.202 957.202> 992 178<1389.2 1581.2> 1023 147<216.202 335.202 831.202 947.202>
VStem: 26 177<882 1011> 197 266<236 575> 346 238<872 1011> 642 178<881 1013> 957 283<257 742 869 870> 1618 283<274 974> 2390 285<241 1170>
LayerCount: 2
Fore
SplineSet
346 993 m 0xcbe0
 346 1036 319 1061 274 1061 c 0
 232 1061 203 1032 203 989 c 0
 203 938 231 907 282 907 c 2
 328 907 l 1
 340 963 346 992 346 993 c 0xcbe0
888 1061 m 0
 845 1061 820 1037 820 992 c 0xe1e0
 820 944 839 905 886 905 c 0
 904 905 928 910 957 918 c 1
 957 946 l 2
 957 1022 934 1061 888 1061 c 0
1211 1059 m 1
 1314 1126 1420 1208 1571 1208 c 0
 1837 1208 1901 1032.14550781 1901 789 c 2
 1901 432 l 2
 1901 252 1973 177 2152 177 c 0
 2335 177 2390 243 2390 426 c 2
 2390 1170 l 1
 2675 1170 l 1
 2675 447 l 2
 2675 149 2498 0 2143 0 c 0
 1938 0 1808 82 1754 244 c 1
 1714 82 1560 0 1294 0 c 1
 1294 178 l 1
 1514 178 1618 253 1618 472 c 2
 1618 783 l 2
 1618 891.231445312 1614.53417969 1030 1510 1030 c 0
 1417 1030 1320 964 1240 908 c 1
 1240 478 l 2
 1240 161 1040 0 722 0 c 0
 445 0 197 88 197 358 c 0xd5e0
 197 397.88671875 226 528.625 282 748 c 1
 285 754 289 769 294 791 c 1
 263 783 241 777 211 777 c 0
 93 777 26 873 26 993 c 0xd9e0
 26 1141 146 1208 297 1208 c 0
 457 1208 585 1125 585 966 c 0
 585 852.013671875 463 497.271484375 463 346 c 0xd5e0
 463 224 579 177 713 177 c 0
 886 177 957 265 957 442 c 2
 957 780 l 1
 931 775 902 772 869 772 c 0
 740 772 642 864 642 993 c 256
 642 1141 771 1208 923 1208 c 0
 1060 1208 1162 1151 1211 1059 c 1
EndSplineSet
EndChar

StartChar: uni0EDD
Encoding: 3805 3805 270
Width: 2919
VWidth: 2170
GlyphClass: 2
Flags: HW
HStem: 0 177<530.202 883.202 2204.2 2531.2> 0 159<1515.2 1761.2> 212 114<1484.2 1584.2> 461 131<1487.2 1593.2> 734 134<228.202 295.202 842.202 967.202> 991 179<1399.2 1731.2> 1023 147<218.202 337.202 841.202 959.202>
VStem: 28 177<883 1011> 199 267<237 578> 651 179<880 1013> 967 284<264 742 869 893> 1284 195<326 458> 1601 167<338 452> 1840 283<264 877> 2599 283<249 1170>
DStem2: 223.202 496 502.202 548 0.274196 0.961674<-74.5592 266.744>
LayerCount: 2
Back
SplineSet
1591.90039062 216 m 0
 1591.90039062 171 1608.90039062 142 1649.90039062 140 c 1
 1701.90039062 140 1712.90039062 174 1712.90039062 231 c 2
 1712.90039062 283 l 1
 1661.90039062 283 l 2
 1614.90039062 283 1591.90039062 261 1591.90039062 216 c 0
1653.90039062 968 m 1
 1611.90039062 968 1588.90039062 945 1588.90039062 903 c 0
 1588.90039062 857 1612.90039062 826 1659.90039062 826 c 0
 1664.90039062 826 1681.90039062 830 1712.90039062 837 c 1
 1712.90039062 876 l 2
 1712.90039062 927 1697.90039062 965 1653.90039062 968 c 1
1935.90039062 973 m 1
 2043.90039062 1043 2145.90039062 1104 2288.90039062 1104 c 0
 2561.90039062 1104 2698.90039062 955 2698.90039062 657 c 2
 2698.90039062 165 l 2
 2698.90039062 67 2713.90039062 -41 2743.90039062 -160 c 1
 2479.90039062 -160 l 1
 2447.90039062 -61 2431.90039062 43 2431.90039062 153 c 2
 2431.90039062 661 l 2
 2431.90039062 822 2417.90039062 935 2260.90039062 935 c 0
 2140.90039062 935 2062.90039062 876 1978.90039062 826 c 1
 1979.90039062 809 1980.90039062 796 1980.90039062 783 c 2
 1980.90039062 332 l 2
 1980.90039062 134 1876.90039062 0 1678.90039062 0 c 0
 1509.90039062 0 1424.90039062 72 1424.90039062 216 c 0
 1424.90039062 332 1508.90039062 407 1625.90039062 407 c 0
 1632.90039062 407 1661.90039062 399 1712.90039062 384 c 1
 1712.90039062 702 l 1
 1694.90039062 699 1679.90039062 698 1660.90039062 698 c 0
 1525.90039062 698 1419.90039062 768 1419.90039062 902 c 0
 1419.90039062 1041 1536.90039062 1104 1678.90039062 1104 c 0
 1807.90039062 1104 1878.90039062 1056 1935.90039062 973 c 1
EndSplineSet
Fore
SplineSet
588 966 m 0xbb7e
 588 823.205078125 466 524.829101562 466 349 c 0
 466 225 579 177 716 177 c 0
 898 177 967 276 967 463 c 2
 967 780 l 1
 938 775 909 772 876 772 c 0
 749 772 651 865 651 992 c 0
 651 1140 769 1208 921 1208 c 0xbafe
 1058 1208 1147 1160 1210 1078 c 1
 1305 1147 1406 1208 1556 1208 c 0x3cfe
 1818 1208 1998 1032 1998 719 c 2
 1998 287 l 17
 2041 246 2158 177 2248 177 c 256
 2443 177 2478 286 2478 484 c 2
 2478 1170 l 1
 2761 1170 l 1
 2761 487 l 2
 2761 153 2605 0 2310 0 c 0xbafe
 2143 0 2024 58 1934 146 c 1
 1900 26 1769 0 1678 0 c 0x78fe
 1472 0 1381 113 1381 224 c 0
 1381 356 1497 429 1614 429 c 0
 1650 429 1686 422 1719 408 c 9
 1719 714 l 2
 1719 897 1665 1029 1542 1029 c 0
 1423 1029 1339 960 1252 904 c 1
 1252 494 l 2
 1252 171 1049 0 725 0 c 0
 453 0 199 88 199 354 c 0xbcfe
 199 494.078125 249 610.994140625 288 761 c 2
 296 791 l 1
 268 781 241 777 212 777 c 0
 99 777 28 872 28 988 c 0
 28 1140 146 1208 300 1208 c 0
 463 1208 588 1127 588 966 c 0xbb7e
899 1061 m 0
 853 1061 831 1035 830 992 c 1
 830 943 848 905 895 905 c 0
 921 905 945 910 967 922 c 1
 967 953 l 2
 967 1025 945 1061 899 1061 c 0
348 993 m 1
 348 1036 321 1061 276 1061 c 0
 234 1061 205 1032 205 989 c 0x3b7e
 205 936 237 907 290 907 c 2
 334 907 l 1
 344 965 348 993 348 993 c 1
1647 302 m 0
 1594 302 1568 271 1568 229 c 0
 1568 169 1598 136 1653 136 c 0
 1708 136 1718 172 1718 268 c 2
 1718 288 l 1
 1696 293 1672 302 1647 302 c 0
EndSplineSet
EndChar

StartChar: endash
Encoding: 8211 8211 274
Width: 1139
GlyphClass: 2
Flags: HW
HStem: 577 219<241 861>
VStem: 241 620<577 796>
LayerCount: 2
Fore
SplineSet
241 796 m 1
 861 796 l 1
 861 577 l 1
 241 577 l 1
 241 796 l 1
EndSplineSet
EndChar

StartChar: emdash
Encoding: 8212 8212 275
Width: 1771
GlyphClass: 2
Flags: HW
HStem: 577 219<147 1587>
LayerCount: 2
Fore
SplineSet
147 796 m 1
 1587 796 l 1
 1587 577 l 1
 147 577 l 1
 147 796 l 1
EndSplineSet
EndChar

StartChar: quoteleft
Encoding: 8216 8216 276
Width: 619
GlyphClass: 2
Flags: HW
HStem: 966 665
VStem: 119 362<966 1338.82> 119 200<1340 1459.03>
LayerCount: 2
Fore
SplineSet
481 966 m 1
 119 966 l 1
 119 1290 l 2
 119 1501 266 1583 429 1631 c 1
 480 1523 l 1
 392 1490 319 1458 319 1340 c 1
 481 1340 l 1
 481 966 l 1
EndSplineSet
EndChar

StartChar: quoteright
Encoding: 8217 8217 277
Width: 538
GlyphClass: 2
Flags: HW
HStem: 942 108<126.23 176.331> 1587 20G<81 444>
VStem: 81 363<1234.73 1607> 244 200<1113.6 1233>
LayerCount: 2
Fore
SplineSet
81 1607 m 1
 444 1607 l 1
 444 1283 l 2
 444 1073 296 989 133 942 c 1
 82 1050 l 1
 171 1082 244 1116 244 1233 c 1
 81 1233 l 1
 81 1607 l 1
EndSplineSet
EndChar

StartChar: quotesinglbase
Encoding: 8218 8218 278
Width: 674
GlyphClass: 2
Flags: HW
HStem: -291 664
VStem: 184 363<1.57874 373> 347 200<-119.748 0>
LayerCount: 2
Fore
SplineSet
184 373 m 1
 547 373 l 1
 547 51 l 2
 547 -162 400 -243 236 -291 c 1
 185 -183 l 1
 274 -151 347 -117 347 0 c 1
 184 0 l 1
 184 373 l 1
EndSplineSet
EndChar

StartChar: quotedblleft
Encoding: 8220 8220 279
Width: 1099
GlyphClass: 2
Flags: HW
HStem: 954 374<318 481 797 960> 1599 20G<398.5 438.259 877.5 917.444>
VStem: 118 363<954 1326.82> 118 200<1328 1447.03> 597 363<954 1326.82> 597 200<1328 1447.03>
LayerCount: 2
Fore
SplineSet
960 954 m 1
 597 954 l 1
 597 1278 l 2
 597 1489 745 1571 908 1619 c 1
 959 1511 l 1
 871 1478 797 1446 797 1328 c 1
 960 1328 l 1
 960 954 l 1
481 954 m 1
 118 954 l 1
 118 1278 l 2
 118 1489 266 1571 429 1619 c 1
 479 1511 l 1
 392 1477 318 1446 318 1328 c 1
 481 1328 l 1
 481 954 l 1
EndSplineSet
EndChar

StartChar: quotedblright
Encoding: 8221 8221 280
Width: 952
GlyphClass: 2
Flags: HW
HStem: 942 108<126.23 176.331 605.363 656.052> 1233 374<81 244 560 723>
VStem: 81 363<1234.73 1607> 244 200<1113.6 1233> 560 363<1234.73 1607> 723 200<1113.39 1233>
LayerCount: 2
Fore
SplineSet
81 1607 m 1
 444 1607 l 1
 444 1283 l 2
 444 1073 296 989 133 942 c 1
 82 1050 l 1
 171 1082 244 1116 244 1233 c 1
 81 1233 l 1
 81 1607 l 1
560 1607 m 1
 923 1607 l 1
 923 1283 l 2
 923 1073 776 989 612 942 c 1
 562 1050 l 1
 650 1082 723 1116 723 1233 c 1
 560 1233 l 1
 560 1607 l 1
EndSplineSet
EndChar

StartChar: quotedblbase
Encoding: 8222 8222 281
Width: 1147
GlyphClass: 2
Flags: HW
HStem: 0 373<195 357 674 836>
VStem: 195 362<1.57874 373> 357 200<-119.748 0> 674 363<1.57874 373> 836 201<-119.748 0>
LayerCount: 2
Fore
SplineSet
195 373 m 1
 557 373 l 1
 557 51 l 2
 557 -162 410 -243 246 -291 c 1
 196 -183 l 1
 285 -151 357 -117 357 0 c 1
 195 0 l 1
 195 373 l 1
674 373 m 1
 1037 373 l 1
 1037 51 l 2
 1037 -162 889 -243 725 -291 c 1
 675 -183 l 1
 764 -151 836 -117 836 0 c 1
 674 0 l 1
 674 373 l 1
EndSplineSet
EndChar

StartChar: dagger
Encoding: 8224 8224 282
Width: 835
GlyphClass: 2
Flags: HW
HStem: 0 21G<448 638> 1020 141<112 447 640 966>
VStem: 448 190<0 1020 1161 1468>
LayerCount: 2
Fore
SplineSet
448 1020 m 1
 112 1020 l 1
 112 1161 l 1
 447 1161 l 1
 447 1468 l 1
 640 1468 l 1
 640 1161 l 1
 966 1161 l 1
 966 1020 l 1
 638 1020 l 1
 638 0 l 1
 448 0 l 1
 448 1020 l 1
EndSplineSet
EndChar

StartChar: daggerdbl
Encoding: 8225 8225 283
Width: 902
GlyphClass: 2
Flags: HW
HStem: 0 21G<537 728> 305 139<202 537 728 1054> 1020 141<202 537 730 1056>
VStem: 537 191<0 305 444 1020 1161 1468>
LayerCount: 2
Fore
SplineSet
202 444 m 1
 537 444 l 1
 537 1020 l 1
 202 1020 l 1
 202 1161 l 1
 537 1161 l 1
 537 1468 l 1
 730 1468 l 1
 730 1161 l 1
 1056 1161 l 1
 1056 1020 l 1
 728 1020 l 1
 728 444 l 1
 1054 444 l 1
 1054 305 l 1
 728 305 l 1
 728 0 l 1
 537 0 l 1
 537 305 l 1
 202 305 l 1
 202 444 l 1
EndSplineSet
EndChar

StartChar: bullet
Encoding: 8226 8226 284
Width: 1296
GlyphClass: 2
Flags: HW
HStem: 339 717<453.397 815.762>
VStem: 254 763<530.553 864.343>
LayerCount: 2
Fore
SplineSet
1017 697 m 0
 1017 487 847 339 637 339 c 256
 425 339 254 485 254 697 c 0
 254 906 423 1056 632 1056 c 0
 844 1056 1017 909 1017 697 c 0
EndSplineSet
EndChar

StartChar: ellipsis
Encoding: 8230 8230 285
Width: 1655
GlyphClass: 2
Flags: HW
HStem: 10 338<173.625 397.578 716.51 941.578 1267.62 1491.58>
VStem: 123 326<61.2441 293.225> 667 326<60.4069 293.225> 1217 326<61.2441 293.225>
LayerCount: 2
Fore
SplineSet
1328 0 m 1
 1257 41 1208 126 1208 237 c 1
 1244 306 1327 357 1432 357 c 1
 1501 315 1553 230 1553 120 c 1
 1517 50 1433 0 1328 0 c 1
777 0 m 1
 706 41 658 126 658 237 c 1
 694 306 777 357 882 357 c 1
 951 315 1003 230 1003 120 c 1
 967 50 882 0 777 0 c 1
234 0 m 1
 163 41 114 126 114 237 c 1
 150 306 233 357 338 357 c 1
 407 315 459 230 459 120 c 1
 423 50 339 0 234 0 c 1
EndSplineSet
EndChar

StartChar: guilsinglleft
Encoding: 8249 8249 287
Width: 1045
GlyphClass: 2
Flags: HW
HStem: 17 269<607 876> 908 269<607 876>
DStem2: 114 706 360 598 0.850622 0.525778<152.469 754.381> 360 598 114 486 0.85162 -0.52416<0 602.974>
LayerCount: 2
Fore
SplineSet
114 706 m 1
 876 1177 l 1
 876 908 l 1
 360 598 l 1
 876 286 l 1
 876 17 l 1
 114 486 l 1
 114 706 l 1
EndSplineSet
EndChar

StartChar: guilsinglright
Encoding: 8250 8250 288
Width: 1009
GlyphClass: 2
Flags: HW
HStem: 17 269<151 420> 908 269<150 419>
DStem2: 150 1177 150 908 0.85093 -0.525279<141.3 738.962> 151 286 151 17 0.85162 0.52416<0 597.864>
LayerCount: 2
Fore
SplineSet
151 17 m 1
 151 286 l 1
 661 598 l 1
 150 908 l 1
 150 1177 l 1
 913 706 l 1
 913 486 l 1
 151 17 l 1
EndSplineSet
EndChar

StartChar: Euro
Encoding: 8364 8364 289
Width: 1259
GlyphClass: 2
Flags: HW
HStem: -35 230<622.658 997.773> 572 165<61 187 467 824> 844 165<49 191 494 887> 1346 225<671.501 1054.31>
VStem: 193 274<380.036 572 737 844>
LayerCount: 2
Fore
SplineSet
828 -37 m 0
 423 -37 225 196 193 572 c 1
 61 572 l 1
 61 737 l 1
 187 737 l 1
 188 777 188 810 191 844 c 1
 49 844 l 1
 49 1009 l 1
 214 1009 l 1
 279 1320 462 1571 834 1571 c 0
 985 1571 1114 1531 1201 1469 c 1
 1132 1261 l 1
 1064 1313 943 1346 825 1346 c 0
 630 1346 536 1188 494 1009 c 1
 887 1009 l 1
 887 844 l 1
 464 844 l 1
 461 811 461 774 460 737 c 1
 824 737 l 1
 824 572 l 1
 467 572 l 1
 491 338 627 190 812 190 c 0
 896 190 990 220 1088 288 c 1
 1149 74 l 1
 1071 -4 952 -37 828 -37 c 0
EndSplineSet
EndChar

StartChar: uni20AD
Encoding: 8365 8365 290
Width: 1125
GlyphClass: 2
Flags: HW
HStem: 0 21G<225 384 827.808 1032> 562 116<93 225 577 996>
VStem: 225 159<0 562 682 1060> 822 206<854 1060> 844 188<0 188>
DStem2: 384 682 577 678 0.763065 0.646321<144.686 578.532> 573 562 389 562 0.632562 -0.77451<0 606.699>
LayerCount: 2
Fore
SplineSet
384 682 m 1
 822 1060 l 1
 1028 1060 l 1
 577 678 l 1
 996 678 l 1
 996 562 l 1
 573 562 l 1
 1032 0 l 1
 844 0 l 1
 389 562 l 1
 384 562 l 1
 384 0 l 1
 225 0 l 1
 225 562 l 1
 93 562 l 1
 93 678 l 1
 225 678 l 1
 225 1060 l 1
 384 1060 l 1
 384 682 l 1
EndSplineSet
EndChar

StartChar: trademark
Encoding: 8482 8482 291
Width: 1945
GlyphClass: 2
Flags: HW
HStem: 1346 141<85 331 530 771>
VStem: 331 199<550 1346> 879 172<550 1243> 1695 172<550 1243>
DStem2: 1142 1487 1051 1243 0.300753 -0.953702<205.335 758.098> 1370 764 1477 550 0.307925 0.951411<0 555.801>
LayerCount: 2
Fore
SplineSet
1051 1243 m 1
 1051 550 l 1
 879 550 l 1
 879 1487 l 1
 1142 1487 l 1
 1370 764 l 1
 1604 1487 l 1
 1867 1487 l 1
 1867 550 l 1
 1695 550 l 1
 1695 1243 l 1
 1477 550 l 1
 1270 550 l 1
 1051 1243 l 1
530 1346 m 1
 530 550 l 1
 331 550 l 1
 331 1346 l 1
 85 1346 l 1
 85 1487 l 1
 771 1487 l 1
 771 1346 l 1
 530 1346 l 1
EndSplineSet
EndChar

StartChar: uni25CC
Encoding: 9676 9676 292
Width: 1170
GlyphClass: 2
Flags: HW
HStem: 1 83<493 677> 904 83<493 677>
VStem: 493 184<1 84 904 987>
DStem2: 88 559 167 533 0.3097 0.950834<0 183.739> 167 455 88 429 0.3097 -0.950834<0.255367 183.995> 221 839 270 771 0.809675 0.586879<0 183.568> 270 216 221 149 0.809675 -0.586879<0 183.215> 800 947 752 880 0.809675 -0.586879<0.456461 184.024> 752 108 800 41 0.809675 0.586879<0 183.215> 1026 734 946 708 0.3097 -0.950834<0 183.739> 946 280 1026 254 0.3097 0.950834<0.0543334 183.794>
LayerCount: 2
Fore
SplineSet
800 947 m 1
 949 839 l 1
 900 771 l 1
 752 880 l 1
 800 947 l 1
270 216 m 1
 418 108 l 1
 370 41 l 1
 221 149 l 1
 270 216 l 1
1026 734 m 1
 1082 559 l 1
 1003 533 l 1
 946 708 l 1
 1026 734 l 1
167 455 m 1
 224 280 l 1
 144 254 l 1
 88 429 l 1
 167 455 l 1
1082 429 m 1
 1026 254 l 1
 946 280 l 1
 1003 455 l 1
 1082 429 l 1
224 708 m 1
 167 533 l 1
 88 559 l 1
 144 734 l 1
 224 708 l 1
949 149 m 1
 800 41 l 1
 752 108 l 1
 900 216 l 1
 949 149 l 1
418 880 m 1
 270 771 l 1
 221 839 l 1
 370 947 l 1
 418 880 l 1
677 1 m 1
 493 1 l 1
 493 84 l 1
 677 84 l 1
 677 1 l 1
677 904 m 1
 493 904 l 1
 493 987 l 1
 677 987 l 1
 677 904 l 1
EndSplineSet
EndChar

StartChar: uniFB00
Encoding: 64256 64256 294
Width: 1632
GlyphClass: 2
Flags: HW
HStem: 0 21G<239 532 988 1280> 1053 132<20 239 532 988 1281 1593> 1453 208<688.2 841.723 1437.2 1590.72> 1494 217<575.783 839.094 1324.78 1588.09>
VStem: 239 293<0 1053 1185 1449.73> 988 292<0 1053 1185 1449.73>
LayerCount: 2
Fore
SplineSet
1589 1453 m 1
 1542 1471 1486 1494 1424 1494 c 0
 1284 1494 1281 1349 1281 1203 c 0
 1281 1197 1281 1191 1281 1185 c 1
 1593 1185 l 1
 1593 1053 l 1
 1280 1053 l 1
 1280 0 l 1
 988 0 l 1
 988 1053 l 1
 532 1053 l 1
 532 0 l 1
 239 0 l 1
 239 1053 l 1
 20 1053 l 1
 20 1185 l 1
 239 1185 l 1
 239 1501 325 1711 617 1711 c 0
 716 1711 788 1678 865 1661 c 1
 840 1453 l 1
 793 1471 737 1494 676 1494 c 0
 535 1494 532 1350 532 1203 c 0
 532 1197 532 1191 532 1185 c 1
 988 1185 l 1
 988 1501 1074 1711 1366 1711 c 0
 1465 1711 1537 1678 1614 1661 c 1
 1589 1453 l 1
EndSplineSet
EndChar

StartChar: uniFB01
Encoding: 64257 64257 295
Width: 1488
GlyphClass: 2
Flags: HW
HStem: 0 21G<239 532 1013 1302> 1053 132<20 239 532 1013> 1412 332<1045.9 1271.22> 1494 217<576.586 837.125>
VStem: 239 293<0 1053 1185 1450.38> 995 328<1463.34 1691.94> 1013 289<0 1053>
LayerCount: 2
Fore
SplineSet
1158 1412 m 0
 1062 1412 995 1482 995 1578 c 256
 995 1673 1063 1744 1158 1744 c 0
 1253 1744 1323 1673 1323 1578 c 0
 1323 1482 1254 1412 1158 1412 c 0
673 1494 m 0
 549 1494 532 1374 532 1244 c 2
 532 1185 l 1
 1302 1185 l 1
 1302 0 l 1
 1013 0 l 1
 1013 1053 l 1
 532 1053 l 1
 532 0 l 1
 239 0 l 1
 239 1053 l 1
 20 1053 l 1
 20 1185 l 1
 239 1185 l 1
 239 1504 330 1711 624 1711 c 0
 720 1711 789 1677 864 1660 c 1
 838 1452 l 1
 791 1470 736 1494 673 1494 c 0
EndSplineSet
EndChar

StartChar: uniFB02
Encoding: 64258 64258 296
Width: 1411
GlyphClass: 2
Flags: HW
HStem: 0 21G<239 532 953 1246> 1053 132<20 239 532 844> 1509 202<547.828 939.11>
VStem: 239 293<0 1053 1185 1477.55> 953 293<0 1487.3>
LayerCount: 2
Fore
SplineSet
528 1389 m 0
 528 1350 532 1309 532 1265 c 2
 532 1185 l 1
 844 1185 l 1
 844 1053 l 1
 532 1053 l 1
 532 0 l 1
 239 0 l 1
 239 1053 l 1
 20 1053 l 1
 20 1185 l 1
 239 1185 l 1
 239 1552 381 1711 750 1711 c 0
 1147 1711 1246 1531 1246 1136 c 2
 1246 0 l 1
 953 0 l 1
 953 1207 l 2
 953 1258 957 1314 957 1363 c 0
 957 1502 892 1509 750 1509 c 0
 626 1509 528 1508 528 1389 c 0
EndSplineSet
EndChar

StartChar: uniFB03
Encoding: 64259 64259 297
Width: 2253
GlyphClass: 2
Flags: HW
HStem: 0 21G<239 532 1002 1294 1779 2068> 1053 132<20 239 532 1002 1295 1779> 1412 332<1811.9 2037.94> 1453 208<688.2 841.723 1451.2 1604.72> 1494 217<575.783 839.094 1338.78 1602.09>
VStem: 239 293<0 1053 1185 1450.38> 1002 292<0 1053 1185 1450.38> 1761 328<1463.34 1692.66> 1779 289<0 1053>
LayerCount: 2
Fore
SplineSet
1924 1412 m 0
 1828 1412 1761 1482 1761 1578 c 256
 1761 1673 1829 1744 1924 1744 c 256
 2020 1744 2089 1674 2089 1578 c 0
 2089 1482 2020 1412 1924 1412 c 0
1603 1453 m 1
 1556 1471 1500 1494 1439 1494 c 0
 1298 1494 1295 1350 1295 1203 c 0
 1295 1197 1295 1191 1295 1185 c 1
 2068 1185 l 1
 2068 0 l 1
 1779 0 l 1
 1779 1053 l 1
 1294 1053 l 1
 1294 0 l 1
 1002 0 l 1
 1002 1053 l 1
 532 1053 l 1
 532 0 l 1
 239 0 l 1
 239 1053 l 1
 20 1053 l 1
 20 1185 l 1
 239 1185 l 1
 239 1502 325 1711 617 1711 c 0
 716 1711 788 1678 865 1661 c 1
 840 1453 l 1
 793 1471 737 1494 676 1494 c 0
 535 1494 532 1350 532 1203 c 0
 532 1197 532 1191 532 1185 c 1
 1002 1185 l 1
 1002 1502 1088 1711 1380 1711 c 0
 1479 1711 1551 1678 1628 1661 c 1
 1603 1453 l 1
EndSplineSet
EndChar

StartChar: uniFB04
Encoding: 64260 64260 298
Width: 2103
GlyphClass: 2
Flags: HW
HStem: 0 21G<239 532 931 1224 1645 1939> 1053 132<20 239 532 931 1225 1512> 1494 217<575.783 816.219> 1509 202<1239.88 1630.78>
VStem: 239 293<0 1053 1185 1449.73> 931 293<0 1053 1185 1477.55> 1645 294<0 1487.73>
LayerCount: 2
Fore
SplineSet
931 1185 m 1
 931 1552 1073 1711 1442 1711 c 0
 1809 1711 1939 1561 1939 1196 c 2
 1939 0 l 1
 1645 0 l 1
 1645 1214 l 2
 1645 1266 1649 1320 1649 1369 c 0
 1649 1503 1578 1509 1442 1509 c 0
 1315 1509 1220 1508 1220 1385 c 0
 1220 1338 1225 1288 1225 1235 c 2
 1225 1185 l 1
 1512 1185 l 1
 1512 1053 l 1
 1224 1053 l 1
 1224 0 l 1
 931 0 l 1
 931 1053 l 1
 532 1053 l 1
 532 0 l 1
 239 0 l 1
 239 1053 l 1
 20 1053 l 1
 20 1185 l 1
 239 1185 l 1
 239 1501 325 1711 617 1711 c 0
 708 1711 775 1680 842 1661 c 1
 817 1453 l 1
 777 1470 729 1494 676 1494 c 0
 535 1494 532 1350 532 1203 c 0
 532 1197 532 1191 532 1185 c 1
 931 1185 l 1
EndSplineSet
EndChar

StartChar: macron
Encoding: 65574 -1 334
Width: 979
GlyphClass: 2
Flags: HW
HStem: 448 124<192 783>
VStem: 192 591<448 572>
LayerCount: 2
Fore
SplineSet
192 448 m 1
 192 572 l 1
 783 572 l 1
 783 448 l 1
 192 448 l 1
EndSplineSet
EndChar

StartChar: asciicircum.001
Encoding: 65575 -1 335
Width: 1428
GlyphClass: 2
Flags: HW
HStem: 809 202<565 863>
VStem: 374 680
DStem2: 374 510 502 432 0.503549 0.863966<0 429.533> 762 1011 714 809 0.503549 -0.863966<150.351 579.884>
LayerCount: 2
Fore
SplineSet
666 1011 m 1
 762 1011 l 1
 1054 510 l 1
 926 432 l 1
 714 809 l 1
 502 432 l 1
 374 510 l 1
 666 1011 l 1
EndSplineSet
EndChar

StartChar: t_t
Encoding: 65576 -1 336
Width: 1740
GlyphClass: 2
Flags: HW
HStem: -24 201<558.976 779.746 1360.85 1580.66> 1054 131<16 239 530 1039 1331 1666> 1647 20G<451.714 530 1252.43 1331>
VStem: 239 291<228.575 1054> 256 274<1185 1597> 1039 292<228.575 1054> 1056 275<1185 1597>
LayerCount: 2
Fore
SplineSet
1709 72 m 1
 1625 19 1512 -24 1373 -24 c 0
 1100 -24 1039 182 1039 460 c 2
 1039 1054 l 1
 530 1054 l 1
 530 377 l 2
 530 264 546 177 648 177 c 0
 717 177 778 219 832 251 c 1
 909 72 l 1
 825 19 712 -24 573 -24 c 0
 300 -24 239 182 239 460 c 2
 239 1054 l 1
 16 1054 l 1
 16 1185 l 1
 256 1185 l 1
 256 1597 l 1
 530 1667 l 1
 530 1185 l 1
 1056 1185 l 1
 1056 1597 l 1
 1331 1667 l 1
 1331 1185 l 1
 1666 1185 l 1
 1666 1054 l 1
 1331 1054 l 1
 1331 377 l 2
 1331 265 1347 177 1448 177 c 0
 1517 177 1579 219 1631 251 c 1
 1709 72 l 1
EndSplineSet
EndChar

StartChar: f_j
Encoding: 65577 -1 337
Width: 1463
GlyphClass: 2
Flags: HW
HStem: 0 21G<239 532> 1053 132<24 239 532 1013> 1410 332<1047.7 1270.99> 1494 217<575.783 838.905>
VStem: 239 293<0 1053 1185 1450.38> 998 322<1459.91 1692.79> 1013 294<-18.8906 1053>
LayerCount: 2
Fore
SplineSet
1159 1410 m 256
 1064 1410 998 1481 998 1576 c 0
 998 1672 1063 1742 1159 1742 c 256
 1254 1742 1320 1671 1320 1576 c 0
 1320 1480 1256 1410 1159 1410 c 256
840 1453 m 1
 796 1474 740 1494 676 1494 c 0
 535 1494 532 1350 532 1203 c 0
 532 1197 532 1191 532 1185 c 1
 1307 1185 l 1
 1307 187 l 2
 1307 -109 1136 -309 896 -364 c 1
 809 -173 l 1
 939 -95 1013 0 1013 208 c 2
 1013 1053 l 1
 532 1053 l 1
 532 0 l 1
 239 0 l 1
 239 1053 l 1
 24 1053 l 1
 24 1185 l 1
 239 1185 l 1
 239 1502 325 1711 617 1711 c 0
 711 1711 793 1690 865 1661 c 1
 840 1453 l 1
EndSplineSet
EndChar

StartChar: uni0ECD_uni0EB2
Encoding: 65578 -1 338
Width: 988
VWidth: 2170
GlyphClass: 2
Flags: HW
HStem: 0 22G<564.972 847.972> 708 149<222.972 346.972> 1021 152<218.972 362.972> 1569 141<-431.028 -286.028> 1889 138<-438.028 -278.028>
VStem: -593 144<1729 1877> -267 145<1727 1878> 33 176<871 1009> 363 112<888 1001> 363 95<911 1013> 565 283<0 984>
LayerCount: 2
Fore
SplineSet
-357 1710 m 0xff20
 -306 1710 -267 1747 -267 1800 c 0
 -267 1851 -306 1889 -357 1889 c 0
 -409 1889 -449 1851 -449 1800 c 0
 -449 1750 -409 1710 -357 1710 c 0xff20
-122 1797 m 0
 -122 1666 -226 1569 -357 1569 c 256
 -489 1569 -593 1665 -593 1797 c 256
 -593 1929 -489 2027 -357 2027 c 0
 -225 2027 -122 1929 -122 1797 c 0
278 708 m 0
 136 708 33 777 33 918 c 0
 33 1100 179 1172 378 1172 c 0
 677 1172 848 1057 848 768 c 2
 848 0 l 1
 565 0 l 1
 565 818 l 2
 565 929 545 991 458 1013 c 1
 475 899 l 1
 475 772 409 708 278 708 c 0
293 858 m 0
 346 858 363 912 363 971 c 2
 363 1021 l 1
 279 1021 209 1017 209 937 c 0
 209 885 240 858 293 858 c 0
EndSplineSet
EndChar
